G04 EAGLE Gerber X2 export*
%TF.Part,Single*%
%TF.FileFunction,Copper,L1,Top,Mixed*%
%TF.FilePolarity,Positive*%
%TF.GenerationSoftware,Autodesk,EAGLE,9.0.1*%
%TF.CreationDate,2018-06-20T13:35:04Z*%
G75*
%MOMM*%
%FSLAX34Y34*%
%LPD*%
%AMOC8*
5,1,8,0,0,1.08239X$1,22.5*%
G01*
%ADD10C,1.600200*%
%ADD11R,1.058000X1.058000*%
%ADD12C,1.058000*%
%ADD13C,1.828800*%
%ADD14C,0.812800*%

G36*
X343022Y21345D02*
X343022Y21345D01*
X343099Y21342D01*
X358037Y22076D01*
X358312Y22108D01*
X358434Y22115D01*
X373228Y24309D01*
X373499Y24369D01*
X373619Y24387D01*
X388127Y28021D01*
X388390Y28107D01*
X388508Y28137D01*
X402590Y33175D01*
X402844Y33287D01*
X402958Y33328D01*
X416478Y39722D01*
X416720Y39858D01*
X416830Y39910D01*
X429658Y47599D01*
X429885Y47758D01*
X429989Y47820D01*
X442002Y56730D01*
X442213Y56910D01*
X442310Y56983D01*
X453392Y67026D01*
X453584Y67227D01*
X453674Y67308D01*
X463717Y78390D01*
X463889Y78608D01*
X463970Y78698D01*
X472880Y90711D01*
X473029Y90944D01*
X473101Y91042D01*
X480790Y103870D01*
X480916Y104118D01*
X480978Y104222D01*
X487372Y117742D01*
X487473Y118000D01*
X487525Y118110D01*
X492563Y132192D01*
X492638Y132459D01*
X492679Y132573D01*
X496313Y147081D01*
X496362Y147354D01*
X496391Y147472D01*
X498585Y162266D01*
X498607Y162543D01*
X498625Y162663D01*
X499358Y177601D01*
X499356Y177723D01*
X499363Y177800D01*
X499363Y393700D01*
X499355Y393822D01*
X499358Y393899D01*
X498625Y408837D01*
X498592Y409112D01*
X498585Y409234D01*
X496391Y424028D01*
X496331Y424299D01*
X496313Y424419D01*
X492679Y438927D01*
X492593Y439190D01*
X492563Y439308D01*
X487525Y453390D01*
X487472Y453511D01*
X487442Y453601D01*
X487396Y453692D01*
X487372Y453758D01*
X480978Y467278D01*
X480842Y467520D01*
X480790Y467630D01*
X473101Y480458D01*
X472942Y480685D01*
X472880Y480789D01*
X463970Y492802D01*
X463790Y493013D01*
X463717Y493110D01*
X453674Y504192D01*
X453474Y504384D01*
X453392Y504474D01*
X442310Y514517D01*
X442092Y514689D01*
X442002Y514770D01*
X429989Y523680D01*
X429755Y523829D01*
X429658Y523901D01*
X429246Y524148D01*
X429147Y524198D01*
X429054Y524256D01*
X428894Y524327D01*
X428738Y524406D01*
X428633Y524442D01*
X428533Y524486D01*
X428364Y524534D01*
X428198Y524590D01*
X428090Y524611D01*
X427985Y524641D01*
X427811Y524665D01*
X427639Y524697D01*
X427529Y524703D01*
X427420Y524718D01*
X427245Y524717D01*
X427070Y524725D01*
X426960Y524715D01*
X426850Y524715D01*
X426677Y524689D01*
X426502Y524673D01*
X426395Y524648D01*
X426286Y524632D01*
X426118Y524582D01*
X425948Y524542D01*
X425845Y524502D01*
X425740Y524471D01*
X425580Y524399D01*
X425417Y524335D01*
X425321Y524281D01*
X425221Y524235D01*
X425073Y524141D01*
X424920Y524055D01*
X424833Y523988D01*
X424740Y523929D01*
X424607Y523816D01*
X424468Y523709D01*
X424391Y523631D01*
X424307Y523559D01*
X424191Y523428D01*
X424068Y523303D01*
X424003Y523215D01*
X423930Y523132D01*
X423833Y522986D01*
X423729Y522845D01*
X423677Y522749D01*
X423616Y522656D01*
X423541Y522498D01*
X423458Y522344D01*
X423419Y522241D01*
X423372Y522142D01*
X423320Y521974D01*
X423259Y521810D01*
X423235Y521703D01*
X423203Y521598D01*
X423174Y521425D01*
X423137Y521254D01*
X423128Y521144D01*
X423111Y521035D01*
X423107Y520860D01*
X423094Y520685D01*
X423101Y520576D01*
X423098Y520466D01*
X423119Y520291D01*
X423131Y520117D01*
X423153Y520009D01*
X423166Y519900D01*
X423211Y519730D01*
X423246Y519559D01*
X423284Y519456D01*
X423312Y519349D01*
X423360Y519243D01*
X423439Y519023D01*
X423589Y518740D01*
X423638Y518631D01*
X428731Y509810D01*
X431293Y500249D01*
X431293Y299851D01*
X428731Y290290D01*
X423782Y281717D01*
X416783Y274718D01*
X408210Y269769D01*
X398649Y267207D01*
X358650Y267207D01*
X358478Y267195D01*
X358305Y267193D01*
X358194Y267175D01*
X358082Y267167D01*
X357913Y267131D01*
X357742Y267105D01*
X357635Y267072D01*
X357525Y267048D01*
X357363Y266989D01*
X357197Y266939D01*
X357095Y266891D01*
X356990Y266852D01*
X356837Y266771D01*
X356681Y266698D01*
X356587Y266637D01*
X356487Y266584D01*
X356348Y266482D01*
X356203Y266388D01*
X356118Y266314D01*
X356027Y266247D01*
X355903Y266127D01*
X355773Y266013D01*
X355700Y265928D01*
X355619Y265850D01*
X355513Y265713D01*
X355400Y265583D01*
X355339Y265488D01*
X355270Y265399D01*
X355185Y265249D01*
X355091Y265104D01*
X355044Y265002D01*
X354988Y264904D01*
X354924Y264743D01*
X354852Y264587D01*
X354819Y264479D01*
X354778Y264375D01*
X354737Y264206D01*
X354687Y264041D01*
X354670Y263930D01*
X354644Y263821D01*
X354627Y263649D01*
X354601Y263478D01*
X354599Y263366D01*
X354589Y263254D01*
X354596Y263081D01*
X354594Y262908D01*
X354608Y262797D01*
X354613Y262684D01*
X354645Y262514D01*
X354667Y262343D01*
X354692Y262262D01*
X354717Y262124D01*
X354893Y261601D01*
X354896Y261589D01*
X356617Y257436D01*
X356617Y250564D01*
X353987Y244216D01*
X353944Y244173D01*
X353794Y243999D01*
X353638Y243830D01*
X353607Y243784D01*
X353571Y243743D01*
X353446Y243550D01*
X353315Y243360D01*
X353291Y243311D01*
X353261Y243265D01*
X353164Y243055D01*
X353062Y242850D01*
X353044Y242798D01*
X353021Y242748D01*
X352954Y242527D01*
X352882Y242309D01*
X352872Y242255D01*
X352856Y242203D01*
X352821Y241975D01*
X352779Y241749D01*
X352777Y241694D01*
X352769Y241640D01*
X352765Y241410D01*
X352756Y241179D01*
X352762Y241125D01*
X352761Y241070D01*
X352790Y240842D01*
X352813Y240612D01*
X352826Y240559D01*
X352833Y240505D01*
X352894Y240282D01*
X352949Y240059D01*
X352969Y240008D01*
X352983Y239955D01*
X353075Y239743D01*
X353160Y239530D01*
X353187Y239482D01*
X353209Y239432D01*
X353329Y239235D01*
X353444Y239036D01*
X353472Y239001D01*
X353506Y238946D01*
X353868Y238505D01*
X353916Y238461D01*
X353945Y238427D01*
X353987Y238384D01*
X355335Y235129D01*
X355336Y235129D01*
X356617Y232036D01*
X356617Y225164D01*
X353987Y218816D01*
X353944Y218773D01*
X353794Y218599D01*
X353638Y218430D01*
X353607Y218384D01*
X353571Y218343D01*
X353446Y218150D01*
X353315Y217960D01*
X353291Y217911D01*
X353261Y217865D01*
X353164Y217656D01*
X353062Y217450D01*
X353044Y217398D01*
X353021Y217348D01*
X352954Y217127D01*
X352882Y216909D01*
X352872Y216855D01*
X352856Y216803D01*
X352821Y216575D01*
X352779Y216349D01*
X352777Y216294D01*
X352769Y216240D01*
X352765Y216010D01*
X352756Y215779D01*
X352762Y215725D01*
X352761Y215670D01*
X352790Y215442D01*
X352813Y215212D01*
X352826Y215159D01*
X352833Y215105D01*
X352894Y214882D01*
X352949Y214659D01*
X352969Y214608D01*
X352983Y214555D01*
X353075Y214343D01*
X353160Y214130D01*
X353187Y214082D01*
X353209Y214032D01*
X353329Y213835D01*
X353444Y213636D01*
X353472Y213601D01*
X353506Y213546D01*
X353868Y213105D01*
X353916Y213061D01*
X353945Y213027D01*
X353987Y212984D01*
X356617Y206636D01*
X356617Y199764D01*
X353987Y193416D01*
X353944Y193373D01*
X353794Y193199D01*
X353638Y193030D01*
X353607Y192984D01*
X353571Y192943D01*
X353446Y192750D01*
X353315Y192560D01*
X353291Y192511D01*
X353261Y192465D01*
X353164Y192256D01*
X353062Y192050D01*
X353044Y191998D01*
X353021Y191948D01*
X352954Y191727D01*
X352882Y191509D01*
X352872Y191455D01*
X352856Y191403D01*
X352821Y191175D01*
X352779Y190949D01*
X352777Y190894D01*
X352769Y190840D01*
X352765Y190610D01*
X352756Y190379D01*
X352762Y190325D01*
X352761Y190270D01*
X352790Y190042D01*
X352813Y189812D01*
X352826Y189759D01*
X352833Y189705D01*
X352894Y189482D01*
X352949Y189259D01*
X352969Y189208D01*
X352983Y189155D01*
X353075Y188943D01*
X353160Y188730D01*
X353187Y188682D01*
X353209Y188632D01*
X353329Y188435D01*
X353444Y188236D01*
X353472Y188201D01*
X353506Y188146D01*
X353868Y187705D01*
X353916Y187661D01*
X353945Y187627D01*
X353987Y187584D01*
X356617Y181236D01*
X356617Y174364D01*
X353987Y168016D01*
X349754Y163783D01*
X349625Y163634D01*
X349490Y163492D01*
X349439Y163420D01*
X349380Y163352D01*
X349273Y163187D01*
X349160Y163028D01*
X349119Y162949D01*
X349070Y162874D01*
X348988Y162696D01*
X348897Y162522D01*
X348868Y162438D01*
X348831Y162357D01*
X348774Y162170D01*
X348709Y161984D01*
X348691Y161897D01*
X348665Y161812D01*
X348635Y161618D01*
X348597Y161426D01*
X348592Y161337D01*
X348578Y161249D01*
X348575Y161053D01*
X348564Y160857D01*
X348572Y160768D01*
X348570Y160679D01*
X348595Y160484D01*
X348612Y160289D01*
X348631Y160202D01*
X348642Y160114D01*
X348694Y159925D01*
X348738Y159733D01*
X348769Y159650D01*
X348793Y159565D01*
X348871Y159384D01*
X348941Y159201D01*
X348976Y159141D01*
X349019Y159041D01*
X349315Y158555D01*
X349331Y158536D01*
X349335Y158529D01*
X350173Y156885D01*
X350310Y156463D01*
X330200Y156463D01*
X329971Y156447D01*
X329741Y156437D01*
X329687Y156427D01*
X329632Y156423D01*
X329407Y156375D01*
X329181Y156333D01*
X329128Y156316D01*
X329075Y156304D01*
X328859Y156225D01*
X328640Y156152D01*
X328591Y156127D01*
X328540Y156109D01*
X328337Y156000D01*
X328131Y155897D01*
X328086Y155866D01*
X328037Y155840D01*
X327852Y155704D01*
X327662Y155573D01*
X327622Y155536D01*
X327577Y155503D01*
X327413Y155343D01*
X327243Y155187D01*
X327208Y155144D01*
X327169Y155106D01*
X327028Y154924D01*
X326882Y154746D01*
X326854Y154699D01*
X326820Y154655D01*
X326706Y154455D01*
X326587Y154259D01*
X326565Y154208D01*
X326538Y154160D01*
X326453Y153946D01*
X326363Y153735D01*
X326348Y153682D01*
X326328Y153631D01*
X326274Y153406D01*
X326214Y153185D01*
X326209Y153141D01*
X326194Y153077D01*
X326139Y152510D01*
X326140Y152467D01*
X326141Y152444D01*
X326137Y152400D01*
X326153Y152170D01*
X326163Y151940D01*
X326173Y151886D01*
X326177Y151831D01*
X326225Y151606D01*
X326267Y151380D01*
X326285Y151328D01*
X326296Y151274D01*
X326375Y151058D01*
X326448Y150840D01*
X326473Y150791D01*
X326492Y150739D01*
X326601Y150536D01*
X326704Y150330D01*
X326735Y150285D01*
X326761Y150237D01*
X326896Y150051D01*
X327027Y149862D01*
X327065Y149821D01*
X327097Y149777D01*
X327257Y149612D01*
X327414Y149443D01*
X327456Y149408D01*
X327495Y149369D01*
X327676Y149228D01*
X327855Y149082D01*
X327902Y149053D01*
X327945Y149020D01*
X328145Y148906D01*
X328342Y148786D01*
X328392Y148765D01*
X328440Y148738D01*
X328655Y148652D01*
X328866Y148562D01*
X328918Y148548D01*
X328970Y148527D01*
X329194Y148473D01*
X329416Y148413D01*
X329460Y148409D01*
X329524Y148393D01*
X330091Y148338D01*
X330156Y148341D01*
X330200Y148337D01*
X350310Y148337D01*
X350173Y147915D01*
X349336Y146273D01*
X349236Y146113D01*
X349125Y145951D01*
X349085Y145871D01*
X349038Y145796D01*
X348958Y145616D01*
X348871Y145440D01*
X348843Y145356D01*
X348807Y145275D01*
X348753Y145086D01*
X348691Y144900D01*
X348675Y144812D01*
X348651Y144727D01*
X348624Y144533D01*
X348589Y144339D01*
X348585Y144250D01*
X348573Y144163D01*
X348574Y143967D01*
X348566Y143770D01*
X348574Y143681D01*
X348575Y143593D01*
X348603Y143399D01*
X348622Y143203D01*
X348644Y143117D01*
X348656Y143029D01*
X348711Y142840D01*
X348758Y142650D01*
X348791Y142567D01*
X348816Y142482D01*
X348897Y142303D01*
X348970Y142121D01*
X349014Y142044D01*
X349050Y141963D01*
X349155Y141797D01*
X349253Y141626D01*
X349297Y141573D01*
X349355Y141481D01*
X349724Y141047D01*
X349743Y141031D01*
X349754Y141017D01*
X353987Y136784D01*
X356617Y130436D01*
X356617Y123564D01*
X353987Y117216D01*
X349128Y112357D01*
X342780Y109727D01*
X317620Y109727D01*
X311272Y112357D01*
X308226Y115402D01*
X308152Y115467D01*
X308083Y115539D01*
X307937Y115654D01*
X307796Y115776D01*
X307713Y115830D01*
X307636Y115891D01*
X307474Y115985D01*
X307318Y116086D01*
X307228Y116128D01*
X307143Y116177D01*
X307031Y116219D01*
X306801Y116326D01*
X306519Y116411D01*
X306405Y116454D01*
X302990Y117369D01*
X294417Y122318D01*
X287418Y129317D01*
X282469Y137890D01*
X279907Y147451D01*
X279907Y309749D01*
X282469Y319310D01*
X287418Y327883D01*
X294417Y334882D01*
X302990Y339831D01*
X312551Y342393D01*
X355600Y342393D01*
X355768Y342405D01*
X355866Y342401D01*
X357059Y342480D01*
X357063Y342480D01*
X357067Y342480D01*
X357086Y342483D01*
X357624Y342557D01*
X357760Y342595D01*
X357845Y342609D01*
X360151Y343227D01*
X360280Y343272D01*
X360413Y343307D01*
X360510Y343351D01*
X360690Y343413D01*
X361038Y343591D01*
X361131Y343633D01*
X363198Y344827D01*
X363312Y344903D01*
X363431Y344972D01*
X363512Y345039D01*
X363670Y345145D01*
X363961Y345408D01*
X364040Y345472D01*
X365728Y347160D01*
X365818Y347264D01*
X365915Y347361D01*
X365976Y347447D01*
X366101Y347590D01*
X366314Y347919D01*
X366373Y348002D01*
X367567Y350069D01*
X367627Y350192D01*
X367696Y350311D01*
X367733Y350410D01*
X367816Y350581D01*
X367937Y350954D01*
X367973Y351049D01*
X368591Y353355D01*
X368591Y353359D01*
X368593Y353363D01*
X368596Y353382D01*
X368699Y353914D01*
X368706Y354055D01*
X368720Y354141D01*
X368799Y355334D01*
X368798Y355503D01*
X368807Y355600D01*
X368807Y454765D01*
X368795Y454938D01*
X368793Y455110D01*
X368775Y455221D01*
X368767Y455334D01*
X368731Y455503D01*
X368705Y455673D01*
X368672Y455781D01*
X368648Y455891D01*
X368589Y456053D01*
X368539Y456218D01*
X368491Y456320D01*
X368452Y456426D01*
X368371Y456578D01*
X368298Y456735D01*
X368237Y456829D01*
X368184Y456928D01*
X368082Y457068D01*
X367988Y457213D01*
X367914Y457297D01*
X367847Y457388D01*
X367727Y457512D01*
X367613Y457642D01*
X367528Y457716D01*
X367450Y457796D01*
X367313Y457902D01*
X367183Y458015D01*
X367088Y458076D01*
X366999Y458145D01*
X366849Y458231D01*
X366704Y458324D01*
X366602Y458372D01*
X366504Y458427D01*
X366343Y458491D01*
X366187Y458564D01*
X366079Y458596D01*
X365975Y458638D01*
X365807Y458678D01*
X365641Y458728D01*
X365530Y458745D01*
X365421Y458772D01*
X365249Y458788D01*
X365078Y458815D01*
X364966Y458816D01*
X364854Y458827D01*
X364681Y458820D01*
X364508Y458822D01*
X364397Y458807D01*
X364284Y458802D01*
X364115Y458771D01*
X363943Y458749D01*
X363861Y458724D01*
X363724Y458698D01*
X363202Y458523D01*
X363189Y458519D01*
X358269Y456481D01*
X352931Y456481D01*
X350805Y457362D01*
X350748Y457381D01*
X350693Y457406D01*
X350478Y457471D01*
X350265Y457542D01*
X350205Y457553D01*
X350147Y457571D01*
X349926Y457605D01*
X349704Y457646D01*
X349644Y457648D01*
X349584Y457657D01*
X349360Y457660D01*
X349135Y457670D01*
X349075Y457664D01*
X349014Y457664D01*
X348792Y457636D01*
X348568Y457613D01*
X348509Y457599D01*
X348449Y457591D01*
X348337Y457557D01*
X348014Y457479D01*
X347805Y457395D01*
X347695Y457362D01*
X344901Y456205D01*
X344899Y456203D01*
X344896Y456202D01*
X344639Y456074D01*
X344391Y455950D01*
X344389Y455949D01*
X344387Y455947D01*
X344152Y455785D01*
X343922Y455627D01*
X343920Y455625D01*
X343918Y455623D01*
X343705Y455428D01*
X343503Y455241D01*
X343501Y455239D01*
X343499Y455237D01*
X343311Y455008D01*
X343141Y454801D01*
X343140Y454798D01*
X343138Y454796D01*
X342989Y454550D01*
X342845Y454314D01*
X342844Y454311D01*
X342843Y454309D01*
X342731Y454049D01*
X342620Y453790D01*
X342619Y453788D01*
X342618Y453785D01*
X342544Y453513D01*
X342470Y453241D01*
X342470Y453238D01*
X342469Y453235D01*
X342468Y453222D01*
X342399Y452675D01*
X342401Y452536D01*
X342393Y452451D01*
X342393Y401451D01*
X339831Y391890D01*
X334882Y383318D01*
X327882Y376318D01*
X319310Y371369D01*
X309749Y368807D01*
X219456Y368807D01*
X219227Y368791D01*
X218996Y368781D01*
X218942Y368771D01*
X218888Y368767D01*
X218662Y368719D01*
X218436Y368677D01*
X218384Y368660D01*
X218330Y368648D01*
X218114Y368569D01*
X217896Y368496D01*
X217847Y368471D01*
X217795Y368452D01*
X217592Y368344D01*
X217387Y368241D01*
X217341Y368210D01*
X217293Y368184D01*
X217107Y368048D01*
X216918Y367917D01*
X216877Y367880D01*
X216833Y367847D01*
X216668Y367687D01*
X216499Y367531D01*
X216464Y367488D01*
X216425Y367450D01*
X216284Y367268D01*
X216138Y367090D01*
X216110Y367042D01*
X216076Y366999D01*
X215962Y366799D01*
X215843Y366602D01*
X215821Y366552D01*
X215794Y366504D01*
X215709Y366290D01*
X215618Y366079D01*
X215604Y366026D01*
X215584Y365975D01*
X215529Y365750D01*
X215469Y365529D01*
X215465Y365485D01*
X215449Y365421D01*
X215394Y364854D01*
X215397Y364788D01*
X215393Y364744D01*
X215393Y257856D01*
X212321Y240435D01*
X206271Y223813D01*
X197427Y208494D01*
X186056Y194944D01*
X172506Y183573D01*
X157187Y174729D01*
X140565Y168679D01*
X128899Y166622D01*
X128798Y166597D01*
X128697Y166581D01*
X128523Y166528D01*
X128346Y166484D01*
X128250Y166445D01*
X128151Y166415D01*
X127987Y166338D01*
X127818Y166270D01*
X127729Y166218D01*
X127635Y166174D01*
X127482Y166075D01*
X127325Y165984D01*
X127244Y165920D01*
X127157Y165864D01*
X127020Y165744D01*
X126877Y165632D01*
X126806Y165558D01*
X126727Y165490D01*
X126608Y165352D01*
X126482Y165221D01*
X126422Y165137D01*
X126354Y165059D01*
X126256Y164906D01*
X126149Y164759D01*
X126101Y164667D01*
X126045Y164580D01*
X125969Y164415D01*
X125884Y164254D01*
X125849Y164157D01*
X125806Y164063D01*
X125753Y163889D01*
X125692Y163718D01*
X125671Y163617D01*
X125642Y163518D01*
X125614Y163338D01*
X125577Y163160D01*
X125571Y163057D01*
X125555Y162955D01*
X125553Y162773D01*
X125541Y162591D01*
X125549Y162488D01*
X125548Y162385D01*
X125571Y162205D01*
X125585Y162023D01*
X125608Y161922D01*
X125621Y161820D01*
X125655Y161706D01*
X125708Y161467D01*
X125815Y161181D01*
X125851Y161065D01*
X127150Y157928D01*
X127150Y157927D01*
X128017Y155836D01*
X128017Y148964D01*
X125387Y142616D01*
X125344Y142573D01*
X125194Y142399D01*
X125038Y142230D01*
X125007Y142184D01*
X124971Y142143D01*
X124846Y141950D01*
X124715Y141760D01*
X124691Y141711D01*
X124661Y141665D01*
X124564Y141456D01*
X124462Y141250D01*
X124444Y141198D01*
X124421Y141148D01*
X124354Y140927D01*
X124282Y140709D01*
X124272Y140655D01*
X124256Y140603D01*
X124221Y140375D01*
X124179Y140149D01*
X124177Y140094D01*
X124169Y140040D01*
X124165Y139810D01*
X124156Y139579D01*
X124162Y139525D01*
X124161Y139470D01*
X124190Y139242D01*
X124213Y139012D01*
X124226Y138959D01*
X124233Y138905D01*
X124294Y138682D01*
X124349Y138459D01*
X124369Y138408D01*
X124383Y138355D01*
X124475Y138143D01*
X124560Y137930D01*
X124587Y137882D01*
X124609Y137832D01*
X124729Y137635D01*
X124844Y137436D01*
X124872Y137401D01*
X124906Y137346D01*
X125268Y136905D01*
X125316Y136861D01*
X125345Y136827D01*
X125387Y136784D01*
X128017Y130436D01*
X128017Y123564D01*
X125387Y117216D01*
X120528Y112357D01*
X114180Y109727D01*
X89020Y109727D01*
X82672Y112357D01*
X79626Y115402D01*
X79552Y115467D01*
X79483Y115539D01*
X79337Y115654D01*
X79196Y115776D01*
X79113Y115830D01*
X79036Y115891D01*
X78875Y115984D01*
X78718Y116086D01*
X78628Y116128D01*
X78543Y116177D01*
X78431Y116219D01*
X78201Y116326D01*
X77919Y116411D01*
X77805Y116454D01*
X74390Y117369D01*
X65818Y122318D01*
X58818Y129317D01*
X53869Y137890D01*
X51307Y147451D01*
X51307Y411349D01*
X53869Y420910D01*
X58818Y429483D01*
X65817Y436482D01*
X74390Y441431D01*
X83951Y443993D01*
X182898Y443993D01*
X182958Y443997D01*
X183018Y443995D01*
X183242Y444017D01*
X183466Y444033D01*
X183525Y444045D01*
X183585Y444051D01*
X183804Y444105D01*
X184023Y444152D01*
X184080Y444172D01*
X184139Y444187D01*
X184347Y444270D01*
X184558Y444348D01*
X184612Y444376D01*
X184668Y444398D01*
X184862Y444510D01*
X185061Y444616D01*
X185110Y444652D01*
X185162Y444682D01*
X185253Y444757D01*
X185521Y444953D01*
X185682Y445110D01*
X185771Y445183D01*
X186287Y445699D01*
X186416Y445848D01*
X186551Y445990D01*
X186603Y446062D01*
X186661Y446130D01*
X186768Y446294D01*
X186882Y446454D01*
X186923Y446533D01*
X186971Y446608D01*
X187054Y446786D01*
X187144Y446960D01*
X187173Y447044D01*
X187211Y447125D01*
X187268Y447313D01*
X187333Y447498D01*
X187350Y447585D01*
X187376Y447670D01*
X187406Y447864D01*
X187445Y448056D01*
X187450Y448145D01*
X187463Y448233D01*
X187466Y448429D01*
X187477Y448625D01*
X187470Y448714D01*
X187471Y448803D01*
X187446Y448997D01*
X187430Y449193D01*
X187410Y449280D01*
X187399Y449368D01*
X187347Y449557D01*
X187304Y449749D01*
X187272Y449832D01*
X187249Y449917D01*
X187171Y450098D01*
X187101Y450281D01*
X187066Y450341D01*
X187023Y450441D01*
X186726Y450927D01*
X186711Y450946D01*
X186702Y450961D01*
X186183Y451675D01*
X185438Y453137D01*
X203200Y453137D01*
X203429Y453153D01*
X203659Y453163D01*
X203713Y453173D01*
X203768Y453177D01*
X203993Y453225D01*
X204219Y453267D01*
X204272Y453284D01*
X204325Y453296D01*
X204541Y453375D01*
X204760Y453448D01*
X204809Y453473D01*
X204860Y453491D01*
X205063Y453600D01*
X205269Y453703D01*
X205314Y453734D01*
X205363Y453760D01*
X205548Y453896D01*
X205738Y454027D01*
X205778Y454064D01*
X205823Y454097D01*
X205987Y454257D01*
X206157Y454413D01*
X206192Y454456D01*
X206231Y454494D01*
X206372Y454676D01*
X206518Y454854D01*
X206546Y454901D01*
X206580Y454945D01*
X206694Y455144D01*
X206813Y455341D01*
X206835Y455392D01*
X206862Y455440D01*
X206947Y455654D01*
X207037Y455865D01*
X207052Y455918D01*
X207072Y455969D01*
X207126Y456194D01*
X207186Y456415D01*
X207191Y456459D01*
X207206Y456523D01*
X207261Y457090D01*
X207259Y457156D01*
X207263Y457200D01*
X207247Y457430D01*
X207237Y457660D01*
X207227Y457714D01*
X207223Y457769D01*
X207175Y457994D01*
X207133Y458220D01*
X207115Y458272D01*
X207104Y458326D01*
X207025Y458542D01*
X206952Y458760D01*
X206927Y458809D01*
X206908Y458861D01*
X206799Y459064D01*
X206696Y459270D01*
X206665Y459315D01*
X206639Y459363D01*
X206504Y459549D01*
X206373Y459738D01*
X206335Y459779D01*
X206303Y459823D01*
X206143Y459988D01*
X205986Y460157D01*
X205944Y460192D01*
X205905Y460231D01*
X205724Y460372D01*
X205545Y460518D01*
X205498Y460547D01*
X205455Y460580D01*
X205255Y460694D01*
X205058Y460813D01*
X205008Y460835D01*
X204960Y460862D01*
X204745Y460948D01*
X204534Y461038D01*
X204482Y461052D01*
X204430Y461073D01*
X204206Y461127D01*
X203984Y461187D01*
X203940Y461191D01*
X203876Y461207D01*
X203309Y461262D01*
X203244Y461259D01*
X203200Y461263D01*
X185438Y461263D01*
X186183Y462725D01*
X186702Y463439D01*
X186806Y463606D01*
X186917Y463767D01*
X186956Y463847D01*
X187003Y463922D01*
X187083Y464102D01*
X187170Y464277D01*
X187198Y464362D01*
X187235Y464443D01*
X187288Y464632D01*
X187350Y464818D01*
X187366Y464906D01*
X187391Y464991D01*
X187417Y465185D01*
X187453Y465379D01*
X187456Y465468D01*
X187469Y465556D01*
X187468Y465752D01*
X187476Y465948D01*
X187467Y466036D01*
X187467Y466125D01*
X187439Y466320D01*
X187419Y466515D01*
X187398Y466601D01*
X187385Y466689D01*
X187330Y466878D01*
X187284Y467068D01*
X187250Y467151D01*
X187226Y467236D01*
X187145Y467415D01*
X187072Y467597D01*
X187028Y467674D01*
X186991Y467756D01*
X186886Y467921D01*
X186788Y468092D01*
X186744Y468145D01*
X186686Y468237D01*
X186317Y468671D01*
X186299Y468687D01*
X186288Y468701D01*
X181525Y473463D01*
X179069Y479392D01*
X179069Y485808D01*
X181525Y491737D01*
X182215Y492427D01*
X182366Y492601D01*
X182521Y492770D01*
X182553Y492816D01*
X182589Y492857D01*
X182714Y493050D01*
X182844Y493240D01*
X182869Y493289D01*
X182898Y493335D01*
X182995Y493544D01*
X183098Y493750D01*
X183115Y493802D01*
X183138Y493852D01*
X183205Y494072D01*
X183278Y494291D01*
X183288Y494345D01*
X183304Y494397D01*
X183339Y494625D01*
X183380Y494851D01*
X183382Y494906D01*
X183391Y494960D01*
X183394Y495190D01*
X183403Y495421D01*
X183398Y495475D01*
X183399Y495530D01*
X183369Y495758D01*
X183346Y495987D01*
X183333Y496041D01*
X183326Y496095D01*
X183266Y496317D01*
X183211Y496541D01*
X183190Y496592D01*
X183176Y496645D01*
X183085Y496856D01*
X182999Y497070D01*
X182972Y497118D01*
X182950Y497168D01*
X182830Y497365D01*
X182716Y497564D01*
X182688Y497598D01*
X182653Y497654D01*
X182292Y498094D01*
X182243Y498139D01*
X182215Y498173D01*
X181525Y498863D01*
X179069Y504792D01*
X179069Y511208D01*
X181525Y517137D01*
X186062Y521674D01*
X191991Y524130D01*
X214409Y524130D01*
X220338Y521674D01*
X225271Y516741D01*
X225274Y516738D01*
X225277Y516735D01*
X225484Y516556D01*
X225701Y516367D01*
X225705Y516365D01*
X225707Y516363D01*
X225723Y516353D01*
X226179Y516057D01*
X226307Y515998D01*
X226381Y515953D01*
X236926Y510875D01*
X248024Y502024D01*
X256875Y490926D01*
X263034Y478137D01*
X266193Y464298D01*
X266193Y426133D01*
X263671Y415084D01*
X262749Y413169D01*
X262748Y413169D01*
X260792Y409106D01*
X260792Y409105D01*
X258835Y405043D01*
X258835Y405042D01*
X258754Y404873D01*
X254699Y399789D01*
X254601Y399647D01*
X254496Y399511D01*
X254440Y399413D01*
X254376Y399320D01*
X254299Y399166D01*
X254214Y399016D01*
X254172Y398911D01*
X254122Y398810D01*
X254067Y398647D01*
X254004Y398487D01*
X253977Y398377D01*
X253941Y398270D01*
X253910Y398100D01*
X253869Y397933D01*
X253859Y397820D01*
X253838Y397709D01*
X253831Y397537D01*
X253814Y397366D01*
X253819Y397253D01*
X253814Y397140D01*
X253831Y396969D01*
X253839Y396796D01*
X253859Y396685D01*
X253871Y396573D01*
X253911Y396406D01*
X253943Y396236D01*
X253979Y396129D01*
X254005Y396019D01*
X254069Y395860D01*
X254124Y395696D01*
X254175Y395595D01*
X254216Y395490D01*
X254302Y395341D01*
X254379Y395187D01*
X254443Y395094D01*
X254499Y394996D01*
X254605Y394860D01*
X254703Y394718D01*
X254780Y394635D01*
X254849Y394546D01*
X254972Y394426D01*
X255089Y394299D01*
X255177Y394227D01*
X255258Y394149D01*
X255397Y394047D01*
X255530Y393938D01*
X255627Y393880D01*
X255718Y393813D01*
X255870Y393732D01*
X256018Y393643D01*
X256121Y393598D01*
X256221Y393545D01*
X256383Y393486D01*
X256541Y393418D01*
X256650Y393389D01*
X256756Y393350D01*
X256925Y393314D01*
X257091Y393269D01*
X257177Y393261D01*
X257314Y393232D01*
X257861Y393194D01*
X257876Y393193D01*
X304800Y393193D01*
X304968Y393205D01*
X305066Y393201D01*
X306259Y393280D01*
X306263Y393280D01*
X306267Y393280D01*
X306286Y393283D01*
X306824Y393357D01*
X306960Y393395D01*
X307045Y393409D01*
X309351Y394027D01*
X309480Y394072D01*
X309613Y394107D01*
X309710Y394151D01*
X309890Y394213D01*
X310238Y394391D01*
X310331Y394433D01*
X312398Y395627D01*
X312512Y395703D01*
X312631Y395772D01*
X312712Y395839D01*
X312870Y395945D01*
X313043Y396101D01*
X313063Y396116D01*
X313111Y396163D01*
X313161Y396208D01*
X313240Y396272D01*
X314928Y397960D01*
X315017Y398064D01*
X315115Y398160D01*
X315176Y398247D01*
X315301Y398390D01*
X315514Y398719D01*
X315573Y398802D01*
X316767Y400869D01*
X316827Y400992D01*
X316896Y401111D01*
X316933Y401210D01*
X317016Y401381D01*
X317137Y401754D01*
X317173Y401849D01*
X317791Y404155D01*
X317791Y404159D01*
X317793Y404163D01*
X317796Y404182D01*
X317899Y404714D01*
X317906Y404855D01*
X317920Y404941D01*
X317999Y406134D01*
X317998Y406303D01*
X318007Y406400D01*
X318007Y463463D01*
X317999Y463581D01*
X318000Y463698D01*
X317979Y463864D01*
X317967Y464031D01*
X317943Y464146D01*
X317928Y464263D01*
X317894Y464373D01*
X317848Y464588D01*
X317732Y464906D01*
X317698Y465018D01*
X316781Y467231D01*
X316781Y472569D01*
X317662Y474695D01*
X317681Y474752D01*
X317706Y474807D01*
X317771Y475022D01*
X317842Y475235D01*
X317853Y475295D01*
X317871Y475353D01*
X317905Y475575D01*
X317946Y475796D01*
X317948Y475856D01*
X317957Y475916D01*
X317960Y476141D01*
X317970Y476365D01*
X317964Y476425D01*
X317964Y476486D01*
X317936Y476708D01*
X317913Y476932D01*
X317899Y476991D01*
X317891Y477051D01*
X317857Y477163D01*
X317779Y477486D01*
X317695Y477695D01*
X317662Y477805D01*
X316781Y479931D01*
X316781Y485269D01*
X317698Y487482D01*
X317735Y487594D01*
X317782Y487703D01*
X317825Y487864D01*
X317879Y488023D01*
X317900Y488139D01*
X317931Y488253D01*
X317942Y488366D01*
X317982Y488583D01*
X317996Y488921D01*
X318007Y489037D01*
X318007Y500249D01*
X320569Y509810D01*
X325518Y518382D01*
X332517Y525382D01*
X341090Y530331D01*
X350651Y532893D01*
X394355Y532893D01*
X394512Y532904D01*
X394669Y532905D01*
X394795Y532924D01*
X394923Y532933D01*
X395077Y532966D01*
X395233Y532989D01*
X395355Y533025D01*
X395480Y533052D01*
X395628Y533106D01*
X395779Y533151D01*
X395895Y533204D01*
X396016Y533248D01*
X396154Y533322D01*
X396297Y533387D01*
X396405Y533456D01*
X396518Y533516D01*
X396645Y533609D01*
X396778Y533694D01*
X396875Y533777D01*
X396978Y533853D01*
X397090Y533962D01*
X397210Y534065D01*
X397295Y534161D01*
X397386Y534250D01*
X397483Y534375D01*
X397586Y534493D01*
X397657Y534600D01*
X397735Y534701D01*
X397813Y534838D01*
X397899Y534969D01*
X397954Y535085D01*
X398017Y535196D01*
X398075Y535342D01*
X398142Y535484D01*
X398180Y535606D01*
X398227Y535725D01*
X398264Y535879D01*
X398311Y536029D01*
X398331Y536155D01*
X398361Y536279D01*
X398377Y536436D01*
X398402Y536591D01*
X398404Y536719D01*
X398417Y536846D01*
X398410Y537004D01*
X398413Y537161D01*
X398398Y537288D01*
X398392Y537416D01*
X398363Y537570D01*
X398344Y537726D01*
X398311Y537850D01*
X398288Y537976D01*
X398238Y538125D01*
X398197Y538277D01*
X398148Y538395D01*
X398107Y538516D01*
X398036Y538657D01*
X397975Y538801D01*
X397909Y538911D01*
X397852Y539025D01*
X397762Y539155D01*
X397681Y539290D01*
X397601Y539389D01*
X397528Y539494D01*
X397421Y539610D01*
X397322Y539732D01*
X397228Y539819D01*
X397142Y539913D01*
X397020Y540013D01*
X396904Y540120D01*
X396800Y540193D01*
X396700Y540274D01*
X396566Y540356D01*
X396437Y540445D01*
X396351Y540486D01*
X396213Y540569D01*
X395784Y540753D01*
X395724Y540782D01*
X388508Y543363D01*
X388241Y543438D01*
X388127Y543479D01*
X373619Y547113D01*
X373346Y547162D01*
X373228Y547191D01*
X358434Y549385D01*
X358157Y549407D01*
X358037Y549425D01*
X343099Y550158D01*
X342977Y550156D01*
X342900Y550163D01*
X177800Y550163D01*
X177678Y550155D01*
X177601Y550158D01*
X162663Y549425D01*
X162388Y549392D01*
X162266Y549385D01*
X147472Y547191D01*
X147201Y547131D01*
X147081Y547113D01*
X132573Y543479D01*
X132310Y543393D01*
X132192Y543363D01*
X118110Y538325D01*
X117856Y538213D01*
X117742Y538172D01*
X104222Y531778D01*
X103980Y531642D01*
X103870Y531590D01*
X91042Y523901D01*
X90815Y523742D01*
X90711Y523680D01*
X78698Y514770D01*
X78487Y514590D01*
X78390Y514517D01*
X67308Y504474D01*
X67116Y504274D01*
X67026Y504192D01*
X56983Y493110D01*
X56811Y492892D01*
X56730Y492802D01*
X47820Y480789D01*
X47671Y480556D01*
X47599Y480458D01*
X39910Y467630D01*
X39784Y467382D01*
X39722Y467278D01*
X33328Y453758D01*
X33227Y453500D01*
X33175Y453390D01*
X28137Y439308D01*
X28062Y439041D01*
X28021Y438927D01*
X24387Y424419D01*
X24339Y424146D01*
X24309Y424028D01*
X22115Y409234D01*
X22093Y408957D01*
X22076Y408837D01*
X21342Y393899D01*
X21344Y393777D01*
X21337Y393700D01*
X21337Y177800D01*
X21345Y177678D01*
X21342Y177601D01*
X22076Y162663D01*
X22108Y162388D01*
X22115Y162266D01*
X24309Y147472D01*
X24369Y147201D01*
X24387Y147081D01*
X28021Y132573D01*
X28107Y132310D01*
X28137Y132192D01*
X33175Y118110D01*
X33287Y117856D01*
X33328Y117742D01*
X39722Y104222D01*
X39858Y103980D01*
X39910Y103870D01*
X47599Y91042D01*
X47758Y90815D01*
X47820Y90711D01*
X56730Y78698D01*
X56910Y78487D01*
X56983Y78390D01*
X67026Y67308D01*
X67150Y67190D01*
X67197Y67139D01*
X67233Y67109D01*
X67308Y67026D01*
X78390Y56983D01*
X78608Y56811D01*
X78698Y56730D01*
X90711Y47820D01*
X90944Y47671D01*
X91042Y47599D01*
X103870Y39910D01*
X104118Y39784D01*
X104222Y39722D01*
X117742Y33328D01*
X118000Y33227D01*
X118110Y33175D01*
X132192Y28137D01*
X132459Y28062D01*
X132573Y28021D01*
X147081Y24387D01*
X147354Y24339D01*
X147472Y24309D01*
X162266Y22115D01*
X162543Y22093D01*
X162663Y22076D01*
X177601Y21342D01*
X177723Y21344D01*
X177800Y21337D01*
X342900Y21337D01*
X343022Y21345D01*
G37*
D10*
X211201Y431800D02*
X195199Y431800D01*
X195199Y457200D02*
X211201Y457200D01*
X211201Y482600D02*
X195199Y482600D01*
X195199Y508000D02*
X211201Y508000D01*
D11*
X381000Y482600D03*
D12*
X381000Y469900D03*
X368300Y482600D03*
X368300Y469900D03*
X355600Y482600D03*
X355600Y469900D03*
X342900Y482600D03*
X342900Y469900D03*
X330200Y482600D03*
X330200Y469900D03*
D13*
X321056Y127000D02*
X339344Y127000D01*
X339344Y152400D02*
X321056Y152400D01*
X321056Y177800D02*
X339344Y177800D01*
X339344Y203200D02*
X321056Y203200D01*
X321056Y228600D02*
X339344Y228600D01*
X339344Y254000D02*
X321056Y254000D01*
X321056Y279400D02*
X339344Y279400D01*
X339344Y304800D02*
X321056Y304800D01*
X110744Y127000D02*
X92456Y127000D01*
X92456Y152400D02*
X110744Y152400D01*
X110744Y177800D02*
X92456Y177800D01*
X92456Y203200D02*
X110744Y203200D01*
X110744Y228600D02*
X92456Y228600D01*
X92456Y254000D02*
X110744Y254000D01*
X110744Y279400D02*
X92456Y279400D01*
X92456Y304800D02*
X110744Y304800D01*
D14*
X203200Y482600D02*
X215900Y482600D01*
X216514Y482593D01*
X217127Y482570D01*
X217740Y482533D01*
X218351Y482481D01*
X218962Y482415D01*
X219570Y482333D01*
X220176Y482237D01*
X220780Y482127D01*
X221381Y482002D01*
X221979Y481862D01*
X222573Y481708D01*
X223163Y481539D01*
X223749Y481357D01*
X224330Y481160D01*
X224907Y480949D01*
X225478Y480725D01*
X226044Y480487D01*
X226604Y480235D01*
X227157Y479969D01*
X227704Y479691D01*
X228244Y479399D01*
X228777Y479094D01*
X229302Y478776D01*
X229820Y478446D01*
X230329Y478104D01*
X230830Y477749D01*
X231322Y477382D01*
X231805Y477004D01*
X232279Y476614D01*
X232743Y476212D01*
X233198Y475800D01*
X233642Y475376D01*
X234076Y474942D01*
X234500Y474498D01*
X234912Y474043D01*
X235314Y473579D01*
X235704Y473105D01*
X236082Y472622D01*
X236449Y472130D01*
X236804Y471629D01*
X237146Y471120D01*
X237476Y470602D01*
X237794Y470077D01*
X238099Y469544D01*
X238391Y469004D01*
X238669Y468457D01*
X238935Y467904D01*
X239187Y467344D01*
X239425Y466778D01*
X239649Y466207D01*
X239860Y465630D01*
X240057Y465049D01*
X240239Y464463D01*
X240408Y463873D01*
X240562Y463279D01*
X240702Y462681D01*
X240827Y462080D01*
X240937Y461476D01*
X241033Y460870D01*
X241115Y460262D01*
X241181Y459651D01*
X241233Y459040D01*
X241270Y458427D01*
X241293Y457814D01*
X241300Y457200D01*
X241300Y431800D01*
X241293Y431186D01*
X241270Y430573D01*
X241233Y429960D01*
X241181Y429349D01*
X241115Y428738D01*
X241033Y428130D01*
X240937Y427524D01*
X240827Y426920D01*
X240702Y426319D01*
X240562Y425721D01*
X240408Y425127D01*
X240239Y424537D01*
X240057Y423951D01*
X239860Y423370D01*
X239649Y422793D01*
X239425Y422222D01*
X239187Y421656D01*
X238935Y421096D01*
X238669Y420543D01*
X238391Y419996D01*
X238099Y419456D01*
X237794Y418923D01*
X237476Y418398D01*
X237146Y417880D01*
X236804Y417371D01*
X236449Y416870D01*
X236082Y416378D01*
X235704Y415895D01*
X235314Y415421D01*
X234912Y414957D01*
X234500Y414502D01*
X234076Y414058D01*
X233642Y413624D01*
X233198Y413200D01*
X232743Y412788D01*
X232279Y412386D01*
X231805Y411996D01*
X231322Y411618D01*
X230830Y411251D01*
X230329Y410896D01*
X229820Y410554D01*
X229302Y410224D01*
X228777Y409906D01*
X228244Y409601D01*
X227704Y409309D01*
X227157Y409031D01*
X226604Y408765D01*
X226044Y408513D01*
X225478Y408275D01*
X224907Y408051D01*
X224330Y407840D01*
X223749Y407643D01*
X223163Y407461D01*
X222573Y407292D01*
X221979Y407138D01*
X221381Y406998D01*
X220780Y406873D01*
X220176Y406763D01*
X219570Y406667D01*
X218962Y406585D01*
X218351Y406519D01*
X217740Y406467D01*
X217127Y406430D01*
X216514Y406407D01*
X215900Y406400D01*
X214979Y406389D01*
X214059Y406356D01*
X213140Y406300D01*
X212223Y406222D01*
X211308Y406122D01*
X210395Y406000D01*
X209486Y405856D01*
X208580Y405690D01*
X207679Y405502D01*
X206782Y405293D01*
X205891Y405062D01*
X205005Y404809D01*
X204126Y404535D01*
X203254Y404240D01*
X202390Y403924D01*
X201533Y403587D01*
X200684Y403230D01*
X199845Y402852D01*
X199014Y402454D01*
X198194Y402036D01*
X197384Y401598D01*
X196585Y401141D01*
X195797Y400665D01*
X195021Y400170D01*
X194257Y399656D01*
X193505Y399124D01*
X192767Y398573D01*
X192042Y398006D01*
X191332Y397420D01*
X190635Y396818D01*
X189953Y396199D01*
X189287Y395564D01*
X188636Y394913D01*
X188001Y394247D01*
X187382Y393565D01*
X186780Y392868D01*
X186194Y392158D01*
X185627Y391433D01*
X185076Y390695D01*
X184544Y389943D01*
X184030Y389179D01*
X183535Y388403D01*
X183059Y387615D01*
X182602Y386816D01*
X182164Y386006D01*
X181746Y385186D01*
X181348Y384355D01*
X180970Y383516D01*
X180613Y382667D01*
X180276Y381810D01*
X179960Y380946D01*
X179665Y380074D01*
X179391Y379195D01*
X179138Y378309D01*
X178907Y377418D01*
X178698Y376521D01*
X178510Y375620D01*
X178344Y374714D01*
X178200Y373805D01*
X178078Y372892D01*
X177978Y371977D01*
X177900Y371060D01*
X177844Y370141D01*
X177811Y369221D01*
X177800Y368300D01*
X177800Y266700D01*
X177789Y265779D01*
X177756Y264859D01*
X177700Y263940D01*
X177622Y263023D01*
X177522Y262108D01*
X177400Y261195D01*
X177256Y260286D01*
X177090Y259380D01*
X176902Y258479D01*
X176693Y257582D01*
X176462Y256691D01*
X176209Y255805D01*
X175935Y254926D01*
X175640Y254054D01*
X175324Y253190D01*
X174987Y252333D01*
X174630Y251484D01*
X174252Y250645D01*
X173854Y249814D01*
X173436Y248994D01*
X172998Y248184D01*
X172541Y247385D01*
X172065Y246597D01*
X171570Y245821D01*
X171056Y245057D01*
X170524Y244305D01*
X169973Y243567D01*
X169406Y242842D01*
X168820Y242132D01*
X168218Y241435D01*
X167599Y240753D01*
X166964Y240087D01*
X166313Y239436D01*
X165647Y238801D01*
X164965Y238182D01*
X164268Y237580D01*
X163558Y236994D01*
X162833Y236427D01*
X162095Y235876D01*
X161343Y235344D01*
X160579Y234830D01*
X159803Y234335D01*
X159015Y233859D01*
X158216Y233402D01*
X157406Y232964D01*
X156586Y232546D01*
X155755Y232148D01*
X154916Y231770D01*
X154067Y231413D01*
X153210Y231076D01*
X152346Y230760D01*
X151474Y230465D01*
X150595Y230191D01*
X149709Y229938D01*
X148818Y229707D01*
X147921Y229498D01*
X147020Y229310D01*
X146114Y229144D01*
X145205Y229000D01*
X144292Y228878D01*
X143377Y228778D01*
X142460Y228700D01*
X141541Y228644D01*
X140621Y228611D01*
X139700Y228600D01*
X101600Y228600D01*
X101600Y203200D02*
X127000Y203200D01*
X128534Y203219D01*
X130068Y203274D01*
X131600Y203367D01*
X133129Y203496D01*
X134654Y203663D01*
X136175Y203866D01*
X137691Y204106D01*
X139200Y204383D01*
X140702Y204696D01*
X142197Y205045D01*
X143682Y205430D01*
X145158Y205851D01*
X146623Y206308D01*
X148076Y206800D01*
X149517Y207326D01*
X150946Y207888D01*
X152360Y208484D01*
X153759Y209113D01*
X155143Y209777D01*
X156510Y210474D01*
X157860Y211203D01*
X159192Y211965D01*
X160505Y212759D01*
X161799Y213584D01*
X163072Y214441D01*
X164324Y215327D01*
X165555Y216244D01*
X166763Y217191D01*
X167947Y218166D01*
X169108Y219170D01*
X170245Y220201D01*
X171355Y221259D01*
X172441Y222345D01*
X173499Y223455D01*
X174530Y224592D01*
X175534Y225753D01*
X176509Y226937D01*
X177456Y228145D01*
X178373Y229376D01*
X179259Y230628D01*
X180116Y231901D01*
X180941Y233195D01*
X181735Y234508D01*
X182497Y235840D01*
X183226Y237190D01*
X183923Y238557D01*
X184587Y239941D01*
X185216Y241340D01*
X185812Y242754D01*
X186374Y244183D01*
X186900Y245624D01*
X187392Y247077D01*
X187849Y248542D01*
X188270Y250018D01*
X188655Y251503D01*
X189004Y252998D01*
X189317Y254500D01*
X189594Y256009D01*
X189834Y257525D01*
X190037Y259046D01*
X190204Y260571D01*
X190333Y262100D01*
X190426Y263632D01*
X190481Y265166D01*
X190500Y266700D01*
X190500Y368300D01*
X190507Y368914D01*
X190530Y369527D01*
X190567Y370140D01*
X190619Y370751D01*
X190685Y371362D01*
X190767Y371970D01*
X190863Y372576D01*
X190973Y373180D01*
X191098Y373781D01*
X191238Y374379D01*
X191392Y374973D01*
X191561Y375563D01*
X191743Y376149D01*
X191940Y376730D01*
X192151Y377307D01*
X192375Y377878D01*
X192613Y378444D01*
X192865Y379004D01*
X193131Y379557D01*
X193409Y380104D01*
X193701Y380644D01*
X194006Y381177D01*
X194324Y381702D01*
X194654Y382220D01*
X194996Y382729D01*
X195351Y383230D01*
X195718Y383722D01*
X196096Y384205D01*
X196486Y384679D01*
X196888Y385143D01*
X197300Y385598D01*
X197724Y386042D01*
X198158Y386476D01*
X198602Y386900D01*
X199057Y387312D01*
X199521Y387714D01*
X199995Y388104D01*
X200478Y388482D01*
X200970Y388849D01*
X201471Y389204D01*
X201980Y389546D01*
X202498Y389876D01*
X203023Y390194D01*
X203556Y390499D01*
X204096Y390791D01*
X204643Y391069D01*
X205196Y391335D01*
X205756Y391587D01*
X206322Y391825D01*
X206893Y392049D01*
X207470Y392260D01*
X208051Y392457D01*
X208637Y392639D01*
X209227Y392808D01*
X209821Y392962D01*
X210419Y393102D01*
X211020Y393227D01*
X211624Y393337D01*
X212230Y393433D01*
X212838Y393515D01*
X213449Y393581D01*
X214060Y393633D01*
X214673Y393670D01*
X215286Y393693D01*
X215900Y393700D01*
X254000Y457200D02*
X253985Y458428D01*
X253941Y459654D01*
X253867Y460880D01*
X253763Y462103D01*
X253630Y463323D01*
X253467Y464540D01*
X253275Y465753D01*
X253054Y466960D01*
X252803Y468162D01*
X252524Y469357D01*
X252216Y470546D01*
X251879Y471726D01*
X251514Y472898D01*
X251120Y474061D01*
X250699Y475214D01*
X250250Y476356D01*
X249773Y477488D01*
X249269Y478607D01*
X248738Y479714D01*
X248181Y480808D01*
X247598Y481888D01*
X246988Y482954D01*
X246353Y484004D01*
X245693Y485039D01*
X245008Y486058D01*
X244298Y487059D01*
X243565Y488044D01*
X242807Y489010D01*
X242027Y489958D01*
X241224Y490887D01*
X240399Y491796D01*
X239552Y492684D01*
X238684Y493552D01*
X237796Y494399D01*
X236887Y495224D01*
X235958Y496027D01*
X235010Y496807D01*
X234044Y497565D01*
X233059Y498298D01*
X232058Y499008D01*
X231039Y499693D01*
X230004Y500353D01*
X228954Y500988D01*
X227888Y501598D01*
X226808Y502181D01*
X225714Y502738D01*
X224607Y503269D01*
X223488Y503773D01*
X222356Y504250D01*
X221214Y504699D01*
X220061Y505120D01*
X218898Y505514D01*
X217726Y505879D01*
X216546Y506216D01*
X215357Y506524D01*
X214162Y506803D01*
X212960Y507054D01*
X211753Y507275D01*
X210540Y507467D01*
X209323Y507630D01*
X208103Y507763D01*
X206880Y507867D01*
X205654Y507941D01*
X204428Y507985D01*
X203200Y508000D01*
X254000Y431800D02*
X253989Y430879D01*
X253956Y429959D01*
X253900Y429040D01*
X253822Y428123D01*
X253722Y427208D01*
X253600Y426295D01*
X253456Y425386D01*
X253290Y424480D01*
X253102Y423579D01*
X252893Y422682D01*
X252662Y421791D01*
X252409Y420905D01*
X252135Y420026D01*
X251840Y419154D01*
X251524Y418290D01*
X251187Y417433D01*
X250830Y416584D01*
X250452Y415745D01*
X250054Y414914D01*
X249636Y414094D01*
X249198Y413284D01*
X248741Y412485D01*
X248265Y411697D01*
X247770Y410921D01*
X247256Y410157D01*
X246724Y409405D01*
X246173Y408667D01*
X245606Y407942D01*
X245020Y407232D01*
X244418Y406535D01*
X243799Y405853D01*
X243164Y405187D01*
X242513Y404536D01*
X241847Y403901D01*
X241165Y403282D01*
X240468Y402680D01*
X239758Y402094D01*
X239033Y401527D01*
X238295Y400976D01*
X237543Y400444D01*
X236779Y399930D01*
X236003Y399435D01*
X235215Y398959D01*
X234416Y398502D01*
X233606Y398064D01*
X232786Y397646D01*
X231955Y397248D01*
X231116Y396870D01*
X230267Y396513D01*
X229410Y396176D01*
X228546Y395860D01*
X227674Y395565D01*
X226795Y395291D01*
X225909Y395038D01*
X225018Y394807D01*
X224121Y394598D01*
X223220Y394410D01*
X222314Y394244D01*
X221405Y394100D01*
X220492Y393978D01*
X219577Y393878D01*
X218660Y393800D01*
X217741Y393744D01*
X216821Y393711D01*
X215900Y393700D01*
X254000Y431800D02*
X254000Y457200D01*
X101600Y127000D02*
X88900Y127000D01*
X88286Y127007D01*
X87673Y127030D01*
X87060Y127067D01*
X86449Y127119D01*
X85838Y127185D01*
X85230Y127267D01*
X84624Y127363D01*
X84020Y127473D01*
X83419Y127598D01*
X82821Y127738D01*
X82227Y127892D01*
X81637Y128061D01*
X81051Y128243D01*
X80470Y128440D01*
X79893Y128651D01*
X79322Y128875D01*
X78756Y129113D01*
X78196Y129365D01*
X77643Y129631D01*
X77096Y129909D01*
X76556Y130201D01*
X76023Y130506D01*
X75498Y130824D01*
X74980Y131154D01*
X74471Y131496D01*
X73970Y131851D01*
X73478Y132218D01*
X72995Y132596D01*
X72521Y132986D01*
X72057Y133388D01*
X71602Y133800D01*
X71158Y134224D01*
X70724Y134658D01*
X70300Y135102D01*
X69888Y135557D01*
X69486Y136021D01*
X69096Y136495D01*
X68718Y136978D01*
X68351Y137470D01*
X67996Y137971D01*
X67654Y138480D01*
X67324Y138998D01*
X67006Y139523D01*
X66701Y140056D01*
X66409Y140596D01*
X66131Y141143D01*
X65865Y141696D01*
X65613Y142256D01*
X65375Y142822D01*
X65151Y143393D01*
X64940Y143970D01*
X64743Y144551D01*
X64561Y145137D01*
X64392Y145727D01*
X64238Y146321D01*
X64098Y146919D01*
X63973Y147520D01*
X63863Y148124D01*
X63767Y148730D01*
X63685Y149338D01*
X63619Y149949D01*
X63567Y150560D01*
X63530Y151173D01*
X63507Y151786D01*
X63500Y152400D01*
X88900Y431800D02*
X203200Y431800D01*
X88900Y431800D02*
X88286Y431793D01*
X87673Y431770D01*
X87060Y431733D01*
X86449Y431681D01*
X85838Y431615D01*
X85230Y431533D01*
X84624Y431437D01*
X84020Y431327D01*
X83419Y431202D01*
X82821Y431062D01*
X82227Y430908D01*
X81637Y430739D01*
X81051Y430557D01*
X80470Y430360D01*
X79893Y430149D01*
X79322Y429925D01*
X78756Y429687D01*
X78196Y429435D01*
X77643Y429169D01*
X77096Y428891D01*
X76556Y428599D01*
X76023Y428294D01*
X75498Y427976D01*
X74980Y427646D01*
X74471Y427304D01*
X73970Y426949D01*
X73478Y426582D01*
X72995Y426204D01*
X72521Y425814D01*
X72057Y425412D01*
X71602Y425000D01*
X71158Y424576D01*
X70724Y424142D01*
X70300Y423698D01*
X69888Y423243D01*
X69486Y422779D01*
X69096Y422305D01*
X68718Y421822D01*
X68351Y421330D01*
X67996Y420829D01*
X67654Y420320D01*
X67324Y419802D01*
X67006Y419277D01*
X66701Y418744D01*
X66409Y418204D01*
X66131Y417657D01*
X65865Y417104D01*
X65613Y416544D01*
X65375Y415978D01*
X65151Y415407D01*
X64940Y414830D01*
X64743Y414249D01*
X64561Y413663D01*
X64392Y413073D01*
X64238Y412479D01*
X64098Y411881D01*
X63973Y411280D01*
X63863Y410676D01*
X63767Y410070D01*
X63685Y409462D01*
X63619Y408851D01*
X63567Y408240D01*
X63530Y407627D01*
X63507Y407014D01*
X63500Y406400D01*
X63500Y152400D01*
X317500Y127000D02*
X330200Y127000D01*
X317500Y127000D02*
X316886Y127007D01*
X316273Y127030D01*
X315660Y127067D01*
X315049Y127119D01*
X314438Y127185D01*
X313830Y127267D01*
X313224Y127363D01*
X312620Y127473D01*
X312019Y127598D01*
X311421Y127738D01*
X310827Y127892D01*
X310237Y128061D01*
X309651Y128243D01*
X309070Y128440D01*
X308493Y128651D01*
X307922Y128875D01*
X307356Y129113D01*
X306796Y129365D01*
X306243Y129631D01*
X305696Y129909D01*
X305156Y130201D01*
X304623Y130506D01*
X304098Y130824D01*
X303580Y131154D01*
X303071Y131496D01*
X302570Y131851D01*
X302078Y132218D01*
X301595Y132596D01*
X301121Y132986D01*
X300657Y133388D01*
X300202Y133800D01*
X299758Y134224D01*
X299324Y134658D01*
X298900Y135102D01*
X298488Y135557D01*
X298086Y136021D01*
X297696Y136495D01*
X297318Y136978D01*
X296951Y137470D01*
X296596Y137971D01*
X296254Y138480D01*
X295924Y138998D01*
X295606Y139523D01*
X295301Y140056D01*
X295009Y140596D01*
X294731Y141143D01*
X294465Y141696D01*
X294213Y142256D01*
X293975Y142822D01*
X293751Y143393D01*
X293540Y143970D01*
X293343Y144551D01*
X293161Y145137D01*
X292992Y145727D01*
X292838Y146321D01*
X292698Y146919D01*
X292573Y147520D01*
X292463Y148124D01*
X292367Y148730D01*
X292285Y149338D01*
X292219Y149949D01*
X292167Y150560D01*
X292130Y151173D01*
X292107Y151786D01*
X292100Y152400D01*
X292100Y304800D01*
X292107Y305414D01*
X292130Y306027D01*
X292167Y306640D01*
X292219Y307251D01*
X292285Y307862D01*
X292367Y308470D01*
X292463Y309076D01*
X292573Y309680D01*
X292698Y310281D01*
X292838Y310879D01*
X292992Y311473D01*
X293161Y312063D01*
X293343Y312649D01*
X293540Y313230D01*
X293751Y313807D01*
X293975Y314378D01*
X294213Y314944D01*
X294465Y315504D01*
X294731Y316057D01*
X295009Y316604D01*
X295301Y317144D01*
X295606Y317677D01*
X295924Y318202D01*
X296254Y318720D01*
X296596Y319229D01*
X296951Y319730D01*
X297318Y320222D01*
X297696Y320705D01*
X298086Y321179D01*
X298488Y321643D01*
X298900Y322098D01*
X299324Y322542D01*
X299758Y322976D01*
X300202Y323400D01*
X300657Y323812D01*
X301121Y324214D01*
X301595Y324604D01*
X302078Y324982D01*
X302570Y325349D01*
X303071Y325704D01*
X303580Y326046D01*
X304098Y326376D01*
X304623Y326694D01*
X305156Y326999D01*
X305696Y327291D01*
X306243Y327569D01*
X306796Y327835D01*
X307356Y328087D01*
X307922Y328325D01*
X308493Y328549D01*
X309070Y328760D01*
X309651Y328957D01*
X310237Y329139D01*
X310827Y329308D01*
X311421Y329462D01*
X312019Y329602D01*
X312620Y329727D01*
X313224Y329837D01*
X313830Y329933D01*
X314438Y330015D01*
X315049Y330081D01*
X315660Y330133D01*
X316273Y330170D01*
X316886Y330193D01*
X317500Y330200D01*
X355600Y330200D01*
X356214Y330207D01*
X356827Y330230D01*
X357440Y330267D01*
X358051Y330319D01*
X358662Y330385D01*
X359270Y330467D01*
X359876Y330563D01*
X360480Y330673D01*
X361081Y330798D01*
X361679Y330938D01*
X362273Y331092D01*
X362863Y331261D01*
X363449Y331443D01*
X364030Y331640D01*
X364607Y331851D01*
X365178Y332075D01*
X365744Y332313D01*
X366304Y332565D01*
X366857Y332831D01*
X367404Y333109D01*
X367944Y333401D01*
X368477Y333706D01*
X369002Y334024D01*
X369520Y334354D01*
X370029Y334696D01*
X370530Y335051D01*
X371022Y335418D01*
X371505Y335796D01*
X371979Y336186D01*
X372443Y336588D01*
X372898Y337000D01*
X373342Y337424D01*
X373776Y337858D01*
X374200Y338302D01*
X374612Y338757D01*
X375014Y339221D01*
X375404Y339695D01*
X375782Y340178D01*
X376149Y340670D01*
X376504Y341171D01*
X376846Y341680D01*
X377176Y342198D01*
X377494Y342723D01*
X377799Y343256D01*
X378091Y343796D01*
X378369Y344343D01*
X378635Y344896D01*
X378887Y345456D01*
X379125Y346022D01*
X379349Y346593D01*
X379560Y347170D01*
X379757Y347751D01*
X379939Y348337D01*
X380108Y348927D01*
X380262Y349521D01*
X380402Y350119D01*
X380527Y350720D01*
X380637Y351324D01*
X380733Y351930D01*
X380815Y352538D01*
X380881Y353149D01*
X380933Y353760D01*
X380970Y354373D01*
X380993Y354986D01*
X381000Y355600D01*
X381000Y469900D01*
X381000Y482600D01*
X114300Y177800D02*
X101600Y177800D01*
X114300Y177800D02*
X116448Y177826D01*
X118595Y177904D01*
X120739Y178034D01*
X122880Y178215D01*
X125016Y178448D01*
X127145Y178733D01*
X129267Y179069D01*
X131380Y179456D01*
X133483Y179894D01*
X135575Y180383D01*
X137655Y180923D01*
X139721Y181512D01*
X141772Y182151D01*
X143807Y182840D01*
X145824Y183577D01*
X147824Y184363D01*
X149804Y185197D01*
X151763Y186079D01*
X153700Y187008D01*
X155614Y187983D01*
X157504Y189004D01*
X159369Y190071D01*
X161207Y191182D01*
X163018Y192338D01*
X164801Y193537D01*
X166554Y194778D01*
X168277Y196062D01*
X169968Y197387D01*
X171626Y198752D01*
X173252Y200157D01*
X174842Y201601D01*
X176398Y203083D01*
X177917Y204602D01*
X179399Y206158D01*
X180843Y207748D01*
X182248Y209374D01*
X183613Y211032D01*
X184938Y212723D01*
X186222Y214446D01*
X187463Y216199D01*
X188662Y217982D01*
X189818Y219793D01*
X190929Y221631D01*
X191996Y223496D01*
X193017Y225386D01*
X193992Y227300D01*
X194921Y229237D01*
X195803Y231196D01*
X196637Y233176D01*
X197423Y235176D01*
X198160Y237193D01*
X198849Y239228D01*
X199488Y241279D01*
X200077Y243345D01*
X200617Y245425D01*
X201106Y247517D01*
X201544Y249620D01*
X201931Y251733D01*
X202267Y253855D01*
X202552Y255984D01*
X202785Y258120D01*
X202966Y260261D01*
X203096Y262405D01*
X203174Y264552D01*
X203200Y266700D01*
X203200Y368300D01*
X203204Y368607D01*
X203215Y368914D01*
X203233Y369220D01*
X203259Y369526D01*
X203293Y369831D01*
X203333Y370135D01*
X203381Y370438D01*
X203437Y370740D01*
X203499Y371040D01*
X203569Y371339D01*
X203646Y371636D01*
X203730Y371932D01*
X203822Y372225D01*
X203920Y372515D01*
X204025Y372803D01*
X204138Y373089D01*
X204257Y373372D01*
X204383Y373652D01*
X204515Y373929D01*
X204655Y374202D01*
X204801Y374472D01*
X204953Y374738D01*
X205112Y375001D01*
X205277Y375260D01*
X205448Y375514D01*
X205625Y375765D01*
X205809Y376011D01*
X205998Y376253D01*
X206193Y376489D01*
X206394Y376722D01*
X206600Y376949D01*
X206812Y377171D01*
X207029Y377388D01*
X207251Y377600D01*
X207478Y377806D01*
X207711Y378007D01*
X207947Y378202D01*
X208189Y378391D01*
X208435Y378575D01*
X208686Y378752D01*
X208940Y378923D01*
X209199Y379088D01*
X209462Y379247D01*
X209728Y379399D01*
X209998Y379545D01*
X210271Y379685D01*
X210548Y379817D01*
X210828Y379943D01*
X211111Y380062D01*
X211397Y380175D01*
X211685Y380280D01*
X211975Y380378D01*
X212268Y380470D01*
X212564Y380554D01*
X212861Y380631D01*
X213160Y380701D01*
X213460Y380763D01*
X213762Y380819D01*
X214065Y380867D01*
X214369Y380907D01*
X214674Y380941D01*
X214980Y380967D01*
X215286Y380985D01*
X215593Y380996D01*
X215900Y381000D01*
X304800Y381000D01*
X305414Y381007D01*
X306027Y381030D01*
X306640Y381067D01*
X307251Y381119D01*
X307862Y381185D01*
X308470Y381267D01*
X309076Y381363D01*
X309680Y381473D01*
X310281Y381598D01*
X310879Y381738D01*
X311473Y381892D01*
X312063Y382061D01*
X312649Y382243D01*
X313230Y382440D01*
X313807Y382651D01*
X314378Y382875D01*
X314944Y383113D01*
X315504Y383365D01*
X316057Y383631D01*
X316604Y383909D01*
X317144Y384201D01*
X317677Y384506D01*
X318202Y384824D01*
X318720Y385154D01*
X319229Y385496D01*
X319730Y385851D01*
X320222Y386218D01*
X320705Y386596D01*
X321179Y386986D01*
X321643Y387388D01*
X322098Y387800D01*
X322542Y388224D01*
X322976Y388658D01*
X323400Y389102D01*
X323812Y389557D01*
X324214Y390021D01*
X324604Y390495D01*
X324982Y390978D01*
X325349Y391470D01*
X325704Y391971D01*
X326046Y392480D01*
X326376Y392998D01*
X326694Y393523D01*
X326999Y394056D01*
X327291Y394596D01*
X327569Y395143D01*
X327835Y395696D01*
X328087Y396256D01*
X328325Y396822D01*
X328549Y397393D01*
X328760Y397970D01*
X328957Y398551D01*
X329139Y399137D01*
X329308Y399727D01*
X329462Y400321D01*
X329602Y400919D01*
X329727Y401520D01*
X329837Y402124D01*
X329933Y402730D01*
X330015Y403338D01*
X330081Y403949D01*
X330133Y404560D01*
X330170Y405173D01*
X330193Y405786D01*
X330200Y406400D01*
X330200Y469900D01*
X330200Y304800D02*
X381000Y304800D01*
X381614Y304807D01*
X382227Y304830D01*
X382840Y304867D01*
X383451Y304919D01*
X384062Y304985D01*
X384670Y305067D01*
X385276Y305163D01*
X385880Y305273D01*
X386481Y305398D01*
X387079Y305538D01*
X387673Y305692D01*
X388263Y305861D01*
X388849Y306043D01*
X389430Y306240D01*
X390007Y306451D01*
X390578Y306675D01*
X391144Y306913D01*
X391704Y307165D01*
X392257Y307431D01*
X392804Y307709D01*
X393344Y308001D01*
X393877Y308306D01*
X394402Y308624D01*
X394920Y308954D01*
X395429Y309296D01*
X395930Y309651D01*
X396422Y310018D01*
X396905Y310396D01*
X397379Y310786D01*
X397843Y311188D01*
X398298Y311600D01*
X398742Y312024D01*
X399176Y312458D01*
X399600Y312902D01*
X400012Y313357D01*
X400414Y313821D01*
X400804Y314295D01*
X401182Y314778D01*
X401549Y315270D01*
X401904Y315771D01*
X402246Y316280D01*
X402576Y316798D01*
X402894Y317323D01*
X403199Y317856D01*
X403491Y318396D01*
X403769Y318943D01*
X404035Y319496D01*
X404287Y320056D01*
X404525Y320622D01*
X404749Y321193D01*
X404960Y321770D01*
X405157Y322351D01*
X405339Y322937D01*
X405508Y323527D01*
X405662Y324121D01*
X405802Y324719D01*
X405927Y325320D01*
X406037Y325924D01*
X406133Y326530D01*
X406215Y327138D01*
X406281Y327749D01*
X406333Y328360D01*
X406370Y328973D01*
X406393Y329586D01*
X406400Y330200D01*
X406400Y495300D01*
X406396Y495607D01*
X406385Y495914D01*
X406367Y496220D01*
X406341Y496526D01*
X406307Y496831D01*
X406267Y497135D01*
X406219Y497438D01*
X406163Y497740D01*
X406101Y498040D01*
X406031Y498339D01*
X405954Y498636D01*
X405870Y498932D01*
X405778Y499225D01*
X405680Y499515D01*
X405575Y499803D01*
X405462Y500089D01*
X405343Y500372D01*
X405217Y500652D01*
X405085Y500929D01*
X404945Y501202D01*
X404799Y501472D01*
X404647Y501738D01*
X404488Y502001D01*
X404323Y502260D01*
X404152Y502514D01*
X403975Y502765D01*
X403791Y503011D01*
X403602Y503253D01*
X403407Y503489D01*
X403206Y503722D01*
X403000Y503949D01*
X402788Y504171D01*
X402571Y504388D01*
X402349Y504600D01*
X402122Y504806D01*
X401889Y505007D01*
X401653Y505202D01*
X401411Y505391D01*
X401165Y505575D01*
X400914Y505752D01*
X400660Y505923D01*
X400401Y506088D01*
X400138Y506247D01*
X399872Y506399D01*
X399602Y506545D01*
X399329Y506685D01*
X399052Y506817D01*
X398772Y506943D01*
X398489Y507062D01*
X398203Y507175D01*
X397915Y507280D01*
X397625Y507378D01*
X397332Y507470D01*
X397036Y507554D01*
X396739Y507631D01*
X396440Y507701D01*
X396140Y507763D01*
X395838Y507819D01*
X395535Y507867D01*
X395231Y507907D01*
X394926Y507941D01*
X394620Y507967D01*
X394314Y507985D01*
X394007Y507996D01*
X393700Y508000D01*
X355600Y508000D01*
X355293Y507996D01*
X354986Y507985D01*
X354680Y507967D01*
X354374Y507941D01*
X354069Y507907D01*
X353765Y507867D01*
X353462Y507819D01*
X353160Y507763D01*
X352860Y507701D01*
X352561Y507631D01*
X352264Y507554D01*
X351968Y507470D01*
X351675Y507378D01*
X351385Y507280D01*
X351097Y507175D01*
X350811Y507062D01*
X350528Y506943D01*
X350248Y506817D01*
X349971Y506685D01*
X349698Y506545D01*
X349428Y506399D01*
X349162Y506247D01*
X348899Y506088D01*
X348640Y505923D01*
X348386Y505752D01*
X348135Y505575D01*
X347889Y505391D01*
X347647Y505202D01*
X347411Y505007D01*
X347178Y504806D01*
X346951Y504600D01*
X346729Y504388D01*
X346512Y504171D01*
X346300Y503949D01*
X346094Y503722D01*
X345893Y503489D01*
X345698Y503253D01*
X345509Y503011D01*
X345325Y502765D01*
X345148Y502514D01*
X344977Y502260D01*
X344812Y502001D01*
X344653Y501738D01*
X344501Y501472D01*
X344355Y501202D01*
X344215Y500929D01*
X344083Y500652D01*
X343957Y500372D01*
X343838Y500089D01*
X343725Y499803D01*
X343620Y499515D01*
X343522Y499225D01*
X343430Y498932D01*
X343346Y498636D01*
X343269Y498339D01*
X343199Y498040D01*
X343137Y497740D01*
X343081Y497438D01*
X343033Y497135D01*
X342993Y496831D01*
X342959Y496526D01*
X342933Y496220D01*
X342915Y495914D01*
X342904Y495607D01*
X342900Y495300D01*
X342900Y482600D01*
X330200Y482600D02*
X330200Y495300D01*
X330207Y495914D01*
X330230Y496527D01*
X330267Y497140D01*
X330319Y497751D01*
X330385Y498362D01*
X330467Y498970D01*
X330563Y499576D01*
X330673Y500180D01*
X330798Y500781D01*
X330938Y501379D01*
X331092Y501973D01*
X331261Y502563D01*
X331443Y503149D01*
X331640Y503730D01*
X331851Y504307D01*
X332075Y504878D01*
X332313Y505444D01*
X332565Y506004D01*
X332831Y506557D01*
X333109Y507104D01*
X333401Y507644D01*
X333706Y508177D01*
X334024Y508702D01*
X334354Y509220D01*
X334696Y509729D01*
X335051Y510230D01*
X335418Y510722D01*
X335796Y511205D01*
X336186Y511679D01*
X336588Y512143D01*
X337000Y512598D01*
X337424Y513042D01*
X337858Y513476D01*
X338302Y513900D01*
X338757Y514312D01*
X339221Y514714D01*
X339695Y515104D01*
X340178Y515482D01*
X340670Y515849D01*
X341171Y516204D01*
X341680Y516546D01*
X342198Y516876D01*
X342723Y517194D01*
X343256Y517499D01*
X343796Y517791D01*
X344343Y518069D01*
X344896Y518335D01*
X345456Y518587D01*
X346022Y518825D01*
X346593Y519049D01*
X347170Y519260D01*
X347751Y519457D01*
X348337Y519639D01*
X348927Y519808D01*
X349521Y519962D01*
X350119Y520102D01*
X350720Y520227D01*
X351324Y520337D01*
X351930Y520433D01*
X352538Y520515D01*
X353149Y520581D01*
X353760Y520633D01*
X354373Y520670D01*
X354986Y520693D01*
X355600Y520700D01*
X393700Y520700D01*
X394314Y520693D01*
X394927Y520670D01*
X395540Y520633D01*
X396151Y520581D01*
X396762Y520515D01*
X397370Y520433D01*
X397976Y520337D01*
X398580Y520227D01*
X399181Y520102D01*
X399779Y519962D01*
X400373Y519808D01*
X400963Y519639D01*
X401549Y519457D01*
X402130Y519260D01*
X402707Y519049D01*
X403278Y518825D01*
X403844Y518587D01*
X404404Y518335D01*
X404957Y518069D01*
X405504Y517791D01*
X406044Y517499D01*
X406577Y517194D01*
X407102Y516876D01*
X407620Y516546D01*
X408129Y516204D01*
X408630Y515849D01*
X409122Y515482D01*
X409605Y515104D01*
X410079Y514714D01*
X410543Y514312D01*
X410998Y513900D01*
X411442Y513476D01*
X411876Y513042D01*
X412300Y512598D01*
X412712Y512143D01*
X413114Y511679D01*
X413504Y511205D01*
X413882Y510722D01*
X414249Y510230D01*
X414604Y509729D01*
X414946Y509220D01*
X415276Y508702D01*
X415594Y508177D01*
X415899Y507644D01*
X416191Y507104D01*
X416469Y506557D01*
X416735Y506004D01*
X416987Y505444D01*
X417225Y504878D01*
X417449Y504307D01*
X417660Y503730D01*
X417857Y503149D01*
X418039Y502563D01*
X418208Y501973D01*
X418362Y501379D01*
X418502Y500781D01*
X418627Y500180D01*
X418737Y499576D01*
X418833Y498970D01*
X418915Y498362D01*
X418981Y497751D01*
X419033Y497140D01*
X419070Y496527D01*
X419093Y495914D01*
X419100Y495300D01*
X419100Y304800D01*
X419093Y304186D01*
X419070Y303573D01*
X419033Y302960D01*
X418981Y302349D01*
X418915Y301738D01*
X418833Y301130D01*
X418737Y300524D01*
X418627Y299920D01*
X418502Y299319D01*
X418362Y298721D01*
X418208Y298127D01*
X418039Y297537D01*
X417857Y296951D01*
X417660Y296370D01*
X417449Y295793D01*
X417225Y295222D01*
X416987Y294656D01*
X416735Y294096D01*
X416469Y293543D01*
X416191Y292996D01*
X415899Y292456D01*
X415594Y291923D01*
X415276Y291398D01*
X414946Y290880D01*
X414604Y290371D01*
X414249Y289870D01*
X413882Y289378D01*
X413504Y288895D01*
X413114Y288421D01*
X412712Y287957D01*
X412300Y287502D01*
X411876Y287058D01*
X411442Y286624D01*
X410998Y286200D01*
X410543Y285788D01*
X410079Y285386D01*
X409605Y284996D01*
X409122Y284618D01*
X408630Y284251D01*
X408129Y283896D01*
X407620Y283554D01*
X407102Y283224D01*
X406577Y282906D01*
X406044Y282601D01*
X405504Y282309D01*
X404957Y282031D01*
X404404Y281765D01*
X403844Y281513D01*
X403278Y281275D01*
X402707Y281051D01*
X402130Y280840D01*
X401549Y280643D01*
X400963Y280461D01*
X400373Y280292D01*
X399779Y280138D01*
X399181Y279998D01*
X398580Y279873D01*
X397976Y279763D01*
X397370Y279667D01*
X396762Y279585D01*
X396151Y279519D01*
X395540Y279467D01*
X394927Y279430D01*
X394314Y279407D01*
X393700Y279400D01*
X330200Y279400D01*
X368300Y469900D02*
X368300Y482600D01*
X368300Y469900D02*
X355600Y419100D01*
M02*
