M48
;GenerationSoftware,Autodesk,EAGLE,9.0.1*%
;CreationDate,2018-06-20T13:35:04Z*%
FMAT,2
ICI,OFF
METRIC,TZ,000.000
T4C0.550
T3C0.813
T2C1.016
T1C3.500
%
G90
M71
T1
X3810Y3810
X48260Y3810
X3810Y53340
X48260Y53340
T2
X33020Y17780
X33020Y20320
X33020Y22860
X33020Y25400
X33020Y27940
X33020Y30480
X10160Y12700
X10160Y15240
X10160Y17780
X10160Y20320
X10160Y22860
X10160Y25400
X10160Y27940
X10160Y30480
X33020Y12700
X33020Y15240
T3
X20320Y43180
X20320Y45720
X20320Y48260
X20320Y50800
T4
X38100Y48260
X38100Y46990
X36830Y48260
X36830Y46990
X35560Y48260
X35560Y46990
X34290Y48260
X34290Y46990
X33020Y48260
X33020Y46990
M30