G04 EAGLE Gerber X2 export*
%TF.Part,Single*%
%TF.FileFunction,Legend,Top,1*%
%TF.FilePolarity,Positive*%
%TF.GenerationSoftware,Autodesk,EAGLE,9.0.1*%
%TF.CreationDate,2018-06-20T13:35:04Z*%
G75*
%MOMM*%
%FSLAX34Y34*%
%LPD*%
%AMOC8*
5,1,8,0,0,1.08239X$1,22.5*%
G01*
%ADD10C,0.152400*%
%ADD11C,0.127000*%
%ADD12C,0.101600*%
%ADD13C,0.050800*%
%ADD14C,0.203200*%
%ADD15C,0.076200*%


D10*
X418338Y102362D02*
X402082Y102362D01*
X402082Y106878D01*
X402084Y107011D01*
X402090Y107143D01*
X402100Y107275D01*
X402113Y107407D01*
X402131Y107539D01*
X402152Y107669D01*
X402177Y107800D01*
X402206Y107929D01*
X402239Y108057D01*
X402275Y108185D01*
X402315Y108311D01*
X402359Y108436D01*
X402407Y108560D01*
X402458Y108682D01*
X402513Y108803D01*
X402571Y108922D01*
X402633Y109040D01*
X402698Y109155D01*
X402767Y109269D01*
X402838Y109380D01*
X402914Y109489D01*
X402992Y109596D01*
X403073Y109701D01*
X403158Y109803D01*
X403245Y109903D01*
X403335Y110000D01*
X403428Y110095D01*
X403524Y110186D01*
X403622Y110275D01*
X403723Y110361D01*
X403827Y110444D01*
X403933Y110524D01*
X404041Y110600D01*
X404151Y110674D01*
X404264Y110744D01*
X404378Y110811D01*
X404495Y110874D01*
X404613Y110934D01*
X404733Y110991D01*
X404855Y111044D01*
X404978Y111093D01*
X405102Y111139D01*
X405228Y111181D01*
X405355Y111219D01*
X405483Y111254D01*
X405612Y111285D01*
X405741Y111312D01*
X405872Y111335D01*
X406003Y111355D01*
X406135Y111370D01*
X406267Y111382D01*
X406399Y111390D01*
X406532Y111394D01*
X406664Y111394D01*
X406797Y111390D01*
X406929Y111382D01*
X407061Y111370D01*
X407193Y111355D01*
X407324Y111335D01*
X407455Y111312D01*
X407584Y111285D01*
X407713Y111254D01*
X407841Y111219D01*
X407968Y111181D01*
X408094Y111139D01*
X408218Y111093D01*
X408341Y111044D01*
X408463Y110991D01*
X408583Y110934D01*
X408701Y110874D01*
X408818Y110811D01*
X408932Y110744D01*
X409045Y110674D01*
X409155Y110600D01*
X409263Y110524D01*
X409369Y110444D01*
X409473Y110361D01*
X409574Y110275D01*
X409672Y110186D01*
X409768Y110095D01*
X409861Y110000D01*
X409951Y109903D01*
X410038Y109803D01*
X410123Y109701D01*
X410204Y109596D01*
X410282Y109489D01*
X410358Y109380D01*
X410429Y109269D01*
X410498Y109155D01*
X410563Y109040D01*
X410625Y108922D01*
X410683Y108803D01*
X410738Y108682D01*
X410789Y108560D01*
X410837Y108436D01*
X410881Y108311D01*
X410921Y108185D01*
X410957Y108057D01*
X410990Y107929D01*
X411019Y107800D01*
X411044Y107669D01*
X411065Y107539D01*
X411083Y107407D01*
X411096Y107275D01*
X411106Y107143D01*
X411112Y107011D01*
X411114Y106878D01*
X411113Y106878D02*
X411113Y102362D01*
X411113Y117122D02*
X414726Y117122D01*
X411113Y117123D02*
X410994Y117125D01*
X410874Y117131D01*
X410755Y117141D01*
X410637Y117155D01*
X410518Y117172D01*
X410401Y117194D01*
X410284Y117219D01*
X410169Y117249D01*
X410054Y117282D01*
X409940Y117319D01*
X409828Y117359D01*
X409717Y117404D01*
X409608Y117452D01*
X409500Y117503D01*
X409394Y117558D01*
X409290Y117617D01*
X409188Y117679D01*
X409088Y117744D01*
X408990Y117813D01*
X408894Y117885D01*
X408801Y117960D01*
X408711Y118037D01*
X408623Y118118D01*
X408538Y118202D01*
X408456Y118289D01*
X408376Y118378D01*
X408300Y118470D01*
X408226Y118564D01*
X408156Y118661D01*
X408089Y118759D01*
X408025Y118860D01*
X407965Y118964D01*
X407908Y119069D01*
X407855Y119176D01*
X407805Y119284D01*
X407759Y119394D01*
X407717Y119506D01*
X407678Y119619D01*
X407643Y119733D01*
X407612Y119848D01*
X407584Y119965D01*
X407561Y120082D01*
X407541Y120199D01*
X407525Y120318D01*
X407513Y120437D01*
X407505Y120556D01*
X407501Y120675D01*
X407501Y120795D01*
X407505Y120914D01*
X407513Y121033D01*
X407525Y121152D01*
X407541Y121271D01*
X407561Y121388D01*
X407584Y121505D01*
X407612Y121622D01*
X407643Y121737D01*
X407678Y121851D01*
X407717Y121964D01*
X407759Y122076D01*
X407805Y122186D01*
X407855Y122294D01*
X407908Y122401D01*
X407965Y122506D01*
X408025Y122610D01*
X408089Y122711D01*
X408156Y122809D01*
X408226Y122906D01*
X408300Y123000D01*
X408376Y123092D01*
X408456Y123181D01*
X408538Y123268D01*
X408623Y123352D01*
X408711Y123433D01*
X408801Y123510D01*
X408894Y123585D01*
X408990Y123657D01*
X409088Y123726D01*
X409188Y123791D01*
X409290Y123853D01*
X409394Y123912D01*
X409500Y123967D01*
X409608Y124018D01*
X409717Y124066D01*
X409828Y124111D01*
X409940Y124151D01*
X410054Y124188D01*
X410169Y124221D01*
X410284Y124251D01*
X410401Y124276D01*
X410518Y124298D01*
X410637Y124315D01*
X410755Y124329D01*
X410874Y124339D01*
X410994Y124345D01*
X411113Y124347D01*
X414726Y124347D01*
X414845Y124345D01*
X414965Y124339D01*
X415084Y124329D01*
X415202Y124315D01*
X415321Y124298D01*
X415438Y124276D01*
X415555Y124251D01*
X415670Y124221D01*
X415785Y124188D01*
X415899Y124151D01*
X416011Y124111D01*
X416122Y124066D01*
X416231Y124018D01*
X416339Y123967D01*
X416445Y123912D01*
X416549Y123853D01*
X416651Y123791D01*
X416751Y123726D01*
X416849Y123657D01*
X416945Y123585D01*
X417038Y123510D01*
X417128Y123433D01*
X417216Y123352D01*
X417301Y123268D01*
X417383Y123181D01*
X417463Y123092D01*
X417539Y123000D01*
X417613Y122906D01*
X417683Y122809D01*
X417750Y122711D01*
X417814Y122610D01*
X417874Y122506D01*
X417931Y122401D01*
X417984Y122294D01*
X418034Y122186D01*
X418080Y122076D01*
X418122Y121964D01*
X418161Y121851D01*
X418196Y121737D01*
X418227Y121622D01*
X418255Y121505D01*
X418278Y121388D01*
X418298Y121271D01*
X418314Y121152D01*
X418326Y121033D01*
X418334Y120914D01*
X418338Y120795D01*
X418338Y120675D01*
X418334Y120556D01*
X418326Y120437D01*
X418314Y120318D01*
X418298Y120199D01*
X418278Y120082D01*
X418255Y119965D01*
X418227Y119848D01*
X418196Y119733D01*
X418161Y119619D01*
X418122Y119506D01*
X418080Y119394D01*
X418034Y119284D01*
X417984Y119176D01*
X417931Y119069D01*
X417874Y118964D01*
X417814Y118860D01*
X417750Y118759D01*
X417683Y118661D01*
X417613Y118564D01*
X417539Y118470D01*
X417463Y118378D01*
X417383Y118289D01*
X417301Y118202D01*
X417216Y118118D01*
X417128Y118037D01*
X417038Y117960D01*
X416945Y117885D01*
X416849Y117813D01*
X416751Y117744D01*
X416651Y117679D01*
X416549Y117617D01*
X416445Y117558D01*
X416339Y117503D01*
X416231Y117452D01*
X416122Y117404D01*
X416011Y117359D01*
X415899Y117319D01*
X415785Y117282D01*
X415670Y117249D01*
X415555Y117219D01*
X415438Y117194D01*
X415321Y117172D01*
X415202Y117155D01*
X415084Y117141D01*
X414965Y117131D01*
X414845Y117125D01*
X414726Y117123D01*
X415629Y130906D02*
X402082Y130906D01*
X415629Y130907D02*
X415730Y130909D01*
X415831Y130915D01*
X415932Y130924D01*
X416033Y130937D01*
X416133Y130954D01*
X416232Y130975D01*
X416330Y130999D01*
X416427Y131027D01*
X416524Y131059D01*
X416619Y131094D01*
X416712Y131133D01*
X416804Y131175D01*
X416895Y131221D01*
X416984Y131270D01*
X417070Y131322D01*
X417155Y131378D01*
X417238Y131436D01*
X417318Y131498D01*
X417396Y131563D01*
X417472Y131630D01*
X417545Y131700D01*
X417615Y131773D01*
X417682Y131849D01*
X417747Y131927D01*
X417809Y132007D01*
X417867Y132090D01*
X417923Y132175D01*
X417975Y132261D01*
X418024Y132350D01*
X418070Y132441D01*
X418112Y132533D01*
X418151Y132626D01*
X418186Y132721D01*
X418218Y132818D01*
X418246Y132915D01*
X418270Y133013D01*
X418291Y133112D01*
X418308Y133212D01*
X418321Y133313D01*
X418330Y133414D01*
X418336Y133515D01*
X418338Y133616D01*
X415629Y139527D02*
X407501Y139527D01*
X415629Y139527D02*
X415730Y139529D01*
X415831Y139535D01*
X415932Y139544D01*
X416033Y139557D01*
X416133Y139574D01*
X416232Y139595D01*
X416330Y139619D01*
X416427Y139647D01*
X416524Y139679D01*
X416619Y139714D01*
X416712Y139753D01*
X416804Y139795D01*
X416895Y139841D01*
X416984Y139890D01*
X417070Y139942D01*
X417155Y139998D01*
X417238Y140056D01*
X417318Y140118D01*
X417396Y140183D01*
X417472Y140250D01*
X417545Y140320D01*
X417615Y140393D01*
X417682Y140469D01*
X417747Y140547D01*
X417809Y140627D01*
X417867Y140710D01*
X417923Y140795D01*
X417975Y140881D01*
X418024Y140970D01*
X418070Y141061D01*
X418112Y141153D01*
X418151Y141246D01*
X418186Y141341D01*
X418218Y141438D01*
X418246Y141535D01*
X418270Y141633D01*
X418291Y141732D01*
X418308Y141832D01*
X418321Y141933D01*
X418330Y142034D01*
X418336Y142135D01*
X418338Y142236D01*
X418338Y146752D01*
X407501Y146752D01*
X418338Y156322D02*
X418338Y159934D01*
X418338Y156322D02*
X418336Y156221D01*
X418330Y156120D01*
X418321Y156019D01*
X418308Y155918D01*
X418291Y155818D01*
X418270Y155719D01*
X418246Y155621D01*
X418218Y155524D01*
X418186Y155427D01*
X418151Y155332D01*
X418112Y155239D01*
X418070Y155147D01*
X418024Y155056D01*
X417975Y154967D01*
X417923Y154881D01*
X417867Y154796D01*
X417809Y154713D01*
X417747Y154633D01*
X417682Y154555D01*
X417615Y154479D01*
X417545Y154406D01*
X417472Y154336D01*
X417396Y154269D01*
X417318Y154204D01*
X417238Y154142D01*
X417155Y154084D01*
X417070Y154028D01*
X416984Y153976D01*
X416895Y153927D01*
X416804Y153881D01*
X416712Y153839D01*
X416619Y153800D01*
X416524Y153765D01*
X416427Y153733D01*
X416330Y153705D01*
X416232Y153681D01*
X416133Y153660D01*
X416033Y153643D01*
X415932Y153630D01*
X415831Y153621D01*
X415730Y153615D01*
X415629Y153613D01*
X410210Y153613D01*
X410109Y153615D01*
X410008Y153621D01*
X409907Y153630D01*
X409806Y153643D01*
X409706Y153660D01*
X409607Y153681D01*
X409509Y153705D01*
X409412Y153733D01*
X409315Y153765D01*
X409220Y153800D01*
X409127Y153839D01*
X409035Y153881D01*
X408944Y153927D01*
X408856Y153976D01*
X408769Y154028D01*
X408684Y154084D01*
X408601Y154142D01*
X408521Y154204D01*
X408443Y154269D01*
X408367Y154336D01*
X408294Y154406D01*
X408224Y154479D01*
X408157Y154555D01*
X408092Y154633D01*
X408030Y154713D01*
X407972Y154796D01*
X407916Y154881D01*
X407864Y154968D01*
X407815Y155056D01*
X407769Y155147D01*
X407727Y155239D01*
X407688Y155332D01*
X407653Y155427D01*
X407621Y155524D01*
X407593Y155621D01*
X407569Y155719D01*
X407548Y155818D01*
X407531Y155918D01*
X407518Y156019D01*
X407509Y156120D01*
X407503Y156221D01*
X407501Y156322D01*
X407501Y159934D01*
X407501Y165301D02*
X421047Y165301D01*
X421148Y165299D01*
X421249Y165293D01*
X421350Y165284D01*
X421451Y165271D01*
X421551Y165254D01*
X421650Y165233D01*
X421748Y165209D01*
X421845Y165181D01*
X421942Y165149D01*
X422037Y165114D01*
X422130Y165075D01*
X422222Y165033D01*
X422313Y164987D01*
X422402Y164938D01*
X422488Y164886D01*
X422573Y164830D01*
X422656Y164772D01*
X422736Y164710D01*
X422814Y164645D01*
X422890Y164578D01*
X422963Y164508D01*
X423033Y164435D01*
X423100Y164359D01*
X423165Y164281D01*
X423227Y164201D01*
X423285Y164118D01*
X423341Y164033D01*
X423393Y163947D01*
X423442Y163858D01*
X423488Y163767D01*
X423530Y163675D01*
X423569Y163582D01*
X423604Y163487D01*
X423636Y163390D01*
X423664Y163293D01*
X423688Y163195D01*
X423709Y163096D01*
X423726Y162996D01*
X423739Y162895D01*
X423748Y162794D01*
X423754Y162693D01*
X423756Y162592D01*
X423757Y162592D02*
X423757Y161689D01*
X402985Y164849D02*
X402082Y164849D01*
X402082Y165753D01*
X402985Y165753D01*
X402985Y164849D01*
X412016Y174919D02*
X412016Y178983D01*
X412016Y174919D02*
X412018Y174807D01*
X412024Y174696D01*
X412034Y174585D01*
X412047Y174474D01*
X412065Y174364D01*
X412087Y174255D01*
X412112Y174146D01*
X412141Y174038D01*
X412174Y173932D01*
X412211Y173826D01*
X412251Y173722D01*
X412295Y173620D01*
X412343Y173519D01*
X412394Y173420D01*
X412449Y173322D01*
X412507Y173227D01*
X412568Y173134D01*
X412633Y173043D01*
X412701Y172954D01*
X412772Y172868D01*
X412845Y172785D01*
X412922Y172704D01*
X413002Y172625D01*
X413084Y172550D01*
X413169Y172478D01*
X413256Y172408D01*
X413346Y172342D01*
X413438Y172279D01*
X413533Y172219D01*
X413629Y172163D01*
X413727Y172110D01*
X413827Y172061D01*
X413929Y172015D01*
X414032Y171973D01*
X414137Y171934D01*
X414243Y171899D01*
X414350Y171868D01*
X414458Y171841D01*
X414567Y171817D01*
X414677Y171798D01*
X414787Y171782D01*
X414898Y171770D01*
X415010Y171762D01*
X415121Y171758D01*
X415233Y171758D01*
X415344Y171762D01*
X415456Y171770D01*
X415567Y171782D01*
X415677Y171798D01*
X415787Y171817D01*
X415896Y171841D01*
X416004Y171868D01*
X416111Y171899D01*
X416217Y171934D01*
X416322Y171973D01*
X416425Y172015D01*
X416527Y172061D01*
X416627Y172110D01*
X416725Y172163D01*
X416821Y172219D01*
X416916Y172279D01*
X417008Y172342D01*
X417098Y172408D01*
X417185Y172478D01*
X417270Y172550D01*
X417352Y172625D01*
X417432Y172704D01*
X417509Y172785D01*
X417582Y172868D01*
X417653Y172954D01*
X417721Y173043D01*
X417786Y173134D01*
X417847Y173227D01*
X417905Y173322D01*
X417960Y173420D01*
X418011Y173519D01*
X418059Y173620D01*
X418103Y173722D01*
X418143Y173826D01*
X418180Y173932D01*
X418213Y174038D01*
X418242Y174146D01*
X418267Y174255D01*
X418289Y174364D01*
X418307Y174474D01*
X418320Y174585D01*
X418330Y174696D01*
X418336Y174807D01*
X418338Y174919D01*
X418338Y178983D01*
X410210Y178983D01*
X410109Y178981D01*
X410008Y178975D01*
X409907Y178966D01*
X409806Y178953D01*
X409706Y178936D01*
X409607Y178915D01*
X409509Y178891D01*
X409412Y178863D01*
X409315Y178831D01*
X409220Y178796D01*
X409127Y178757D01*
X409035Y178715D01*
X408944Y178669D01*
X408856Y178620D01*
X408769Y178568D01*
X408684Y178512D01*
X408601Y178454D01*
X408521Y178392D01*
X408443Y178327D01*
X408367Y178260D01*
X408294Y178190D01*
X408224Y178117D01*
X408157Y178041D01*
X408092Y177963D01*
X408030Y177883D01*
X407972Y177800D01*
X407916Y177715D01*
X407864Y177629D01*
X407815Y177540D01*
X407769Y177449D01*
X407727Y177357D01*
X407688Y177264D01*
X407653Y177169D01*
X407621Y177072D01*
X407593Y176975D01*
X407569Y176877D01*
X407548Y176778D01*
X407531Y176678D01*
X407518Y176577D01*
X407509Y176476D01*
X407503Y176375D01*
X407501Y176274D01*
X407501Y172661D01*
X407501Y186421D02*
X418338Y186421D01*
X407501Y186421D02*
X407501Y190936D01*
X407503Y191040D01*
X407509Y191143D01*
X407519Y191247D01*
X407533Y191350D01*
X407551Y191452D01*
X407572Y191553D01*
X407598Y191654D01*
X407627Y191753D01*
X407660Y191852D01*
X407697Y191949D01*
X407738Y192044D01*
X407782Y192138D01*
X407830Y192230D01*
X407881Y192320D01*
X407936Y192409D01*
X407994Y192495D01*
X408056Y192578D01*
X408120Y192660D01*
X408188Y192738D01*
X408258Y192814D01*
X408331Y192888D01*
X408408Y192958D01*
X408486Y193026D01*
X408568Y193090D01*
X408651Y193152D01*
X408737Y193210D01*
X408826Y193265D01*
X408916Y193316D01*
X409008Y193364D01*
X409102Y193408D01*
X409197Y193449D01*
X409294Y193486D01*
X409393Y193519D01*
X409492Y193548D01*
X409593Y193574D01*
X409694Y193595D01*
X409796Y193613D01*
X409899Y193627D01*
X410003Y193637D01*
X410106Y193643D01*
X410210Y193645D01*
X410210Y193646D02*
X418338Y193646D01*
X405694Y208964D02*
X402082Y213480D01*
X418338Y213480D01*
X418338Y217995D02*
X418338Y208964D01*
X418338Y223970D02*
X417435Y223970D01*
X417435Y224873D01*
X418338Y224873D01*
X418338Y223970D01*
X410210Y230848D02*
X409890Y230852D01*
X409571Y230863D01*
X409251Y230882D01*
X408933Y230909D01*
X408615Y230943D01*
X408298Y230985D01*
X407982Y231035D01*
X407667Y231092D01*
X407354Y231156D01*
X407042Y231228D01*
X406732Y231307D01*
X406425Y231394D01*
X406119Y231488D01*
X405816Y231589D01*
X405515Y231698D01*
X405217Y231813D01*
X404921Y231936D01*
X404629Y232066D01*
X404340Y232203D01*
X404339Y232204D02*
X404231Y232243D01*
X404124Y232286D01*
X404019Y232332D01*
X403916Y232382D01*
X403814Y232436D01*
X403714Y232493D01*
X403616Y232554D01*
X403520Y232618D01*
X403427Y232685D01*
X403336Y232755D01*
X403247Y232829D01*
X403161Y232905D01*
X403078Y232985D01*
X402997Y233067D01*
X402919Y233152D01*
X402845Y233239D01*
X402773Y233330D01*
X402704Y233422D01*
X402639Y233517D01*
X402577Y233614D01*
X402518Y233713D01*
X402463Y233814D01*
X402412Y233917D01*
X402364Y234022D01*
X402319Y234128D01*
X402278Y234235D01*
X402241Y234344D01*
X402208Y234455D01*
X402179Y234566D01*
X402153Y234678D01*
X402131Y234791D01*
X402114Y234905D01*
X402100Y235019D01*
X402090Y235134D01*
X402084Y235249D01*
X402082Y235364D01*
X402084Y235479D01*
X402090Y235594D01*
X402100Y235709D01*
X402114Y235823D01*
X402131Y235937D01*
X402153Y236050D01*
X402179Y236162D01*
X402208Y236274D01*
X402241Y236384D01*
X402278Y236493D01*
X402319Y236601D01*
X402364Y236707D01*
X402412Y236812D01*
X402463Y236914D01*
X402519Y237016D01*
X402577Y237115D01*
X402639Y237212D01*
X402705Y237307D01*
X402773Y237399D01*
X402845Y237489D01*
X402919Y237577D01*
X402997Y237662D01*
X403078Y237744D01*
X403161Y237823D01*
X403247Y237900D01*
X403336Y237973D01*
X403427Y238044D01*
X403521Y238111D01*
X403616Y238175D01*
X403714Y238236D01*
X403814Y238293D01*
X403916Y238346D01*
X404020Y238397D01*
X404125Y238443D01*
X404232Y238486D01*
X404340Y238525D01*
X404340Y238524D02*
X404629Y238661D01*
X404921Y238791D01*
X405217Y238914D01*
X405515Y239029D01*
X405816Y239138D01*
X406119Y239239D01*
X406425Y239333D01*
X406732Y239420D01*
X407042Y239499D01*
X407354Y239571D01*
X407667Y239635D01*
X407982Y239692D01*
X408298Y239742D01*
X408615Y239784D01*
X408933Y239818D01*
X409251Y239845D01*
X409571Y239864D01*
X409890Y239875D01*
X410210Y239879D01*
X410210Y230848D02*
X410530Y230852D01*
X410849Y230863D01*
X411169Y230882D01*
X411487Y230909D01*
X411805Y230943D01*
X412122Y230985D01*
X412438Y231035D01*
X412753Y231092D01*
X413066Y231156D01*
X413378Y231228D01*
X413688Y231307D01*
X413995Y231394D01*
X414301Y231488D01*
X414604Y231589D01*
X414905Y231698D01*
X415203Y231813D01*
X415499Y231936D01*
X415791Y232066D01*
X416080Y232203D01*
X416081Y232203D02*
X416189Y232242D01*
X416296Y232285D01*
X416401Y232331D01*
X416505Y232382D01*
X416607Y232435D01*
X416707Y232492D01*
X416805Y232553D01*
X416900Y232617D01*
X416994Y232684D01*
X417085Y232755D01*
X417174Y232828D01*
X417260Y232905D01*
X417343Y232984D01*
X417424Y233066D01*
X417502Y233151D01*
X417576Y233239D01*
X417648Y233329D01*
X417717Y233422D01*
X417782Y233516D01*
X417844Y233613D01*
X417902Y233713D01*
X417958Y233814D01*
X418009Y233916D01*
X418057Y234021D01*
X418102Y234127D01*
X418143Y234235D01*
X418180Y234344D01*
X418213Y234454D01*
X418242Y234566D01*
X418268Y234678D01*
X418290Y234791D01*
X418307Y234905D01*
X418321Y235019D01*
X418331Y235134D01*
X418337Y235249D01*
X418339Y235364D01*
X416080Y238524D02*
X415791Y238661D01*
X415499Y238791D01*
X415203Y238914D01*
X414905Y239029D01*
X414604Y239138D01*
X414301Y239239D01*
X413995Y239333D01*
X413688Y239420D01*
X413378Y239499D01*
X413066Y239571D01*
X412753Y239635D01*
X412438Y239692D01*
X412122Y239742D01*
X411805Y239784D01*
X411487Y239818D01*
X411169Y239845D01*
X410849Y239864D01*
X410530Y239875D01*
X410210Y239879D01*
X416080Y238525D02*
X416188Y238486D01*
X416295Y238443D01*
X416400Y238397D01*
X416504Y238346D01*
X416606Y238293D01*
X416706Y238236D01*
X416804Y238175D01*
X416899Y238111D01*
X416993Y238044D01*
X417084Y237973D01*
X417173Y237900D01*
X417259Y237823D01*
X417342Y237744D01*
X417423Y237662D01*
X417501Y237577D01*
X417575Y237489D01*
X417647Y237399D01*
X417716Y237306D01*
X417781Y237212D01*
X417843Y237115D01*
X417901Y237015D01*
X417957Y236914D01*
X418008Y236811D01*
X418056Y236707D01*
X418101Y236601D01*
X418142Y236493D01*
X418179Y236384D01*
X418212Y236274D01*
X418241Y236162D01*
X418267Y236050D01*
X418289Y235937D01*
X418306Y235823D01*
X418320Y235709D01*
X418330Y235594D01*
X418336Y235479D01*
X418338Y235364D01*
X414726Y231751D02*
X405694Y238976D01*
D11*
X215900Y419100D02*
X88900Y419100D01*
X88900Y520700D01*
X215900Y520700D01*
X215900Y419100D01*
X127000Y508000D02*
X101600Y508000D01*
X127000Y508000D02*
X127000Y482600D01*
X101600Y482600D01*
X101600Y508000D01*
D12*
X127155Y400699D02*
X130401Y400699D01*
X130401Y400700D02*
X130514Y400698D01*
X130627Y400692D01*
X130740Y400682D01*
X130853Y400668D01*
X130965Y400651D01*
X131076Y400629D01*
X131186Y400604D01*
X131296Y400574D01*
X131404Y400541D01*
X131511Y400504D01*
X131617Y400464D01*
X131721Y400419D01*
X131824Y400371D01*
X131925Y400320D01*
X132024Y400265D01*
X132121Y400207D01*
X132216Y400145D01*
X132309Y400080D01*
X132399Y400012D01*
X132487Y399941D01*
X132573Y399866D01*
X132656Y399789D01*
X132736Y399709D01*
X132813Y399626D01*
X132888Y399540D01*
X132959Y399452D01*
X133027Y399362D01*
X133092Y399269D01*
X133154Y399174D01*
X133212Y399077D01*
X133267Y398978D01*
X133318Y398877D01*
X133366Y398774D01*
X133411Y398670D01*
X133451Y398564D01*
X133488Y398457D01*
X133521Y398349D01*
X133551Y398239D01*
X133576Y398129D01*
X133598Y398018D01*
X133615Y397906D01*
X133629Y397793D01*
X133639Y397680D01*
X133645Y397567D01*
X133647Y397454D01*
X133645Y397341D01*
X133639Y397228D01*
X133629Y397115D01*
X133615Y397002D01*
X133598Y396890D01*
X133576Y396779D01*
X133551Y396669D01*
X133521Y396559D01*
X133488Y396451D01*
X133451Y396344D01*
X133411Y396238D01*
X133366Y396134D01*
X133318Y396031D01*
X133267Y395930D01*
X133212Y395831D01*
X133154Y395734D01*
X133092Y395639D01*
X133027Y395546D01*
X132959Y395456D01*
X132888Y395368D01*
X132813Y395282D01*
X132736Y395199D01*
X132656Y395119D01*
X132573Y395042D01*
X132487Y394967D01*
X132399Y394896D01*
X132309Y394828D01*
X132216Y394763D01*
X132121Y394701D01*
X132024Y394643D01*
X131925Y394588D01*
X131824Y394537D01*
X131721Y394489D01*
X131617Y394444D01*
X131511Y394404D01*
X131404Y394367D01*
X131296Y394334D01*
X131186Y394304D01*
X131076Y394279D01*
X130965Y394257D01*
X130853Y394240D01*
X130740Y394226D01*
X130627Y394216D01*
X130514Y394210D01*
X130401Y394208D01*
X127155Y394208D01*
X127155Y405892D01*
X130401Y405892D01*
X130502Y405890D01*
X130602Y405884D01*
X130702Y405874D01*
X130802Y405861D01*
X130901Y405843D01*
X131000Y405822D01*
X131097Y405797D01*
X131194Y405768D01*
X131289Y405735D01*
X131383Y405699D01*
X131475Y405659D01*
X131566Y405616D01*
X131655Y405569D01*
X131742Y405519D01*
X131828Y405465D01*
X131911Y405408D01*
X131991Y405348D01*
X132070Y405285D01*
X132146Y405218D01*
X132219Y405149D01*
X132289Y405077D01*
X132357Y405003D01*
X132422Y404926D01*
X132483Y404846D01*
X132542Y404764D01*
X132597Y404680D01*
X132649Y404594D01*
X132698Y404506D01*
X132743Y404416D01*
X132785Y404324D01*
X132823Y404231D01*
X132857Y404136D01*
X132888Y404041D01*
X132915Y403944D01*
X132938Y403846D01*
X132958Y403747D01*
X132973Y403647D01*
X132985Y403547D01*
X132993Y403447D01*
X132997Y403346D01*
X132997Y403246D01*
X132993Y403145D01*
X132985Y403045D01*
X132973Y402945D01*
X132958Y402845D01*
X132938Y402746D01*
X132915Y402648D01*
X132888Y402551D01*
X132857Y402456D01*
X132823Y402361D01*
X132785Y402268D01*
X132743Y402176D01*
X132698Y402086D01*
X132649Y401998D01*
X132597Y401912D01*
X132542Y401828D01*
X132483Y401746D01*
X132422Y401666D01*
X132357Y401589D01*
X132289Y401515D01*
X132219Y401443D01*
X132146Y401374D01*
X132070Y401307D01*
X131991Y401244D01*
X131911Y401184D01*
X131828Y401127D01*
X131742Y401073D01*
X131655Y401023D01*
X131566Y400976D01*
X131475Y400933D01*
X131383Y400893D01*
X131289Y400857D01*
X131194Y400824D01*
X131097Y400795D01*
X131000Y400770D01*
X130901Y400749D01*
X130802Y400731D01*
X130702Y400718D01*
X130602Y400708D01*
X130502Y400702D01*
X130401Y400700D01*
X138529Y405892D02*
X138529Y394208D01*
X142424Y399401D02*
X138529Y405892D01*
X142424Y399401D02*
X146318Y405892D01*
X146318Y394208D01*
X152155Y394208D02*
X157347Y394208D01*
X152155Y394208D02*
X152155Y405892D01*
X157347Y405892D01*
X156049Y400699D02*
X152155Y400699D01*
X165227Y405892D02*
X165334Y405890D01*
X165440Y405884D01*
X165546Y405874D01*
X165652Y405861D01*
X165758Y405843D01*
X165862Y405822D01*
X165966Y405797D01*
X166069Y405768D01*
X166170Y405736D01*
X166270Y405699D01*
X166369Y405659D01*
X166467Y405616D01*
X166563Y405569D01*
X166657Y405518D01*
X166749Y405464D01*
X166839Y405407D01*
X166927Y405347D01*
X167012Y405283D01*
X167095Y405216D01*
X167176Y405146D01*
X167254Y405074D01*
X167330Y404998D01*
X167402Y404920D01*
X167472Y404839D01*
X167539Y404756D01*
X167603Y404671D01*
X167663Y404583D01*
X167720Y404493D01*
X167774Y404401D01*
X167825Y404307D01*
X167872Y404211D01*
X167915Y404113D01*
X167955Y404014D01*
X167992Y403914D01*
X168024Y403813D01*
X168053Y403710D01*
X168078Y403606D01*
X168099Y403502D01*
X168117Y403396D01*
X168130Y403290D01*
X168140Y403184D01*
X168146Y403078D01*
X168148Y402971D01*
X165227Y405892D02*
X165106Y405890D01*
X164985Y405884D01*
X164865Y405874D01*
X164744Y405861D01*
X164625Y405843D01*
X164505Y405822D01*
X164387Y405797D01*
X164270Y405768D01*
X164153Y405735D01*
X164038Y405699D01*
X163924Y405658D01*
X163811Y405615D01*
X163699Y405567D01*
X163590Y405516D01*
X163482Y405461D01*
X163375Y405403D01*
X163271Y405342D01*
X163169Y405277D01*
X163069Y405209D01*
X162971Y405138D01*
X162875Y405064D01*
X162782Y404987D01*
X162692Y404906D01*
X162604Y404823D01*
X162519Y404737D01*
X162436Y404648D01*
X162357Y404557D01*
X162280Y404463D01*
X162207Y404367D01*
X162137Y404269D01*
X162070Y404168D01*
X162006Y404065D01*
X161946Y403960D01*
X161889Y403853D01*
X161835Y403745D01*
X161785Y403635D01*
X161739Y403523D01*
X161696Y403410D01*
X161657Y403295D01*
X167175Y400699D02*
X167254Y400776D01*
X167330Y400857D01*
X167403Y400940D01*
X167473Y401025D01*
X167540Y401113D01*
X167604Y401203D01*
X167664Y401295D01*
X167721Y401390D01*
X167775Y401486D01*
X167826Y401584D01*
X167873Y401684D01*
X167917Y401786D01*
X167957Y401889D01*
X167993Y401993D01*
X168025Y402099D01*
X168054Y402205D01*
X168079Y402313D01*
X168101Y402421D01*
X168118Y402531D01*
X168132Y402640D01*
X168141Y402750D01*
X168147Y402861D01*
X168149Y402971D01*
X167174Y400699D02*
X161657Y394208D01*
X168148Y394208D01*
X173087Y397454D02*
X173089Y397567D01*
X173095Y397680D01*
X173105Y397793D01*
X173119Y397906D01*
X173136Y398018D01*
X173158Y398129D01*
X173183Y398239D01*
X173213Y398349D01*
X173246Y398457D01*
X173283Y398564D01*
X173323Y398670D01*
X173368Y398774D01*
X173416Y398877D01*
X173467Y398978D01*
X173522Y399077D01*
X173580Y399174D01*
X173642Y399269D01*
X173707Y399362D01*
X173775Y399452D01*
X173846Y399540D01*
X173921Y399626D01*
X173998Y399709D01*
X174078Y399789D01*
X174161Y399866D01*
X174247Y399941D01*
X174335Y400012D01*
X174425Y400080D01*
X174518Y400145D01*
X174613Y400207D01*
X174710Y400265D01*
X174809Y400320D01*
X174910Y400371D01*
X175013Y400419D01*
X175117Y400464D01*
X175223Y400504D01*
X175330Y400541D01*
X175438Y400574D01*
X175548Y400604D01*
X175658Y400629D01*
X175769Y400651D01*
X175881Y400668D01*
X175994Y400682D01*
X176107Y400692D01*
X176220Y400698D01*
X176333Y400700D01*
X176446Y400698D01*
X176559Y400692D01*
X176672Y400682D01*
X176785Y400668D01*
X176897Y400651D01*
X177008Y400629D01*
X177118Y400604D01*
X177228Y400574D01*
X177336Y400541D01*
X177443Y400504D01*
X177549Y400464D01*
X177653Y400419D01*
X177756Y400371D01*
X177857Y400320D01*
X177956Y400265D01*
X178053Y400207D01*
X178148Y400145D01*
X178241Y400080D01*
X178331Y400012D01*
X178419Y399941D01*
X178505Y399866D01*
X178588Y399789D01*
X178668Y399709D01*
X178745Y399626D01*
X178820Y399540D01*
X178891Y399452D01*
X178959Y399362D01*
X179024Y399269D01*
X179086Y399174D01*
X179144Y399077D01*
X179199Y398978D01*
X179250Y398877D01*
X179298Y398774D01*
X179343Y398670D01*
X179383Y398564D01*
X179420Y398457D01*
X179453Y398349D01*
X179483Y398239D01*
X179508Y398129D01*
X179530Y398018D01*
X179547Y397906D01*
X179561Y397793D01*
X179571Y397680D01*
X179577Y397567D01*
X179579Y397454D01*
X179577Y397341D01*
X179571Y397228D01*
X179561Y397115D01*
X179547Y397002D01*
X179530Y396890D01*
X179508Y396779D01*
X179483Y396669D01*
X179453Y396559D01*
X179420Y396451D01*
X179383Y396344D01*
X179343Y396238D01*
X179298Y396134D01*
X179250Y396031D01*
X179199Y395930D01*
X179144Y395831D01*
X179086Y395734D01*
X179024Y395639D01*
X178959Y395546D01*
X178891Y395456D01*
X178820Y395368D01*
X178745Y395282D01*
X178668Y395199D01*
X178588Y395119D01*
X178505Y395042D01*
X178419Y394967D01*
X178331Y394896D01*
X178241Y394828D01*
X178148Y394763D01*
X178053Y394701D01*
X177956Y394643D01*
X177857Y394588D01*
X177756Y394537D01*
X177653Y394489D01*
X177549Y394444D01*
X177443Y394404D01*
X177336Y394367D01*
X177228Y394334D01*
X177118Y394304D01*
X177008Y394279D01*
X176897Y394257D01*
X176785Y394240D01*
X176672Y394226D01*
X176559Y394216D01*
X176446Y394210D01*
X176333Y394208D01*
X176220Y394210D01*
X176107Y394216D01*
X175994Y394226D01*
X175881Y394240D01*
X175769Y394257D01*
X175658Y394279D01*
X175548Y394304D01*
X175438Y394334D01*
X175330Y394367D01*
X175223Y394404D01*
X175117Y394444D01*
X175013Y394489D01*
X174910Y394537D01*
X174809Y394588D01*
X174710Y394643D01*
X174613Y394701D01*
X174518Y394763D01*
X174425Y394828D01*
X174335Y394896D01*
X174247Y394967D01*
X174161Y395042D01*
X174078Y395119D01*
X173998Y395199D01*
X173921Y395282D01*
X173846Y395368D01*
X173775Y395456D01*
X173707Y395546D01*
X173642Y395639D01*
X173580Y395734D01*
X173522Y395831D01*
X173467Y395930D01*
X173416Y396031D01*
X173368Y396134D01*
X173323Y396238D01*
X173283Y396344D01*
X173246Y396451D01*
X173213Y396559D01*
X173183Y396669D01*
X173158Y396779D01*
X173136Y396890D01*
X173119Y397002D01*
X173105Y397115D01*
X173095Y397228D01*
X173089Y397341D01*
X173087Y397454D01*
X173737Y403296D02*
X173739Y403397D01*
X173745Y403497D01*
X173755Y403597D01*
X173768Y403697D01*
X173786Y403796D01*
X173807Y403895D01*
X173832Y403992D01*
X173861Y404089D01*
X173894Y404184D01*
X173930Y404278D01*
X173970Y404370D01*
X174013Y404461D01*
X174060Y404550D01*
X174110Y404637D01*
X174164Y404723D01*
X174221Y404806D01*
X174281Y404886D01*
X174344Y404965D01*
X174411Y405041D01*
X174480Y405114D01*
X174552Y405184D01*
X174626Y405252D01*
X174703Y405317D01*
X174783Y405378D01*
X174865Y405437D01*
X174949Y405492D01*
X175035Y405544D01*
X175123Y405593D01*
X175213Y405638D01*
X175305Y405680D01*
X175398Y405718D01*
X175493Y405752D01*
X175588Y405783D01*
X175685Y405810D01*
X175783Y405833D01*
X175882Y405853D01*
X175982Y405868D01*
X176082Y405880D01*
X176182Y405888D01*
X176283Y405892D01*
X176383Y405892D01*
X176484Y405888D01*
X176584Y405880D01*
X176684Y405868D01*
X176784Y405853D01*
X176883Y405833D01*
X176981Y405810D01*
X177078Y405783D01*
X177173Y405752D01*
X177268Y405718D01*
X177361Y405680D01*
X177453Y405638D01*
X177543Y405593D01*
X177631Y405544D01*
X177717Y405492D01*
X177801Y405437D01*
X177883Y405378D01*
X177963Y405317D01*
X178040Y405252D01*
X178114Y405184D01*
X178186Y405114D01*
X178255Y405041D01*
X178322Y404965D01*
X178385Y404886D01*
X178445Y404806D01*
X178502Y404723D01*
X178556Y404637D01*
X178606Y404550D01*
X178653Y404461D01*
X178696Y404370D01*
X178736Y404278D01*
X178772Y404184D01*
X178805Y404089D01*
X178834Y403992D01*
X178859Y403895D01*
X178880Y403796D01*
X178898Y403697D01*
X178911Y403597D01*
X178921Y403497D01*
X178927Y403397D01*
X178929Y403296D01*
X178927Y403195D01*
X178921Y403095D01*
X178911Y402995D01*
X178898Y402895D01*
X178880Y402796D01*
X178859Y402697D01*
X178834Y402600D01*
X178805Y402503D01*
X178772Y402408D01*
X178736Y402314D01*
X178696Y402222D01*
X178653Y402131D01*
X178606Y402042D01*
X178556Y401955D01*
X178502Y401869D01*
X178445Y401786D01*
X178385Y401706D01*
X178322Y401627D01*
X178255Y401551D01*
X178186Y401478D01*
X178114Y401408D01*
X178040Y401340D01*
X177963Y401275D01*
X177883Y401214D01*
X177801Y401155D01*
X177717Y401100D01*
X177631Y401048D01*
X177543Y400999D01*
X177453Y400954D01*
X177361Y400912D01*
X177268Y400874D01*
X177173Y400840D01*
X177078Y400809D01*
X176981Y400782D01*
X176883Y400759D01*
X176784Y400739D01*
X176684Y400724D01*
X176584Y400712D01*
X176484Y400704D01*
X176383Y400700D01*
X176283Y400700D01*
X176182Y400704D01*
X176082Y400712D01*
X175982Y400724D01*
X175882Y400739D01*
X175783Y400759D01*
X175685Y400782D01*
X175588Y400809D01*
X175493Y400840D01*
X175398Y400874D01*
X175305Y400912D01*
X175213Y400954D01*
X175123Y400999D01*
X175035Y401048D01*
X174949Y401100D01*
X174865Y401155D01*
X174783Y401214D01*
X174703Y401275D01*
X174626Y401340D01*
X174552Y401408D01*
X174480Y401478D01*
X174411Y401551D01*
X174344Y401627D01*
X174281Y401706D01*
X174221Y401786D01*
X174164Y401869D01*
X174110Y401955D01*
X174060Y402042D01*
X174013Y402131D01*
X173970Y402222D01*
X173930Y402314D01*
X173894Y402408D01*
X173861Y402503D01*
X173832Y402600D01*
X173807Y402697D01*
X173786Y402796D01*
X173768Y402895D01*
X173755Y402995D01*
X173745Y403095D01*
X173739Y403195D01*
X173737Y403296D01*
X184517Y400050D02*
X184520Y400280D01*
X184528Y400510D01*
X184542Y400739D01*
X184561Y400968D01*
X184586Y401197D01*
X184616Y401424D01*
X184651Y401652D01*
X184692Y401878D01*
X184738Y402103D01*
X184790Y402327D01*
X184847Y402549D01*
X184909Y402771D01*
X184977Y402990D01*
X185050Y403208D01*
X185128Y403425D01*
X185211Y403639D01*
X185299Y403851D01*
X185392Y404061D01*
X185491Y404269D01*
X185490Y404269D02*
X185523Y404359D01*
X185559Y404448D01*
X185599Y404536D01*
X185643Y404621D01*
X185690Y404705D01*
X185740Y404787D01*
X185794Y404867D01*
X185850Y404944D01*
X185910Y405020D01*
X185973Y405093D01*
X186038Y405163D01*
X186107Y405231D01*
X186178Y405295D01*
X186251Y405357D01*
X186327Y405416D01*
X186405Y405472D01*
X186486Y405525D01*
X186568Y405574D01*
X186652Y405620D01*
X186739Y405663D01*
X186826Y405702D01*
X186916Y405738D01*
X187006Y405770D01*
X187098Y405798D01*
X187191Y405823D01*
X187285Y405844D01*
X187379Y405861D01*
X187474Y405875D01*
X187570Y405884D01*
X187666Y405890D01*
X187762Y405892D01*
X187858Y405890D01*
X187954Y405884D01*
X188050Y405875D01*
X188145Y405861D01*
X188239Y405844D01*
X188333Y405823D01*
X188426Y405798D01*
X188518Y405770D01*
X188608Y405738D01*
X188698Y405702D01*
X188785Y405663D01*
X188872Y405620D01*
X188956Y405574D01*
X189038Y405525D01*
X189119Y405472D01*
X189197Y405416D01*
X189273Y405357D01*
X189346Y405295D01*
X189417Y405231D01*
X189486Y405163D01*
X189551Y405093D01*
X189614Y405020D01*
X189674Y404944D01*
X189730Y404867D01*
X189784Y404787D01*
X189834Y404705D01*
X189881Y404621D01*
X189925Y404536D01*
X189965Y404448D01*
X190001Y404359D01*
X190034Y404269D01*
X190035Y404269D02*
X190134Y404062D01*
X190227Y403852D01*
X190315Y403639D01*
X190398Y403425D01*
X190476Y403209D01*
X190549Y402991D01*
X190617Y402771D01*
X190679Y402550D01*
X190736Y402327D01*
X190788Y402103D01*
X190834Y401878D01*
X190875Y401652D01*
X190910Y401425D01*
X190940Y401197D01*
X190965Y400968D01*
X190984Y400739D01*
X190998Y400510D01*
X191006Y400280D01*
X191009Y400050D01*
X184517Y400050D02*
X184520Y399820D01*
X184528Y399590D01*
X184542Y399361D01*
X184561Y399132D01*
X184586Y398903D01*
X184616Y398675D01*
X184651Y398448D01*
X184692Y398222D01*
X184738Y397997D01*
X184790Y397773D01*
X184847Y397550D01*
X184909Y397329D01*
X184977Y397109D01*
X185050Y396891D01*
X185128Y396675D01*
X185211Y396461D01*
X185299Y396249D01*
X185392Y396038D01*
X185491Y395831D01*
X185490Y395831D02*
X185523Y395741D01*
X185559Y395652D01*
X185600Y395564D01*
X185643Y395479D01*
X185690Y395395D01*
X185740Y395313D01*
X185794Y395233D01*
X185850Y395156D01*
X185910Y395080D01*
X185973Y395007D01*
X186038Y394937D01*
X186107Y394869D01*
X186178Y394805D01*
X186251Y394743D01*
X186327Y394684D01*
X186405Y394628D01*
X186486Y394575D01*
X186568Y394526D01*
X186652Y394480D01*
X186739Y394437D01*
X186826Y394398D01*
X186916Y394362D01*
X187006Y394330D01*
X187098Y394302D01*
X187191Y394277D01*
X187285Y394256D01*
X187379Y394239D01*
X187474Y394225D01*
X187570Y394216D01*
X187666Y394210D01*
X187762Y394208D01*
X190034Y395831D02*
X190133Y396038D01*
X190226Y396249D01*
X190314Y396461D01*
X190397Y396675D01*
X190475Y396891D01*
X190548Y397109D01*
X190616Y397329D01*
X190678Y397550D01*
X190735Y397773D01*
X190787Y397997D01*
X190833Y398222D01*
X190874Y398448D01*
X190909Y398675D01*
X190939Y398903D01*
X190964Y399132D01*
X190983Y399361D01*
X190997Y399590D01*
X191005Y399820D01*
X191008Y400050D01*
X190034Y395831D02*
X190001Y395741D01*
X189965Y395652D01*
X189925Y395564D01*
X189881Y395479D01*
X189834Y395395D01*
X189784Y395313D01*
X189730Y395233D01*
X189674Y395156D01*
X189614Y395080D01*
X189551Y395007D01*
X189486Y394937D01*
X189417Y394869D01*
X189346Y394805D01*
X189273Y394743D01*
X189197Y394684D01*
X189119Y394628D01*
X189038Y394575D01*
X188956Y394526D01*
X188872Y394480D01*
X188785Y394437D01*
X188698Y394398D01*
X188608Y394362D01*
X188518Y394330D01*
X188426Y394302D01*
X188333Y394277D01*
X188239Y394256D01*
X188145Y394239D01*
X188050Y394225D01*
X187954Y394216D01*
X187858Y394210D01*
X187762Y394208D01*
X185166Y396804D02*
X190359Y403296D01*
X196060Y398752D02*
X203849Y398752D01*
X208901Y403296D02*
X212146Y405892D01*
X212146Y394208D01*
X208901Y394208D02*
X215392Y394208D01*
D11*
X96339Y444500D02*
X96344Y444941D01*
X96361Y445381D01*
X96388Y445821D01*
X96425Y446260D01*
X96474Y446699D01*
X96533Y447135D01*
X96603Y447571D01*
X96684Y448004D01*
X96775Y448435D01*
X96877Y448864D01*
X96990Y449290D01*
X97112Y449714D01*
X97246Y450134D01*
X97389Y450551D01*
X97543Y450964D01*
X97706Y451373D01*
X97880Y451779D01*
X98063Y452179D01*
X98257Y452575D01*
X98460Y452967D01*
X98672Y453353D01*
X98894Y453734D01*
X99126Y454109D01*
X99366Y454479D01*
X99615Y454842D01*
X99874Y455199D01*
X100141Y455550D01*
X100416Y455894D01*
X100700Y456232D01*
X100992Y456562D01*
X101292Y456885D01*
X101600Y457200D01*
X101915Y457508D01*
X102238Y457808D01*
X102568Y458100D01*
X102906Y458384D01*
X103250Y458659D01*
X103601Y458926D01*
X103958Y459185D01*
X104321Y459434D01*
X104691Y459674D01*
X105066Y459906D01*
X105447Y460128D01*
X105833Y460340D01*
X106225Y460543D01*
X106621Y460737D01*
X107021Y460920D01*
X107427Y461094D01*
X107836Y461257D01*
X108249Y461411D01*
X108666Y461554D01*
X109086Y461688D01*
X109510Y461810D01*
X109936Y461923D01*
X110365Y462025D01*
X110796Y462116D01*
X111229Y462197D01*
X111665Y462267D01*
X112101Y462326D01*
X112540Y462375D01*
X112979Y462412D01*
X113419Y462439D01*
X113859Y462456D01*
X114300Y462461D01*
X114741Y462456D01*
X115181Y462439D01*
X115621Y462412D01*
X116060Y462375D01*
X116499Y462326D01*
X116935Y462267D01*
X117371Y462197D01*
X117804Y462116D01*
X118235Y462025D01*
X118664Y461923D01*
X119090Y461810D01*
X119514Y461688D01*
X119934Y461554D01*
X120351Y461411D01*
X120764Y461257D01*
X121173Y461094D01*
X121579Y460920D01*
X121979Y460737D01*
X122375Y460543D01*
X122767Y460340D01*
X123153Y460128D01*
X123534Y459906D01*
X123909Y459674D01*
X124279Y459434D01*
X124642Y459185D01*
X124999Y458926D01*
X125350Y458659D01*
X125694Y458384D01*
X126032Y458100D01*
X126362Y457808D01*
X126685Y457508D01*
X127000Y457200D01*
X127308Y456885D01*
X127608Y456562D01*
X127900Y456232D01*
X128184Y455894D01*
X128459Y455550D01*
X128726Y455199D01*
X128985Y454842D01*
X129234Y454479D01*
X129474Y454109D01*
X129706Y453734D01*
X129928Y453353D01*
X130140Y452967D01*
X130343Y452575D01*
X130537Y452179D01*
X130720Y451779D01*
X130894Y451373D01*
X131057Y450964D01*
X131211Y450551D01*
X131354Y450134D01*
X131488Y449714D01*
X131610Y449290D01*
X131723Y448864D01*
X131825Y448435D01*
X131916Y448004D01*
X131997Y447571D01*
X132067Y447135D01*
X132126Y446699D01*
X132175Y446260D01*
X132212Y445821D01*
X132239Y445381D01*
X132256Y444941D01*
X132261Y444500D01*
X132256Y444059D01*
X132239Y443619D01*
X132212Y443179D01*
X132175Y442740D01*
X132126Y442301D01*
X132067Y441865D01*
X131997Y441429D01*
X131916Y440996D01*
X131825Y440565D01*
X131723Y440136D01*
X131610Y439710D01*
X131488Y439286D01*
X131354Y438866D01*
X131211Y438449D01*
X131057Y438036D01*
X130894Y437627D01*
X130720Y437221D01*
X130537Y436821D01*
X130343Y436425D01*
X130140Y436033D01*
X129928Y435647D01*
X129706Y435266D01*
X129474Y434891D01*
X129234Y434521D01*
X128985Y434158D01*
X128726Y433801D01*
X128459Y433450D01*
X128184Y433106D01*
X127900Y432768D01*
X127608Y432438D01*
X127308Y432115D01*
X127000Y431800D01*
X126685Y431492D01*
X126362Y431192D01*
X126032Y430900D01*
X125694Y430616D01*
X125350Y430341D01*
X124999Y430074D01*
X124642Y429815D01*
X124279Y429566D01*
X123909Y429326D01*
X123534Y429094D01*
X123153Y428872D01*
X122767Y428660D01*
X122375Y428457D01*
X121979Y428263D01*
X121579Y428080D01*
X121173Y427906D01*
X120764Y427743D01*
X120351Y427589D01*
X119934Y427446D01*
X119514Y427312D01*
X119090Y427190D01*
X118664Y427077D01*
X118235Y426975D01*
X117804Y426884D01*
X117371Y426803D01*
X116935Y426733D01*
X116499Y426674D01*
X116060Y426625D01*
X115621Y426588D01*
X115181Y426561D01*
X114741Y426544D01*
X114300Y426539D01*
X113859Y426544D01*
X113419Y426561D01*
X112979Y426588D01*
X112540Y426625D01*
X112101Y426674D01*
X111665Y426733D01*
X111229Y426803D01*
X110796Y426884D01*
X110365Y426975D01*
X109936Y427077D01*
X109510Y427190D01*
X109086Y427312D01*
X108666Y427446D01*
X108249Y427589D01*
X107836Y427743D01*
X107427Y427906D01*
X107021Y428080D01*
X106621Y428263D01*
X106225Y428457D01*
X105833Y428660D01*
X105447Y428872D01*
X105066Y429094D01*
X104691Y429326D01*
X104321Y429566D01*
X103958Y429815D01*
X103601Y430074D01*
X103250Y430341D01*
X102906Y430616D01*
X102568Y430900D01*
X102238Y431192D01*
X101915Y431492D01*
X101600Y431800D01*
X101292Y432115D01*
X100992Y432438D01*
X100700Y432768D01*
X100416Y433106D01*
X100141Y433450D01*
X99874Y433801D01*
X99615Y434158D01*
X99366Y434521D01*
X99126Y434891D01*
X98894Y435266D01*
X98672Y435647D01*
X98460Y436033D01*
X98257Y436425D01*
X98063Y436821D01*
X97880Y437221D01*
X97706Y437627D01*
X97543Y438036D01*
X97389Y438449D01*
X97246Y438866D01*
X97112Y439286D01*
X96990Y439710D01*
X96877Y440136D01*
X96775Y440565D01*
X96684Y440996D01*
X96603Y441429D01*
X96533Y441865D01*
X96474Y442301D01*
X96425Y442740D01*
X96388Y443179D01*
X96361Y443619D01*
X96344Y444059D01*
X96339Y444500D01*
X317500Y457200D02*
X317500Y469900D01*
X317500Y482600D01*
X317500Y495300D01*
X393700Y495300D01*
X393700Y482600D01*
X393700Y469900D01*
X393700Y457200D01*
X317500Y457200D01*
D12*
X292608Y521208D02*
X292608Y532892D01*
X295854Y532892D01*
X295967Y532890D01*
X296080Y532884D01*
X296193Y532874D01*
X296306Y532860D01*
X296418Y532843D01*
X296529Y532821D01*
X296639Y532796D01*
X296749Y532766D01*
X296857Y532733D01*
X296964Y532696D01*
X297070Y532656D01*
X297174Y532611D01*
X297277Y532563D01*
X297378Y532512D01*
X297477Y532457D01*
X297574Y532399D01*
X297669Y532337D01*
X297762Y532272D01*
X297852Y532204D01*
X297940Y532133D01*
X298026Y532058D01*
X298109Y531981D01*
X298189Y531901D01*
X298266Y531818D01*
X298341Y531732D01*
X298412Y531644D01*
X298480Y531554D01*
X298545Y531461D01*
X298607Y531366D01*
X298665Y531269D01*
X298720Y531170D01*
X298771Y531069D01*
X298819Y530966D01*
X298864Y530862D01*
X298904Y530756D01*
X298941Y530649D01*
X298974Y530541D01*
X299004Y530431D01*
X299029Y530321D01*
X299051Y530210D01*
X299068Y530098D01*
X299082Y529985D01*
X299092Y529872D01*
X299098Y529759D01*
X299100Y529646D01*
X299098Y529533D01*
X299092Y529420D01*
X299082Y529307D01*
X299068Y529194D01*
X299051Y529082D01*
X299029Y528971D01*
X299004Y528861D01*
X298974Y528751D01*
X298941Y528643D01*
X298904Y528536D01*
X298864Y528430D01*
X298819Y528326D01*
X298771Y528223D01*
X298720Y528122D01*
X298665Y528023D01*
X298607Y527926D01*
X298545Y527831D01*
X298480Y527738D01*
X298412Y527648D01*
X298341Y527560D01*
X298266Y527474D01*
X298189Y527391D01*
X298109Y527311D01*
X298026Y527234D01*
X297940Y527159D01*
X297852Y527088D01*
X297762Y527020D01*
X297669Y526955D01*
X297574Y526893D01*
X297477Y526835D01*
X297378Y526780D01*
X297277Y526729D01*
X297174Y526681D01*
X297070Y526636D01*
X296964Y526596D01*
X296857Y526559D01*
X296749Y526526D01*
X296639Y526496D01*
X296529Y526471D01*
X296418Y526449D01*
X296306Y526432D01*
X296193Y526418D01*
X296080Y526408D01*
X295967Y526402D01*
X295854Y526400D01*
X295854Y526401D02*
X292608Y526401D01*
X303982Y521208D02*
X303982Y532892D01*
X307876Y526401D01*
X311771Y532892D01*
X311771Y521208D01*
X320717Y521208D02*
X320816Y521210D01*
X320916Y521216D01*
X321015Y521225D01*
X321113Y521238D01*
X321211Y521255D01*
X321309Y521276D01*
X321405Y521301D01*
X321500Y521329D01*
X321594Y521361D01*
X321687Y521396D01*
X321779Y521435D01*
X321869Y521478D01*
X321957Y521523D01*
X322044Y521573D01*
X322128Y521625D01*
X322211Y521681D01*
X322291Y521739D01*
X322369Y521801D01*
X322444Y521866D01*
X322517Y521934D01*
X322587Y522004D01*
X322655Y522077D01*
X322720Y522152D01*
X322782Y522230D01*
X322840Y522310D01*
X322896Y522393D01*
X322948Y522477D01*
X322998Y522564D01*
X323043Y522652D01*
X323086Y522742D01*
X323125Y522834D01*
X323160Y522927D01*
X323192Y523021D01*
X323220Y523116D01*
X323245Y523212D01*
X323266Y523310D01*
X323283Y523408D01*
X323296Y523506D01*
X323305Y523605D01*
X323311Y523705D01*
X323313Y523804D01*
X320717Y521208D02*
X320573Y521210D01*
X320428Y521216D01*
X320284Y521225D01*
X320141Y521238D01*
X319997Y521255D01*
X319854Y521276D01*
X319712Y521301D01*
X319571Y521329D01*
X319430Y521361D01*
X319290Y521397D01*
X319151Y521436D01*
X319013Y521479D01*
X318877Y521526D01*
X318741Y521576D01*
X318607Y521630D01*
X318475Y521687D01*
X318344Y521748D01*
X318215Y521812D01*
X318087Y521880D01*
X317961Y521950D01*
X317837Y522025D01*
X317716Y522102D01*
X317596Y522183D01*
X317478Y522266D01*
X317363Y522353D01*
X317250Y522443D01*
X317139Y522536D01*
X317031Y522631D01*
X316925Y522730D01*
X316822Y522831D01*
X317148Y530296D02*
X317150Y530395D01*
X317156Y530495D01*
X317165Y530594D01*
X317178Y530692D01*
X317195Y530790D01*
X317216Y530888D01*
X317241Y530984D01*
X317269Y531079D01*
X317301Y531173D01*
X317336Y531266D01*
X317375Y531358D01*
X317418Y531448D01*
X317463Y531536D01*
X317513Y531623D01*
X317565Y531707D01*
X317621Y531790D01*
X317679Y531870D01*
X317741Y531948D01*
X317806Y532023D01*
X317874Y532096D01*
X317944Y532166D01*
X318017Y532234D01*
X318092Y532299D01*
X318170Y532361D01*
X318250Y532419D01*
X318333Y532475D01*
X318417Y532527D01*
X318504Y532577D01*
X318592Y532622D01*
X318682Y532665D01*
X318774Y532704D01*
X318867Y532739D01*
X318961Y532771D01*
X319056Y532799D01*
X319153Y532824D01*
X319250Y532845D01*
X319348Y532862D01*
X319446Y532875D01*
X319545Y532884D01*
X319645Y532890D01*
X319744Y532892D01*
X319880Y532890D01*
X320016Y532884D01*
X320152Y532875D01*
X320288Y532862D01*
X320423Y532844D01*
X320557Y532824D01*
X320691Y532799D01*
X320825Y532771D01*
X320957Y532738D01*
X321088Y532703D01*
X321219Y532663D01*
X321348Y532620D01*
X321476Y532574D01*
X321602Y532523D01*
X321728Y532470D01*
X321851Y532412D01*
X321973Y532352D01*
X322093Y532288D01*
X322212Y532220D01*
X322328Y532150D01*
X322442Y532076D01*
X322555Y531999D01*
X322665Y531918D01*
X318445Y528024D02*
X318359Y528077D01*
X318275Y528134D01*
X318193Y528193D01*
X318113Y528256D01*
X318036Y528322D01*
X317961Y528390D01*
X317889Y528462D01*
X317820Y528536D01*
X317754Y528613D01*
X317691Y528692D01*
X317631Y528774D01*
X317574Y528858D01*
X317520Y528944D01*
X317470Y529032D01*
X317423Y529122D01*
X317379Y529213D01*
X317340Y529307D01*
X317303Y529401D01*
X317271Y529497D01*
X317242Y529595D01*
X317217Y529693D01*
X317196Y529792D01*
X317178Y529892D01*
X317165Y529992D01*
X317155Y530093D01*
X317149Y530195D01*
X317147Y530296D01*
X322016Y526076D02*
X322102Y526023D01*
X322186Y525966D01*
X322268Y525907D01*
X322348Y525844D01*
X322425Y525778D01*
X322500Y525710D01*
X322572Y525638D01*
X322641Y525564D01*
X322707Y525487D01*
X322770Y525408D01*
X322830Y525326D01*
X322887Y525242D01*
X322941Y525156D01*
X322991Y525068D01*
X323038Y524978D01*
X323082Y524887D01*
X323121Y524793D01*
X323158Y524699D01*
X323190Y524603D01*
X323219Y524505D01*
X323244Y524407D01*
X323265Y524308D01*
X323283Y524208D01*
X323296Y524108D01*
X323306Y524007D01*
X323312Y523905D01*
X323314Y523804D01*
X322016Y526076D02*
X318445Y528024D01*
X327872Y530296D02*
X331117Y532892D01*
X331117Y521208D01*
X327872Y521208D02*
X334363Y521208D01*
D11*
X444500Y546100D02*
X444500Y38100D01*
X76200Y38100D01*
X76200Y546100D01*
X444500Y546100D01*
X317500Y469900D02*
X304800Y469900D01*
X304800Y444500D01*
X406400Y444500D01*
X406400Y469900D01*
X393700Y469900D01*
X393700Y482600D02*
X406400Y482600D01*
X406400Y508000D01*
X304800Y508000D01*
X304800Y482600D01*
X317500Y482600D01*
X292100Y520700D02*
X292100Y431800D01*
X292100Y520700D02*
X419100Y520700D01*
X419100Y431800D01*
X292100Y431800D01*
X294900Y380760D02*
X294900Y322760D01*
X134900Y322760D02*
X134900Y380760D01*
X294900Y380760D01*
X294900Y322760D02*
X134900Y322760D01*
D12*
X178308Y200152D02*
X181243Y186944D01*
X184178Y195749D01*
X187113Y186944D01*
X190048Y200152D01*
X197099Y186944D02*
X200768Y186944D01*
X197099Y186944D02*
X197008Y186946D01*
X196917Y186952D01*
X196827Y186961D01*
X196737Y186974D01*
X196647Y186991D01*
X196559Y187011D01*
X196471Y187036D01*
X196384Y187063D01*
X196299Y187095D01*
X196215Y187129D01*
X196132Y187168D01*
X196051Y187209D01*
X195972Y187254D01*
X195895Y187302D01*
X195820Y187354D01*
X195747Y187408D01*
X195676Y187465D01*
X195608Y187526D01*
X195543Y187589D01*
X195480Y187654D01*
X195419Y187722D01*
X195362Y187793D01*
X195308Y187866D01*
X195256Y187941D01*
X195208Y188018D01*
X195163Y188097D01*
X195122Y188178D01*
X195083Y188261D01*
X195049Y188345D01*
X195017Y188430D01*
X194990Y188517D01*
X194965Y188605D01*
X194945Y188693D01*
X194928Y188783D01*
X194915Y188873D01*
X194906Y188963D01*
X194900Y189054D01*
X194898Y189145D01*
X194898Y192814D01*
X194900Y192921D01*
X194906Y193028D01*
X194916Y193135D01*
X194929Y193241D01*
X194947Y193347D01*
X194968Y193452D01*
X194993Y193556D01*
X195022Y193660D01*
X195055Y193762D01*
X195092Y193862D01*
X195132Y193962D01*
X195176Y194060D01*
X195223Y194156D01*
X195274Y194250D01*
X195328Y194343D01*
X195385Y194433D01*
X195446Y194522D01*
X195510Y194608D01*
X195577Y194691D01*
X195647Y194773D01*
X195720Y194851D01*
X195796Y194927D01*
X195874Y195000D01*
X195956Y195070D01*
X196039Y195137D01*
X196125Y195201D01*
X196214Y195262D01*
X196304Y195319D01*
X196397Y195373D01*
X196491Y195424D01*
X196587Y195471D01*
X196685Y195515D01*
X196785Y195555D01*
X196885Y195592D01*
X196987Y195625D01*
X197091Y195654D01*
X197195Y195679D01*
X197300Y195700D01*
X197406Y195718D01*
X197512Y195731D01*
X197619Y195741D01*
X197726Y195747D01*
X197833Y195749D01*
X197940Y195747D01*
X198047Y195741D01*
X198154Y195731D01*
X198260Y195718D01*
X198366Y195700D01*
X198471Y195679D01*
X198575Y195654D01*
X198679Y195625D01*
X198781Y195592D01*
X198881Y195555D01*
X198981Y195515D01*
X199079Y195471D01*
X199175Y195424D01*
X199269Y195373D01*
X199362Y195319D01*
X199452Y195262D01*
X199541Y195201D01*
X199627Y195137D01*
X199710Y195070D01*
X199792Y195000D01*
X199870Y194927D01*
X199946Y194851D01*
X200019Y194773D01*
X200089Y194691D01*
X200156Y194608D01*
X200220Y194522D01*
X200281Y194433D01*
X200338Y194343D01*
X200392Y194250D01*
X200443Y194156D01*
X200490Y194060D01*
X200534Y193962D01*
X200574Y193862D01*
X200611Y193762D01*
X200644Y193660D01*
X200673Y193556D01*
X200698Y193452D01*
X200719Y193347D01*
X200737Y193241D01*
X200750Y193135D01*
X200760Y193028D01*
X200766Y192921D01*
X200768Y192814D01*
X200768Y191347D01*
X194898Y191347D01*
X206659Y186944D02*
X206659Y200152D01*
X211062Y192814D01*
X215464Y200152D01*
X215464Y186944D01*
X221355Y189879D02*
X221355Y192814D01*
X221357Y192921D01*
X221363Y193028D01*
X221373Y193135D01*
X221386Y193241D01*
X221404Y193347D01*
X221425Y193452D01*
X221450Y193556D01*
X221479Y193660D01*
X221512Y193762D01*
X221549Y193862D01*
X221589Y193962D01*
X221633Y194060D01*
X221680Y194156D01*
X221731Y194250D01*
X221785Y194343D01*
X221842Y194433D01*
X221903Y194522D01*
X221967Y194608D01*
X222034Y194691D01*
X222104Y194773D01*
X222177Y194851D01*
X222253Y194927D01*
X222331Y195000D01*
X222413Y195070D01*
X222496Y195137D01*
X222582Y195201D01*
X222671Y195262D01*
X222761Y195319D01*
X222854Y195373D01*
X222948Y195424D01*
X223044Y195471D01*
X223142Y195515D01*
X223242Y195555D01*
X223342Y195592D01*
X223444Y195625D01*
X223548Y195654D01*
X223652Y195679D01*
X223757Y195700D01*
X223863Y195718D01*
X223969Y195731D01*
X224076Y195741D01*
X224183Y195747D01*
X224290Y195749D01*
X224397Y195747D01*
X224504Y195741D01*
X224611Y195731D01*
X224717Y195718D01*
X224823Y195700D01*
X224928Y195679D01*
X225032Y195654D01*
X225136Y195625D01*
X225238Y195592D01*
X225338Y195555D01*
X225438Y195515D01*
X225536Y195471D01*
X225632Y195424D01*
X225726Y195373D01*
X225819Y195319D01*
X225909Y195262D01*
X225998Y195201D01*
X226084Y195137D01*
X226167Y195070D01*
X226249Y195000D01*
X226327Y194927D01*
X226403Y194851D01*
X226476Y194773D01*
X226546Y194691D01*
X226613Y194608D01*
X226677Y194522D01*
X226738Y194433D01*
X226795Y194343D01*
X226849Y194250D01*
X226900Y194156D01*
X226947Y194060D01*
X226991Y193962D01*
X227031Y193862D01*
X227068Y193762D01*
X227101Y193660D01*
X227130Y193556D01*
X227155Y193452D01*
X227176Y193347D01*
X227194Y193241D01*
X227207Y193135D01*
X227217Y193028D01*
X227223Y192921D01*
X227225Y192814D01*
X227225Y189879D01*
X227223Y189772D01*
X227217Y189665D01*
X227207Y189558D01*
X227194Y189452D01*
X227176Y189346D01*
X227155Y189241D01*
X227130Y189137D01*
X227101Y189033D01*
X227068Y188931D01*
X227031Y188831D01*
X226991Y188731D01*
X226947Y188633D01*
X226900Y188537D01*
X226849Y188443D01*
X226795Y188350D01*
X226738Y188260D01*
X226677Y188171D01*
X226613Y188085D01*
X226546Y188002D01*
X226476Y187920D01*
X226403Y187842D01*
X226327Y187766D01*
X226249Y187693D01*
X226167Y187623D01*
X226084Y187556D01*
X225998Y187492D01*
X225909Y187431D01*
X225819Y187374D01*
X225726Y187320D01*
X225632Y187269D01*
X225536Y187222D01*
X225438Y187178D01*
X225338Y187138D01*
X225238Y187101D01*
X225136Y187068D01*
X225032Y187039D01*
X224928Y187014D01*
X224823Y186993D01*
X224717Y186975D01*
X224611Y186962D01*
X224504Y186952D01*
X224397Y186946D01*
X224290Y186944D01*
X224183Y186946D01*
X224076Y186952D01*
X223969Y186962D01*
X223863Y186975D01*
X223757Y186993D01*
X223652Y187014D01*
X223548Y187039D01*
X223444Y187068D01*
X223342Y187101D01*
X223242Y187138D01*
X223142Y187178D01*
X223044Y187222D01*
X222948Y187269D01*
X222854Y187320D01*
X222761Y187374D01*
X222671Y187431D01*
X222582Y187492D01*
X222496Y187556D01*
X222413Y187623D01*
X222331Y187693D01*
X222253Y187766D01*
X222177Y187842D01*
X222104Y187920D01*
X222034Y188002D01*
X221967Y188085D01*
X221903Y188171D01*
X221842Y188260D01*
X221785Y188350D01*
X221731Y188443D01*
X221680Y188537D01*
X221633Y188633D01*
X221589Y188731D01*
X221549Y188831D01*
X221512Y188931D01*
X221479Y189033D01*
X221450Y189137D01*
X221425Y189241D01*
X221404Y189346D01*
X221386Y189452D01*
X221373Y189558D01*
X221363Y189665D01*
X221357Y189772D01*
X221355Y189879D01*
X233550Y192080D02*
X237219Y190613D01*
X233550Y192080D02*
X233471Y192114D01*
X233393Y192152D01*
X233316Y192193D01*
X233242Y192237D01*
X233170Y192285D01*
X233100Y192336D01*
X233033Y192390D01*
X232968Y192447D01*
X232905Y192508D01*
X232846Y192570D01*
X232789Y192636D01*
X232736Y192704D01*
X232685Y192774D01*
X232638Y192847D01*
X232594Y192922D01*
X232554Y192998D01*
X232517Y193077D01*
X232484Y193156D01*
X232454Y193238D01*
X232428Y193320D01*
X232406Y193404D01*
X232388Y193489D01*
X232374Y193574D01*
X232363Y193660D01*
X232357Y193746D01*
X232354Y193833D01*
X232355Y193920D01*
X232361Y194006D01*
X232370Y194092D01*
X232383Y194178D01*
X232400Y194263D01*
X232421Y194347D01*
X232445Y194430D01*
X232474Y194511D01*
X232506Y194592D01*
X232541Y194671D01*
X232581Y194748D01*
X232623Y194823D01*
X232670Y194896D01*
X232719Y194968D01*
X232771Y195036D01*
X232827Y195103D01*
X232886Y195166D01*
X232947Y195227D01*
X233011Y195286D01*
X233078Y195341D01*
X233147Y195393D01*
X233219Y195442D01*
X233292Y195487D01*
X233368Y195529D01*
X233445Y195568D01*
X233524Y195603D01*
X233605Y195635D01*
X233687Y195663D01*
X233770Y195687D01*
X233854Y195707D01*
X233939Y195723D01*
X234025Y195736D01*
X234111Y195744D01*
X234198Y195749D01*
X234284Y195750D01*
X234284Y195749D02*
X234484Y195744D01*
X234684Y195734D01*
X234884Y195719D01*
X235084Y195699D01*
X235283Y195675D01*
X235481Y195645D01*
X235678Y195611D01*
X235875Y195573D01*
X236070Y195529D01*
X236265Y195481D01*
X236458Y195428D01*
X236650Y195371D01*
X236841Y195309D01*
X237030Y195242D01*
X237217Y195171D01*
X237402Y195095D01*
X237586Y195015D01*
X237219Y190613D02*
X237298Y190579D01*
X237376Y190541D01*
X237453Y190500D01*
X237527Y190456D01*
X237599Y190408D01*
X237669Y190357D01*
X237736Y190303D01*
X237801Y190246D01*
X237864Y190185D01*
X237923Y190123D01*
X237980Y190057D01*
X238033Y189989D01*
X238084Y189919D01*
X238131Y189846D01*
X238175Y189771D01*
X238215Y189695D01*
X238252Y189616D01*
X238285Y189537D01*
X238315Y189455D01*
X238341Y189373D01*
X238363Y189289D01*
X238381Y189204D01*
X238395Y189119D01*
X238406Y189033D01*
X238412Y188947D01*
X238415Y188860D01*
X238414Y188773D01*
X238408Y188687D01*
X238399Y188601D01*
X238386Y188515D01*
X238369Y188430D01*
X238348Y188346D01*
X238324Y188263D01*
X238295Y188182D01*
X238263Y188101D01*
X238228Y188022D01*
X238188Y187945D01*
X238146Y187870D01*
X238099Y187797D01*
X238050Y187725D01*
X237998Y187657D01*
X237942Y187590D01*
X237883Y187527D01*
X237822Y187466D01*
X237758Y187407D01*
X237691Y187352D01*
X237622Y187300D01*
X237550Y187251D01*
X237477Y187206D01*
X237401Y187164D01*
X237324Y187125D01*
X237245Y187090D01*
X237164Y187058D01*
X237082Y187030D01*
X236999Y187006D01*
X236915Y186986D01*
X236830Y186970D01*
X236744Y186957D01*
X236658Y186949D01*
X236571Y186944D01*
X236485Y186943D01*
X236485Y186944D02*
X236191Y186952D01*
X235897Y186967D01*
X235603Y186988D01*
X235310Y187017D01*
X235018Y187052D01*
X234727Y187095D01*
X234437Y187144D01*
X234148Y187200D01*
X233860Y187263D01*
X233574Y187332D01*
X233290Y187409D01*
X233008Y187492D01*
X232728Y187582D01*
X232449Y187678D01*
X243125Y187678D02*
X243125Y186944D01*
X243125Y187678D02*
X243859Y187678D01*
X243859Y186944D01*
X243125Y186944D01*
X250880Y186944D02*
X253815Y186944D01*
X250880Y186944D02*
X250789Y186946D01*
X250698Y186952D01*
X250608Y186961D01*
X250518Y186974D01*
X250428Y186991D01*
X250340Y187011D01*
X250252Y187036D01*
X250165Y187063D01*
X250080Y187095D01*
X249996Y187129D01*
X249913Y187168D01*
X249832Y187209D01*
X249753Y187254D01*
X249676Y187302D01*
X249601Y187354D01*
X249528Y187408D01*
X249457Y187465D01*
X249389Y187526D01*
X249324Y187589D01*
X249261Y187654D01*
X249200Y187722D01*
X249143Y187793D01*
X249089Y187866D01*
X249037Y187941D01*
X248989Y188018D01*
X248944Y188097D01*
X248903Y188178D01*
X248864Y188261D01*
X248830Y188345D01*
X248798Y188430D01*
X248771Y188517D01*
X248746Y188605D01*
X248726Y188693D01*
X248709Y188783D01*
X248696Y188873D01*
X248687Y188963D01*
X248681Y189054D01*
X248679Y189145D01*
X248679Y193548D01*
X248681Y193639D01*
X248687Y193730D01*
X248696Y193820D01*
X248709Y193910D01*
X248726Y194000D01*
X248746Y194088D01*
X248771Y194176D01*
X248798Y194263D01*
X248830Y194348D01*
X248864Y194432D01*
X248903Y194515D01*
X248944Y194596D01*
X248989Y194675D01*
X249037Y194752D01*
X249089Y194827D01*
X249143Y194900D01*
X249200Y194971D01*
X249261Y195039D01*
X249324Y195104D01*
X249389Y195167D01*
X249457Y195228D01*
X249528Y195285D01*
X249601Y195339D01*
X249676Y195391D01*
X249753Y195439D01*
X249832Y195484D01*
X249913Y195525D01*
X249996Y195564D01*
X250080Y195598D01*
X250165Y195630D01*
X250252Y195657D01*
X250340Y195682D01*
X250428Y195702D01*
X250518Y195719D01*
X250608Y195732D01*
X250698Y195741D01*
X250789Y195747D01*
X250880Y195749D01*
X253815Y195749D01*
X260695Y186944D02*
X263630Y186944D01*
X260695Y186944D02*
X260604Y186946D01*
X260513Y186952D01*
X260423Y186961D01*
X260333Y186974D01*
X260243Y186991D01*
X260155Y187011D01*
X260067Y187036D01*
X259980Y187063D01*
X259895Y187095D01*
X259811Y187129D01*
X259728Y187168D01*
X259647Y187209D01*
X259568Y187254D01*
X259491Y187302D01*
X259416Y187354D01*
X259343Y187408D01*
X259272Y187465D01*
X259204Y187526D01*
X259139Y187589D01*
X259076Y187654D01*
X259015Y187722D01*
X258958Y187793D01*
X258904Y187866D01*
X258852Y187941D01*
X258804Y188018D01*
X258759Y188097D01*
X258718Y188178D01*
X258679Y188261D01*
X258645Y188345D01*
X258613Y188430D01*
X258586Y188517D01*
X258561Y188605D01*
X258541Y188693D01*
X258524Y188783D01*
X258511Y188873D01*
X258502Y188963D01*
X258496Y189054D01*
X258494Y189145D01*
X258493Y189145D02*
X258493Y193548D01*
X258494Y193548D02*
X258496Y193639D01*
X258502Y193730D01*
X258511Y193820D01*
X258524Y193910D01*
X258541Y194000D01*
X258561Y194088D01*
X258586Y194176D01*
X258613Y194263D01*
X258645Y194348D01*
X258679Y194432D01*
X258718Y194515D01*
X258759Y194596D01*
X258804Y194675D01*
X258852Y194752D01*
X258904Y194827D01*
X258958Y194900D01*
X259015Y194971D01*
X259076Y195039D01*
X259139Y195104D01*
X259204Y195167D01*
X259272Y195228D01*
X259343Y195285D01*
X259416Y195339D01*
X259491Y195391D01*
X259568Y195439D01*
X259647Y195484D01*
X259728Y195525D01*
X259811Y195564D01*
X259895Y195598D01*
X259980Y195630D01*
X260067Y195657D01*
X260155Y195682D01*
X260243Y195702D01*
X260333Y195719D01*
X260423Y195732D01*
X260513Y195741D01*
X260604Y195747D01*
X260695Y195749D01*
X263630Y195749D01*
X178308Y178816D02*
X178308Y165608D01*
X178308Y178816D02*
X181977Y178816D01*
X182097Y178814D01*
X182217Y178808D01*
X182337Y178798D01*
X182456Y178785D01*
X182575Y178767D01*
X182693Y178746D01*
X182810Y178720D01*
X182927Y178691D01*
X183042Y178658D01*
X183156Y178621D01*
X183269Y178581D01*
X183381Y178537D01*
X183491Y178489D01*
X183600Y178438D01*
X183707Y178383D01*
X183812Y178324D01*
X183914Y178263D01*
X184015Y178198D01*
X184114Y178129D01*
X184211Y178058D01*
X184305Y177983D01*
X184396Y177906D01*
X184485Y177825D01*
X184571Y177741D01*
X184655Y177655D01*
X184736Y177566D01*
X184813Y177475D01*
X184888Y177381D01*
X184959Y177284D01*
X185028Y177185D01*
X185093Y177084D01*
X185154Y176982D01*
X185213Y176877D01*
X185268Y176770D01*
X185319Y176661D01*
X185367Y176551D01*
X185411Y176439D01*
X185451Y176326D01*
X185488Y176212D01*
X185521Y176097D01*
X185550Y175980D01*
X185576Y175863D01*
X185597Y175745D01*
X185615Y175626D01*
X185628Y175507D01*
X185638Y175387D01*
X185644Y175267D01*
X185646Y175147D01*
X185646Y169277D01*
X185644Y169157D01*
X185638Y169037D01*
X185628Y168917D01*
X185615Y168798D01*
X185597Y168679D01*
X185576Y168561D01*
X185550Y168444D01*
X185521Y168327D01*
X185488Y168212D01*
X185451Y168098D01*
X185411Y167985D01*
X185367Y167873D01*
X185319Y167763D01*
X185268Y167654D01*
X185213Y167547D01*
X185154Y167443D01*
X185093Y167340D01*
X185028Y167239D01*
X184959Y167140D01*
X184888Y167043D01*
X184813Y166949D01*
X184736Y166858D01*
X184655Y166769D01*
X184571Y166683D01*
X184485Y166599D01*
X184396Y166518D01*
X184305Y166441D01*
X184211Y166366D01*
X184114Y166295D01*
X184015Y166226D01*
X183914Y166161D01*
X183812Y166100D01*
X183707Y166041D01*
X183600Y165986D01*
X183491Y165935D01*
X183381Y165887D01*
X183269Y165843D01*
X183156Y165803D01*
X183042Y165766D01*
X182927Y165733D01*
X182810Y165704D01*
X182693Y165678D01*
X182575Y165657D01*
X182456Y165639D01*
X182337Y165626D01*
X182217Y165616D01*
X182097Y165610D01*
X181977Y165608D01*
X178308Y165608D01*
X191536Y175881D02*
X195205Y178816D01*
X195205Y165608D01*
X191536Y165608D02*
X198874Y165608D01*
X211712Y165608D02*
X211712Y174413D01*
X218316Y174413D01*
X218407Y174411D01*
X218498Y174405D01*
X218588Y174396D01*
X218678Y174383D01*
X218768Y174366D01*
X218856Y174346D01*
X218944Y174321D01*
X219031Y174294D01*
X219116Y174262D01*
X219200Y174228D01*
X219283Y174189D01*
X219364Y174148D01*
X219443Y174103D01*
X219520Y174055D01*
X219595Y174003D01*
X219668Y173949D01*
X219739Y173892D01*
X219807Y173831D01*
X219872Y173768D01*
X219935Y173703D01*
X219996Y173635D01*
X220053Y173564D01*
X220107Y173491D01*
X220159Y173416D01*
X220207Y173339D01*
X220252Y173260D01*
X220293Y173179D01*
X220332Y173096D01*
X220366Y173012D01*
X220398Y172927D01*
X220425Y172840D01*
X220450Y172752D01*
X220470Y172664D01*
X220487Y172574D01*
X220500Y172484D01*
X220509Y172394D01*
X220515Y172303D01*
X220517Y172212D01*
X220517Y165608D01*
X216114Y165608D02*
X216114Y174413D01*
X226356Y174413D02*
X226356Y165608D01*
X225989Y178082D02*
X225989Y178816D01*
X226723Y178816D01*
X226723Y178082D01*
X225989Y178082D01*
X231955Y174413D02*
X231955Y165608D01*
X231955Y174413D02*
X235624Y174413D01*
X235717Y174411D01*
X235811Y174405D01*
X235904Y174395D01*
X235996Y174381D01*
X236088Y174364D01*
X236179Y174342D01*
X236268Y174317D01*
X236357Y174287D01*
X236445Y174254D01*
X236531Y174218D01*
X236615Y174177D01*
X236697Y174134D01*
X236778Y174086D01*
X236856Y174036D01*
X236933Y173982D01*
X237007Y173924D01*
X237078Y173864D01*
X237147Y173801D01*
X237213Y173735D01*
X237276Y173666D01*
X237336Y173595D01*
X237394Y173521D01*
X237448Y173445D01*
X237498Y173366D01*
X237545Y173285D01*
X237589Y173203D01*
X237630Y173119D01*
X237666Y173033D01*
X237699Y172945D01*
X237729Y172857D01*
X237754Y172767D01*
X237776Y172676D01*
X237793Y172584D01*
X237807Y172492D01*
X237817Y172399D01*
X237823Y172305D01*
X237825Y172212D01*
X237825Y165608D01*
X243424Y165608D02*
X243424Y174413D01*
X243058Y178082D02*
X243058Y178816D01*
X243791Y178816D01*
X243791Y178082D01*
X243058Y178082D01*
X254438Y64516D02*
X257373Y51308D01*
X260308Y60113D01*
X263243Y51308D01*
X266179Y64516D01*
X271599Y51308D02*
X277469Y51308D01*
X271599Y51308D02*
X271599Y64516D01*
X277469Y64516D01*
X276001Y58646D02*
X271599Y58646D01*
X282789Y64516D02*
X282789Y51308D01*
X287192Y57178D02*
X282789Y64516D01*
X287192Y57178D02*
X291594Y64516D01*
X291594Y51308D01*
X297605Y54977D02*
X297605Y60847D01*
X297604Y60847D02*
X297606Y60967D01*
X297612Y61087D01*
X297622Y61207D01*
X297635Y61326D01*
X297653Y61445D01*
X297674Y61563D01*
X297700Y61680D01*
X297729Y61797D01*
X297762Y61912D01*
X297799Y62026D01*
X297839Y62139D01*
X297883Y62251D01*
X297931Y62361D01*
X297982Y62470D01*
X298037Y62577D01*
X298096Y62681D01*
X298157Y62784D01*
X298222Y62885D01*
X298291Y62984D01*
X298362Y63081D01*
X298437Y63175D01*
X298514Y63266D01*
X298595Y63355D01*
X298679Y63441D01*
X298765Y63525D01*
X298854Y63606D01*
X298945Y63683D01*
X299039Y63758D01*
X299136Y63829D01*
X299235Y63898D01*
X299336Y63963D01*
X299439Y64024D01*
X299543Y64083D01*
X299650Y64138D01*
X299759Y64189D01*
X299869Y64237D01*
X299981Y64281D01*
X300094Y64321D01*
X300208Y64358D01*
X300323Y64391D01*
X300440Y64420D01*
X300557Y64446D01*
X300675Y64467D01*
X300794Y64485D01*
X300913Y64498D01*
X301033Y64508D01*
X301153Y64514D01*
X301273Y64516D01*
X301393Y64514D01*
X301513Y64508D01*
X301633Y64498D01*
X301752Y64485D01*
X301871Y64467D01*
X301989Y64446D01*
X302106Y64420D01*
X302223Y64391D01*
X302338Y64358D01*
X302452Y64321D01*
X302565Y64281D01*
X302677Y64237D01*
X302787Y64189D01*
X302896Y64138D01*
X303003Y64083D01*
X303108Y64024D01*
X303210Y63963D01*
X303311Y63898D01*
X303410Y63829D01*
X303507Y63758D01*
X303601Y63683D01*
X303692Y63606D01*
X303781Y63525D01*
X303867Y63441D01*
X303951Y63355D01*
X304032Y63266D01*
X304109Y63175D01*
X304184Y63081D01*
X304255Y62984D01*
X304324Y62885D01*
X304389Y62784D01*
X304450Y62682D01*
X304509Y62577D01*
X304564Y62470D01*
X304615Y62361D01*
X304663Y62251D01*
X304707Y62139D01*
X304747Y62026D01*
X304784Y61912D01*
X304817Y61797D01*
X304846Y61680D01*
X304872Y61563D01*
X304893Y61445D01*
X304911Y61326D01*
X304924Y61207D01*
X304934Y61087D01*
X304940Y60967D01*
X304942Y60847D01*
X304942Y54977D01*
X304940Y54857D01*
X304934Y54737D01*
X304924Y54617D01*
X304911Y54498D01*
X304893Y54379D01*
X304872Y54261D01*
X304846Y54144D01*
X304817Y54027D01*
X304784Y53912D01*
X304747Y53798D01*
X304707Y53685D01*
X304663Y53573D01*
X304615Y53463D01*
X304564Y53354D01*
X304509Y53247D01*
X304450Y53143D01*
X304389Y53040D01*
X304324Y52939D01*
X304255Y52840D01*
X304184Y52743D01*
X304109Y52649D01*
X304032Y52558D01*
X303951Y52469D01*
X303867Y52383D01*
X303781Y52299D01*
X303692Y52218D01*
X303601Y52141D01*
X303507Y52066D01*
X303410Y51995D01*
X303311Y51926D01*
X303210Y51861D01*
X303108Y51800D01*
X303003Y51741D01*
X302896Y51686D01*
X302787Y51635D01*
X302677Y51587D01*
X302565Y51543D01*
X302452Y51503D01*
X302338Y51466D01*
X302223Y51433D01*
X302106Y51404D01*
X301989Y51378D01*
X301871Y51357D01*
X301752Y51339D01*
X301633Y51326D01*
X301513Y51316D01*
X301393Y51310D01*
X301273Y51308D01*
X301153Y51310D01*
X301033Y51316D01*
X300913Y51326D01*
X300794Y51339D01*
X300675Y51357D01*
X300557Y51378D01*
X300440Y51404D01*
X300323Y51433D01*
X300208Y51466D01*
X300094Y51503D01*
X299981Y51543D01*
X299869Y51587D01*
X299759Y51635D01*
X299650Y51686D01*
X299543Y51741D01*
X299439Y51800D01*
X299336Y51861D01*
X299235Y51926D01*
X299136Y51995D01*
X299039Y52066D01*
X298945Y52141D01*
X298854Y52218D01*
X298765Y52299D01*
X298679Y52383D01*
X298595Y52469D01*
X298514Y52558D01*
X298437Y52649D01*
X298362Y52743D01*
X298291Y52840D01*
X298222Y52939D01*
X298157Y53040D01*
X298096Y53142D01*
X298037Y53247D01*
X297982Y53354D01*
X297931Y53463D01*
X297883Y53573D01*
X297839Y53685D01*
X297799Y53798D01*
X297762Y53912D01*
X297729Y54027D01*
X297700Y54144D01*
X297674Y54261D01*
X297653Y54379D01*
X297635Y54498D01*
X297622Y54617D01*
X297612Y54737D01*
X297606Y54857D01*
X297604Y54977D01*
X314382Y51308D02*
X314489Y51310D01*
X314596Y51316D01*
X314703Y51326D01*
X314809Y51339D01*
X314915Y51357D01*
X315020Y51378D01*
X315124Y51403D01*
X315228Y51432D01*
X315330Y51465D01*
X315430Y51502D01*
X315530Y51542D01*
X315628Y51586D01*
X315724Y51633D01*
X315818Y51684D01*
X315911Y51738D01*
X316001Y51795D01*
X316090Y51856D01*
X316176Y51920D01*
X316259Y51987D01*
X316341Y52057D01*
X316419Y52130D01*
X316495Y52206D01*
X316568Y52284D01*
X316638Y52366D01*
X316705Y52449D01*
X316769Y52535D01*
X316830Y52624D01*
X316887Y52714D01*
X316941Y52807D01*
X316992Y52901D01*
X317039Y52997D01*
X317083Y53095D01*
X317123Y53195D01*
X317160Y53295D01*
X317193Y53397D01*
X317222Y53501D01*
X317247Y53605D01*
X317268Y53710D01*
X317286Y53816D01*
X317299Y53922D01*
X317309Y54029D01*
X317315Y54136D01*
X317317Y54243D01*
X314382Y51308D02*
X314229Y51310D01*
X314076Y51316D01*
X313924Y51325D01*
X313771Y51338D01*
X313619Y51355D01*
X313468Y51376D01*
X313316Y51400D01*
X313166Y51428D01*
X313016Y51460D01*
X312868Y51496D01*
X312720Y51535D01*
X312573Y51578D01*
X312427Y51624D01*
X312283Y51674D01*
X312139Y51728D01*
X311997Y51785D01*
X311857Y51845D01*
X311718Y51910D01*
X311581Y51977D01*
X311445Y52048D01*
X311311Y52122D01*
X311179Y52199D01*
X311049Y52280D01*
X310921Y52364D01*
X310795Y52451D01*
X310672Y52541D01*
X310550Y52634D01*
X310431Y52730D01*
X310315Y52829D01*
X310200Y52930D01*
X310089Y53035D01*
X309980Y53142D01*
X310346Y61581D02*
X310348Y61688D01*
X310354Y61795D01*
X310364Y61902D01*
X310377Y62008D01*
X310395Y62114D01*
X310416Y62219D01*
X310441Y62323D01*
X310470Y62427D01*
X310503Y62529D01*
X310540Y62629D01*
X310580Y62729D01*
X310624Y62827D01*
X310671Y62923D01*
X310722Y63017D01*
X310776Y63110D01*
X310833Y63200D01*
X310894Y63289D01*
X310958Y63375D01*
X311025Y63458D01*
X311095Y63540D01*
X311168Y63618D01*
X311244Y63694D01*
X311322Y63767D01*
X311404Y63837D01*
X311487Y63904D01*
X311573Y63968D01*
X311662Y64029D01*
X311752Y64086D01*
X311845Y64140D01*
X311939Y64191D01*
X312035Y64238D01*
X312133Y64282D01*
X312233Y64322D01*
X312333Y64359D01*
X312435Y64392D01*
X312539Y64421D01*
X312643Y64446D01*
X312748Y64467D01*
X312854Y64485D01*
X312960Y64498D01*
X313067Y64508D01*
X313174Y64514D01*
X313281Y64516D01*
X313429Y64514D01*
X313576Y64508D01*
X313723Y64498D01*
X313870Y64484D01*
X314017Y64467D01*
X314162Y64445D01*
X314308Y64419D01*
X314452Y64390D01*
X314596Y64357D01*
X314739Y64319D01*
X314881Y64278D01*
X315021Y64234D01*
X315161Y64185D01*
X315299Y64133D01*
X315435Y64077D01*
X315570Y64017D01*
X315703Y63954D01*
X315835Y63887D01*
X315965Y63817D01*
X316093Y63744D01*
X316218Y63666D01*
X316342Y63586D01*
X316464Y63502D01*
X316583Y63415D01*
X311814Y59013D02*
X311723Y59069D01*
X311634Y59128D01*
X311547Y59190D01*
X311463Y59255D01*
X311380Y59323D01*
X311301Y59394D01*
X311224Y59468D01*
X311150Y59545D01*
X311078Y59624D01*
X311010Y59706D01*
X310944Y59790D01*
X310881Y59877D01*
X310822Y59965D01*
X310766Y60056D01*
X310713Y60149D01*
X310663Y60243D01*
X310617Y60339D01*
X310574Y60437D01*
X310535Y60536D01*
X310499Y60637D01*
X310467Y60739D01*
X310439Y60842D01*
X310415Y60946D01*
X310394Y61050D01*
X310377Y61156D01*
X310363Y61261D01*
X310354Y61368D01*
X310348Y61474D01*
X310346Y61581D01*
X315849Y56811D02*
X315940Y56755D01*
X316029Y56696D01*
X316116Y56634D01*
X316200Y56569D01*
X316283Y56501D01*
X316362Y56430D01*
X316439Y56356D01*
X316513Y56279D01*
X316585Y56200D01*
X316653Y56118D01*
X316719Y56034D01*
X316782Y55947D01*
X316841Y55859D01*
X316897Y55768D01*
X316950Y55675D01*
X317000Y55581D01*
X317046Y55485D01*
X317089Y55387D01*
X317128Y55288D01*
X317164Y55187D01*
X317196Y55085D01*
X317224Y54982D01*
X317248Y54878D01*
X317269Y54774D01*
X317286Y54668D01*
X317300Y54563D01*
X317309Y54456D01*
X317315Y54350D01*
X317317Y54243D01*
X315850Y56811D02*
X311814Y59013D01*
X322354Y61581D02*
X326023Y64516D01*
X326023Y51308D01*
X322354Y51308D02*
X329692Y51308D01*
D11*
X134874Y139700D02*
X134874Y322834D01*
X294640Y322834D02*
X294894Y322834D01*
X294894Y139700D01*
X342900Y38100D02*
X342900Y355600D01*
X317500Y381000D02*
X114300Y381000D01*
X113686Y380993D01*
X113073Y380970D01*
X112460Y380933D01*
X111849Y380881D01*
X111238Y380815D01*
X110630Y380733D01*
X110024Y380637D01*
X109420Y380527D01*
X108819Y380402D01*
X108221Y380262D01*
X107627Y380108D01*
X107037Y379939D01*
X106451Y379757D01*
X105870Y379560D01*
X105293Y379349D01*
X104722Y379125D01*
X104156Y378887D01*
X103596Y378635D01*
X103043Y378369D01*
X102496Y378091D01*
X101956Y377799D01*
X101423Y377494D01*
X100898Y377176D01*
X100380Y376846D01*
X99871Y376504D01*
X99370Y376149D01*
X98878Y375782D01*
X98395Y375404D01*
X97921Y375014D01*
X97457Y374612D01*
X97002Y374200D01*
X96558Y373776D01*
X96124Y373342D01*
X95700Y372898D01*
X95288Y372443D01*
X94886Y371979D01*
X94496Y371505D01*
X94118Y371022D01*
X93751Y370530D01*
X93396Y370029D01*
X93054Y369520D01*
X92724Y369002D01*
X92406Y368477D01*
X92101Y367944D01*
X91809Y367404D01*
X91531Y366857D01*
X91265Y366304D01*
X91013Y365744D01*
X90775Y365178D01*
X90551Y364607D01*
X90340Y364030D01*
X90143Y363449D01*
X89961Y362863D01*
X89792Y362273D01*
X89638Y361679D01*
X89498Y361081D01*
X89373Y360480D01*
X89263Y359876D01*
X89167Y359270D01*
X89085Y358662D01*
X89019Y358051D01*
X88967Y357440D01*
X88930Y356827D01*
X88907Y356214D01*
X88900Y355600D01*
X317500Y381000D02*
X318114Y380993D01*
X318727Y380970D01*
X319340Y380933D01*
X319951Y380881D01*
X320562Y380815D01*
X321170Y380733D01*
X321776Y380637D01*
X322380Y380527D01*
X322981Y380402D01*
X323579Y380262D01*
X324173Y380108D01*
X324763Y379939D01*
X325349Y379757D01*
X325930Y379560D01*
X326507Y379349D01*
X327078Y379125D01*
X327644Y378887D01*
X328204Y378635D01*
X328757Y378369D01*
X329304Y378091D01*
X329844Y377799D01*
X330377Y377494D01*
X330902Y377176D01*
X331420Y376846D01*
X331929Y376504D01*
X332430Y376149D01*
X332922Y375782D01*
X333405Y375404D01*
X333879Y375014D01*
X334343Y374612D01*
X334798Y374200D01*
X335242Y373776D01*
X335676Y373342D01*
X336100Y372898D01*
X336512Y372443D01*
X336914Y371979D01*
X337304Y371505D01*
X337682Y371022D01*
X338049Y370530D01*
X338404Y370029D01*
X338746Y369520D01*
X339076Y369002D01*
X339394Y368477D01*
X339699Y367944D01*
X339991Y367404D01*
X340269Y366857D01*
X340535Y366304D01*
X340787Y365744D01*
X341025Y365178D01*
X341249Y364607D01*
X341460Y364030D01*
X341657Y363449D01*
X341839Y362863D01*
X342008Y362273D01*
X342162Y361679D01*
X342302Y361081D01*
X342427Y360480D01*
X342537Y359876D01*
X342633Y359270D01*
X342715Y358662D01*
X342781Y358051D01*
X342833Y357440D01*
X342870Y356827D01*
X342893Y356214D01*
X342900Y355600D01*
X88900Y355600D02*
X88900Y38100D01*
X342900Y38100D01*
X294640Y139700D02*
X134874Y139700D01*
D13*
X114554Y301244D02*
X114554Y308356D01*
X116530Y308356D01*
X116617Y308354D01*
X116705Y308348D01*
X116792Y308339D01*
X116878Y308325D01*
X116964Y308308D01*
X117048Y308287D01*
X117132Y308262D01*
X117215Y308233D01*
X117296Y308201D01*
X117376Y308166D01*
X117454Y308127D01*
X117531Y308084D01*
X117605Y308038D01*
X117677Y307989D01*
X117747Y307937D01*
X117815Y307881D01*
X117880Y307823D01*
X117943Y307762D01*
X118002Y307698D01*
X118059Y307631D01*
X118113Y307563D01*
X118164Y307491D01*
X118211Y307418D01*
X118256Y307343D01*
X118297Y307265D01*
X118334Y307186D01*
X118368Y307106D01*
X118398Y307024D01*
X118425Y306941D01*
X118448Y306856D01*
X118467Y306771D01*
X118482Y306685D01*
X118494Y306598D01*
X118502Y306511D01*
X118506Y306424D01*
X118506Y306336D01*
X118502Y306249D01*
X118494Y306162D01*
X118482Y306075D01*
X118467Y305989D01*
X118448Y305904D01*
X118425Y305819D01*
X118398Y305736D01*
X118368Y305654D01*
X118334Y305574D01*
X118297Y305495D01*
X118256Y305417D01*
X118211Y305342D01*
X118164Y305269D01*
X118113Y305197D01*
X118059Y305129D01*
X118002Y305062D01*
X117943Y304998D01*
X117880Y304937D01*
X117815Y304879D01*
X117747Y304823D01*
X117677Y304771D01*
X117605Y304722D01*
X117531Y304676D01*
X117454Y304633D01*
X117376Y304594D01*
X117296Y304559D01*
X117215Y304527D01*
X117132Y304498D01*
X117048Y304473D01*
X116964Y304452D01*
X116878Y304435D01*
X116792Y304421D01*
X116705Y304412D01*
X116617Y304406D01*
X116530Y304404D01*
X116530Y304405D02*
X114554Y304405D01*
X116925Y304405D02*
X118505Y301244D01*
X123514Y301244D02*
X123592Y301246D01*
X123669Y301252D01*
X123746Y301261D01*
X123822Y301274D01*
X123898Y301291D01*
X123973Y301312D01*
X124046Y301336D01*
X124119Y301364D01*
X124190Y301396D01*
X124259Y301431D01*
X124326Y301469D01*
X124392Y301510D01*
X124455Y301555D01*
X124516Y301603D01*
X124575Y301653D01*
X124631Y301707D01*
X124685Y301763D01*
X124735Y301822D01*
X124783Y301883D01*
X124828Y301946D01*
X124869Y302012D01*
X124907Y302079D01*
X124942Y302148D01*
X124974Y302219D01*
X125002Y302292D01*
X125026Y302365D01*
X125047Y302440D01*
X125064Y302516D01*
X125077Y302592D01*
X125086Y302669D01*
X125092Y302746D01*
X125094Y302824D01*
X123514Y301244D02*
X123399Y301246D01*
X123285Y301252D01*
X123171Y301262D01*
X123057Y301275D01*
X122944Y301293D01*
X122831Y301315D01*
X122719Y301340D01*
X122609Y301369D01*
X122499Y301402D01*
X122390Y301439D01*
X122283Y301479D01*
X122177Y301523D01*
X122073Y301571D01*
X121970Y301622D01*
X121870Y301677D01*
X121771Y301735D01*
X121674Y301797D01*
X121580Y301861D01*
X121487Y301929D01*
X121397Y302001D01*
X121310Y302075D01*
X121225Y302152D01*
X121143Y302232D01*
X121341Y306776D02*
X121343Y306854D01*
X121349Y306931D01*
X121358Y307008D01*
X121371Y307084D01*
X121388Y307160D01*
X121409Y307235D01*
X121433Y307308D01*
X121461Y307381D01*
X121493Y307452D01*
X121528Y307521D01*
X121566Y307588D01*
X121607Y307654D01*
X121652Y307717D01*
X121700Y307778D01*
X121750Y307837D01*
X121804Y307893D01*
X121860Y307947D01*
X121919Y307997D01*
X121980Y308045D01*
X122043Y308090D01*
X122109Y308131D01*
X122176Y308169D01*
X122245Y308204D01*
X122316Y308236D01*
X122389Y308264D01*
X122462Y308288D01*
X122537Y308309D01*
X122613Y308326D01*
X122689Y308339D01*
X122766Y308348D01*
X122844Y308354D01*
X122921Y308356D01*
X123027Y308354D01*
X123133Y308348D01*
X123238Y308339D01*
X123343Y308326D01*
X123448Y308309D01*
X123552Y308288D01*
X123655Y308264D01*
X123757Y308236D01*
X123858Y308204D01*
X123958Y308169D01*
X124056Y308130D01*
X124154Y308087D01*
X124249Y308042D01*
X124343Y307993D01*
X124435Y307940D01*
X124525Y307884D01*
X124613Y307825D01*
X124699Y307763D01*
X122131Y305393D02*
X122064Y305435D01*
X121999Y305480D01*
X121936Y305529D01*
X121875Y305580D01*
X121818Y305635D01*
X121763Y305692D01*
X121710Y305752D01*
X121661Y305814D01*
X121615Y305879D01*
X121573Y305945D01*
X121533Y306014D01*
X121497Y306085D01*
X121465Y306158D01*
X121436Y306232D01*
X121411Y306307D01*
X121390Y306383D01*
X121372Y306461D01*
X121359Y306539D01*
X121349Y306618D01*
X121343Y306697D01*
X121341Y306776D01*
X124304Y304207D02*
X124371Y304165D01*
X124436Y304120D01*
X124499Y304071D01*
X124560Y304020D01*
X124617Y303965D01*
X124672Y303908D01*
X124725Y303848D01*
X124774Y303786D01*
X124820Y303721D01*
X124862Y303655D01*
X124902Y303586D01*
X124938Y303515D01*
X124970Y303442D01*
X124999Y303368D01*
X125024Y303293D01*
X125045Y303217D01*
X125063Y303139D01*
X125076Y303061D01*
X125086Y302982D01*
X125092Y302903D01*
X125094Y302824D01*
X124304Y304207D02*
X122131Y305393D01*
X129291Y308356D02*
X129291Y301244D01*
X127315Y308356D02*
X131266Y308356D01*
X116925Y282956D02*
X114554Y275844D01*
X119295Y275844D02*
X116925Y282956D01*
X118703Y277622D02*
X115147Y277622D01*
X121807Y279400D02*
X121809Y279548D01*
X121814Y279695D01*
X121824Y279843D01*
X121837Y279990D01*
X121853Y280137D01*
X121874Y280283D01*
X121898Y280429D01*
X121926Y280574D01*
X121957Y280718D01*
X121992Y280861D01*
X122031Y281004D01*
X122073Y281145D01*
X122119Y281286D01*
X122168Y281425D01*
X122221Y281563D01*
X122277Y281700D01*
X122337Y281835D01*
X122400Y281968D01*
X122426Y282039D01*
X122456Y282108D01*
X122490Y282176D01*
X122527Y282242D01*
X122567Y282306D01*
X122611Y282368D01*
X122657Y282427D01*
X122707Y282484D01*
X122760Y282538D01*
X122815Y282590D01*
X122873Y282638D01*
X122933Y282684D01*
X122996Y282726D01*
X123061Y282765D01*
X123127Y282801D01*
X123196Y282833D01*
X123265Y282861D01*
X123337Y282886D01*
X123409Y282907D01*
X123483Y282925D01*
X123557Y282938D01*
X123632Y282948D01*
X123707Y282954D01*
X123783Y282956D01*
X123859Y282954D01*
X123934Y282948D01*
X124009Y282938D01*
X124083Y282925D01*
X124157Y282907D01*
X124229Y282886D01*
X124300Y282861D01*
X124370Y282833D01*
X124439Y282801D01*
X124505Y282765D01*
X124570Y282726D01*
X124633Y282684D01*
X124693Y282638D01*
X124751Y282590D01*
X124806Y282538D01*
X124859Y282484D01*
X124909Y282427D01*
X124955Y282368D01*
X124999Y282306D01*
X125039Y282242D01*
X125076Y282176D01*
X125110Y282108D01*
X125140Y282039D01*
X125166Y281968D01*
X125165Y281968D02*
X125228Y281835D01*
X125288Y281700D01*
X125344Y281563D01*
X125397Y281425D01*
X125446Y281286D01*
X125492Y281145D01*
X125534Y281004D01*
X125573Y280861D01*
X125608Y280718D01*
X125639Y280574D01*
X125667Y280429D01*
X125691Y280283D01*
X125712Y280137D01*
X125728Y279990D01*
X125741Y279843D01*
X125751Y279695D01*
X125756Y279548D01*
X125758Y279400D01*
X121807Y279400D02*
X121809Y279252D01*
X121814Y279105D01*
X121824Y278957D01*
X121837Y278810D01*
X121853Y278663D01*
X121874Y278517D01*
X121898Y278372D01*
X121926Y278226D01*
X121957Y278082D01*
X121992Y277939D01*
X122031Y277796D01*
X122073Y277655D01*
X122119Y277514D01*
X122168Y277375D01*
X122221Y277237D01*
X122277Y277100D01*
X122337Y276965D01*
X122400Y276832D01*
X122426Y276761D01*
X122456Y276692D01*
X122490Y276624D01*
X122527Y276558D01*
X122567Y276494D01*
X122611Y276432D01*
X122657Y276373D01*
X122707Y276316D01*
X122760Y276262D01*
X122815Y276210D01*
X122873Y276162D01*
X122933Y276116D01*
X122996Y276074D01*
X123061Y276035D01*
X123127Y275999D01*
X123196Y275967D01*
X123266Y275939D01*
X123337Y275914D01*
X123409Y275893D01*
X123483Y275875D01*
X123557Y275862D01*
X123632Y275852D01*
X123707Y275846D01*
X123783Y275844D01*
X125165Y276832D02*
X125228Y276965D01*
X125288Y277100D01*
X125344Y277237D01*
X125397Y277375D01*
X125446Y277514D01*
X125492Y277655D01*
X125534Y277796D01*
X125573Y277939D01*
X125608Y278082D01*
X125639Y278226D01*
X125667Y278372D01*
X125691Y278517D01*
X125712Y278663D01*
X125728Y278810D01*
X125741Y278957D01*
X125751Y279105D01*
X125756Y279252D01*
X125758Y279400D01*
X125166Y276832D02*
X125140Y276761D01*
X125110Y276692D01*
X125076Y276624D01*
X125039Y276558D01*
X124999Y276494D01*
X124955Y276432D01*
X124909Y276373D01*
X124859Y276316D01*
X124806Y276262D01*
X124751Y276210D01*
X124693Y276162D01*
X124633Y276116D01*
X124570Y276074D01*
X124505Y276035D01*
X124439Y275999D01*
X124370Y275967D01*
X124300Y275939D01*
X124229Y275914D01*
X124157Y275893D01*
X124083Y275875D01*
X124009Y275862D01*
X123934Y275852D01*
X123859Y275846D01*
X123783Y275844D01*
X122202Y277424D02*
X125363Y281376D01*
X114554Y257556D02*
X114554Y250444D01*
X114554Y257556D02*
X116530Y257556D01*
X116616Y257554D01*
X116702Y257548D01*
X116788Y257539D01*
X116873Y257526D01*
X116958Y257509D01*
X117041Y257489D01*
X117124Y257465D01*
X117206Y257437D01*
X117286Y257406D01*
X117365Y257371D01*
X117442Y257333D01*
X117518Y257291D01*
X117592Y257247D01*
X117663Y257199D01*
X117733Y257148D01*
X117800Y257094D01*
X117865Y257037D01*
X117927Y256977D01*
X117987Y256915D01*
X118044Y256850D01*
X118098Y256783D01*
X118149Y256713D01*
X118197Y256642D01*
X118241Y256568D01*
X118283Y256492D01*
X118321Y256415D01*
X118356Y256336D01*
X118387Y256256D01*
X118415Y256174D01*
X118439Y256091D01*
X118459Y256008D01*
X118476Y255923D01*
X118489Y255838D01*
X118498Y255752D01*
X118504Y255666D01*
X118506Y255580D01*
X118505Y255580D02*
X118505Y252420D01*
X118506Y252420D02*
X118504Y252334D01*
X118498Y252248D01*
X118489Y252162D01*
X118476Y252077D01*
X118459Y251992D01*
X118439Y251909D01*
X118415Y251826D01*
X118387Y251744D01*
X118356Y251664D01*
X118321Y251585D01*
X118283Y251508D01*
X118241Y251432D01*
X118197Y251358D01*
X118149Y251287D01*
X118098Y251217D01*
X118044Y251150D01*
X117987Y251085D01*
X117927Y251023D01*
X117865Y250963D01*
X117800Y250906D01*
X117733Y250852D01*
X117663Y250801D01*
X117592Y250753D01*
X117518Y250709D01*
X117442Y250667D01*
X117365Y250629D01*
X117286Y250594D01*
X117206Y250563D01*
X117124Y250535D01*
X117041Y250511D01*
X116958Y250491D01*
X116873Y250474D01*
X116788Y250461D01*
X116702Y250452D01*
X116616Y250446D01*
X116530Y250444D01*
X114554Y250444D01*
X121640Y254000D02*
X121642Y254148D01*
X121647Y254295D01*
X121657Y254443D01*
X121670Y254590D01*
X121686Y254737D01*
X121707Y254883D01*
X121731Y255029D01*
X121759Y255174D01*
X121790Y255318D01*
X121825Y255461D01*
X121864Y255604D01*
X121906Y255745D01*
X121952Y255886D01*
X122001Y256025D01*
X122054Y256163D01*
X122110Y256300D01*
X122170Y256435D01*
X122233Y256568D01*
X122259Y256639D01*
X122289Y256708D01*
X122323Y256776D01*
X122360Y256842D01*
X122400Y256906D01*
X122444Y256968D01*
X122490Y257027D01*
X122540Y257084D01*
X122593Y257138D01*
X122648Y257190D01*
X122706Y257238D01*
X122766Y257284D01*
X122829Y257326D01*
X122894Y257365D01*
X122960Y257401D01*
X123029Y257433D01*
X123098Y257461D01*
X123170Y257486D01*
X123242Y257507D01*
X123316Y257525D01*
X123390Y257538D01*
X123465Y257548D01*
X123540Y257554D01*
X123616Y257556D01*
X123692Y257554D01*
X123767Y257548D01*
X123842Y257538D01*
X123916Y257525D01*
X123990Y257507D01*
X124062Y257486D01*
X124133Y257461D01*
X124203Y257433D01*
X124272Y257401D01*
X124338Y257365D01*
X124403Y257326D01*
X124466Y257284D01*
X124526Y257238D01*
X124584Y257190D01*
X124639Y257138D01*
X124692Y257084D01*
X124742Y257027D01*
X124788Y256968D01*
X124832Y256906D01*
X124872Y256842D01*
X124909Y256776D01*
X124943Y256708D01*
X124973Y256639D01*
X124999Y256568D01*
X125062Y256435D01*
X125122Y256300D01*
X125178Y256163D01*
X125231Y256025D01*
X125280Y255886D01*
X125326Y255745D01*
X125368Y255604D01*
X125407Y255461D01*
X125442Y255318D01*
X125473Y255174D01*
X125501Y255029D01*
X125525Y254883D01*
X125546Y254737D01*
X125562Y254590D01*
X125575Y254443D01*
X125585Y254295D01*
X125590Y254148D01*
X125592Y254000D01*
X121641Y254000D02*
X121643Y253852D01*
X121648Y253705D01*
X121658Y253557D01*
X121671Y253410D01*
X121687Y253263D01*
X121708Y253117D01*
X121732Y252972D01*
X121760Y252826D01*
X121791Y252682D01*
X121826Y252539D01*
X121865Y252396D01*
X121907Y252255D01*
X121953Y252114D01*
X122002Y251975D01*
X122055Y251837D01*
X122111Y251700D01*
X122171Y251565D01*
X122234Y251432D01*
X122233Y251432D02*
X122259Y251361D01*
X122289Y251292D01*
X122323Y251224D01*
X122360Y251158D01*
X122400Y251094D01*
X122444Y251032D01*
X122490Y250973D01*
X122540Y250916D01*
X122593Y250862D01*
X122648Y250810D01*
X122706Y250762D01*
X122766Y250716D01*
X122829Y250674D01*
X122894Y250635D01*
X122960Y250599D01*
X123029Y250567D01*
X123099Y250539D01*
X123170Y250514D01*
X123242Y250493D01*
X123316Y250475D01*
X123390Y250462D01*
X123465Y250452D01*
X123540Y250446D01*
X123616Y250444D01*
X124999Y251432D02*
X125062Y251565D01*
X125122Y251700D01*
X125178Y251837D01*
X125231Y251975D01*
X125280Y252114D01*
X125326Y252255D01*
X125368Y252396D01*
X125407Y252539D01*
X125442Y252682D01*
X125473Y252826D01*
X125501Y252972D01*
X125525Y253117D01*
X125546Y253263D01*
X125562Y253410D01*
X125575Y253557D01*
X125585Y253705D01*
X125590Y253852D01*
X125592Y254000D01*
X124999Y251432D02*
X124973Y251361D01*
X124943Y251292D01*
X124909Y251224D01*
X124872Y251158D01*
X124832Y251094D01*
X124788Y251032D01*
X124742Y250973D01*
X124692Y250916D01*
X124639Y250862D01*
X124584Y250810D01*
X124526Y250762D01*
X124466Y250716D01*
X124403Y250674D01*
X124338Y250635D01*
X124272Y250599D01*
X124203Y250567D01*
X124133Y250539D01*
X124062Y250514D01*
X123990Y250493D01*
X123916Y250475D01*
X123842Y250462D01*
X123767Y250452D01*
X123692Y250446D01*
X123616Y250444D01*
X122036Y252024D02*
X125197Y255976D01*
X114554Y232156D02*
X114554Y225044D01*
X114554Y232156D02*
X116530Y232156D01*
X116616Y232154D01*
X116702Y232148D01*
X116788Y232139D01*
X116873Y232126D01*
X116958Y232109D01*
X117041Y232089D01*
X117124Y232065D01*
X117206Y232037D01*
X117286Y232006D01*
X117365Y231971D01*
X117442Y231933D01*
X117518Y231891D01*
X117592Y231847D01*
X117663Y231799D01*
X117733Y231748D01*
X117800Y231694D01*
X117865Y231637D01*
X117927Y231577D01*
X117987Y231515D01*
X118044Y231450D01*
X118098Y231383D01*
X118149Y231313D01*
X118197Y231242D01*
X118241Y231168D01*
X118283Y231092D01*
X118321Y231015D01*
X118356Y230936D01*
X118387Y230856D01*
X118415Y230774D01*
X118439Y230691D01*
X118459Y230608D01*
X118476Y230523D01*
X118489Y230438D01*
X118498Y230352D01*
X118504Y230266D01*
X118506Y230180D01*
X118505Y230180D02*
X118505Y227020D01*
X118506Y227020D02*
X118504Y226934D01*
X118498Y226848D01*
X118489Y226762D01*
X118476Y226677D01*
X118459Y226592D01*
X118439Y226509D01*
X118415Y226426D01*
X118387Y226344D01*
X118356Y226264D01*
X118321Y226185D01*
X118283Y226108D01*
X118241Y226032D01*
X118197Y225958D01*
X118149Y225887D01*
X118098Y225817D01*
X118044Y225750D01*
X117987Y225685D01*
X117927Y225623D01*
X117865Y225563D01*
X117800Y225506D01*
X117733Y225452D01*
X117663Y225401D01*
X117592Y225353D01*
X117518Y225309D01*
X117442Y225267D01*
X117365Y225229D01*
X117286Y225194D01*
X117206Y225163D01*
X117124Y225135D01*
X117041Y225111D01*
X116958Y225091D01*
X116873Y225074D01*
X116788Y225061D01*
X116702Y225052D01*
X116616Y225046D01*
X116530Y225044D01*
X114554Y225044D01*
X121641Y225044D02*
X124011Y225044D01*
X124089Y225046D01*
X124166Y225052D01*
X124243Y225061D01*
X124319Y225074D01*
X124395Y225091D01*
X124470Y225112D01*
X124543Y225136D01*
X124616Y225164D01*
X124687Y225196D01*
X124756Y225231D01*
X124823Y225269D01*
X124889Y225310D01*
X124952Y225355D01*
X125013Y225403D01*
X125072Y225453D01*
X125128Y225507D01*
X125182Y225563D01*
X125232Y225622D01*
X125280Y225683D01*
X125325Y225746D01*
X125366Y225812D01*
X125404Y225879D01*
X125439Y225948D01*
X125471Y226019D01*
X125499Y226092D01*
X125523Y226165D01*
X125544Y226240D01*
X125561Y226316D01*
X125574Y226392D01*
X125583Y226469D01*
X125589Y226546D01*
X125591Y226624D01*
X125592Y226624D02*
X125592Y227415D01*
X125591Y227415D02*
X125589Y227493D01*
X125583Y227570D01*
X125574Y227647D01*
X125561Y227723D01*
X125544Y227799D01*
X125523Y227874D01*
X125499Y227947D01*
X125471Y228020D01*
X125439Y228091D01*
X125404Y228160D01*
X125366Y228227D01*
X125325Y228293D01*
X125280Y228356D01*
X125232Y228417D01*
X125182Y228476D01*
X125128Y228532D01*
X125072Y228586D01*
X125013Y228636D01*
X124952Y228684D01*
X124889Y228729D01*
X124823Y228770D01*
X124756Y228808D01*
X124687Y228843D01*
X124616Y228875D01*
X124543Y228903D01*
X124470Y228927D01*
X124395Y228948D01*
X124319Y228965D01*
X124243Y228978D01*
X124166Y228987D01*
X124089Y228993D01*
X124011Y228995D01*
X121641Y228995D01*
X121641Y232156D01*
X125592Y232156D01*
X114554Y206756D02*
X114554Y199644D01*
X114554Y206756D02*
X116530Y206756D01*
X116616Y206754D01*
X116702Y206748D01*
X116788Y206739D01*
X116873Y206726D01*
X116958Y206709D01*
X117041Y206689D01*
X117124Y206665D01*
X117206Y206637D01*
X117286Y206606D01*
X117365Y206571D01*
X117442Y206533D01*
X117518Y206491D01*
X117592Y206447D01*
X117663Y206399D01*
X117733Y206348D01*
X117800Y206294D01*
X117865Y206237D01*
X117927Y206177D01*
X117987Y206115D01*
X118044Y206050D01*
X118098Y205983D01*
X118149Y205913D01*
X118197Y205842D01*
X118241Y205768D01*
X118283Y205692D01*
X118321Y205615D01*
X118356Y205536D01*
X118387Y205456D01*
X118415Y205374D01*
X118439Y205291D01*
X118459Y205208D01*
X118476Y205123D01*
X118489Y205038D01*
X118498Y204952D01*
X118504Y204866D01*
X118506Y204780D01*
X118505Y204780D02*
X118505Y201620D01*
X118506Y201620D02*
X118504Y201534D01*
X118498Y201448D01*
X118489Y201362D01*
X118476Y201277D01*
X118459Y201192D01*
X118439Y201109D01*
X118415Y201026D01*
X118387Y200944D01*
X118356Y200864D01*
X118321Y200785D01*
X118283Y200708D01*
X118241Y200632D01*
X118197Y200558D01*
X118149Y200487D01*
X118098Y200417D01*
X118044Y200350D01*
X117987Y200285D01*
X117927Y200223D01*
X117865Y200163D01*
X117800Y200106D01*
X117733Y200052D01*
X117663Y200001D01*
X117592Y199953D01*
X117518Y199909D01*
X117442Y199867D01*
X117365Y199829D01*
X117286Y199794D01*
X117206Y199763D01*
X117124Y199735D01*
X117041Y199711D01*
X116958Y199691D01*
X116873Y199674D01*
X116788Y199661D01*
X116702Y199652D01*
X116616Y199646D01*
X116530Y199644D01*
X114554Y199644D01*
X121641Y203595D02*
X124011Y203595D01*
X124089Y203593D01*
X124166Y203587D01*
X124243Y203578D01*
X124319Y203565D01*
X124395Y203548D01*
X124470Y203527D01*
X124543Y203503D01*
X124616Y203475D01*
X124687Y203443D01*
X124756Y203408D01*
X124823Y203370D01*
X124889Y203329D01*
X124952Y203284D01*
X125013Y203236D01*
X125072Y203186D01*
X125128Y203132D01*
X125182Y203076D01*
X125232Y203017D01*
X125280Y202956D01*
X125325Y202893D01*
X125366Y202827D01*
X125404Y202760D01*
X125439Y202691D01*
X125471Y202620D01*
X125499Y202547D01*
X125523Y202474D01*
X125544Y202399D01*
X125561Y202323D01*
X125574Y202247D01*
X125583Y202170D01*
X125589Y202093D01*
X125591Y202015D01*
X125592Y202015D02*
X125592Y201620D01*
X125590Y201533D01*
X125584Y201445D01*
X125575Y201358D01*
X125561Y201272D01*
X125544Y201186D01*
X125523Y201102D01*
X125498Y201018D01*
X125469Y200935D01*
X125437Y200854D01*
X125402Y200774D01*
X125363Y200696D01*
X125320Y200619D01*
X125274Y200545D01*
X125225Y200473D01*
X125173Y200403D01*
X125117Y200335D01*
X125059Y200270D01*
X124998Y200207D01*
X124934Y200148D01*
X124867Y200091D01*
X124799Y200037D01*
X124727Y199986D01*
X124654Y199939D01*
X124579Y199894D01*
X124501Y199853D01*
X124422Y199816D01*
X124342Y199782D01*
X124260Y199752D01*
X124177Y199725D01*
X124092Y199702D01*
X124007Y199683D01*
X123921Y199668D01*
X123834Y199656D01*
X123747Y199648D01*
X123660Y199644D01*
X123572Y199644D01*
X123485Y199648D01*
X123398Y199656D01*
X123311Y199668D01*
X123225Y199683D01*
X123140Y199702D01*
X123055Y199725D01*
X122972Y199752D01*
X122890Y199782D01*
X122810Y199816D01*
X122731Y199853D01*
X122653Y199894D01*
X122578Y199939D01*
X122505Y199986D01*
X122433Y200037D01*
X122365Y200091D01*
X122298Y200148D01*
X122234Y200207D01*
X122173Y200270D01*
X122115Y200335D01*
X122059Y200403D01*
X122007Y200473D01*
X121958Y200545D01*
X121912Y200619D01*
X121869Y200696D01*
X121830Y200774D01*
X121795Y200854D01*
X121763Y200935D01*
X121734Y201018D01*
X121709Y201102D01*
X121688Y201186D01*
X121671Y201272D01*
X121657Y201358D01*
X121648Y201445D01*
X121642Y201533D01*
X121640Y201620D01*
X121641Y201620D02*
X121641Y203595D01*
X121640Y203595D02*
X121642Y203705D01*
X121648Y203815D01*
X121657Y203925D01*
X121671Y204035D01*
X121688Y204144D01*
X121709Y204252D01*
X121734Y204360D01*
X121762Y204466D01*
X121795Y204572D01*
X121831Y204676D01*
X121870Y204779D01*
X121913Y204881D01*
X121960Y204981D01*
X122010Y205079D01*
X122063Y205175D01*
X122120Y205270D01*
X122180Y205363D01*
X122244Y205453D01*
X122310Y205541D01*
X122380Y205627D01*
X122452Y205710D01*
X122527Y205791D01*
X122605Y205869D01*
X122686Y205944D01*
X122769Y206016D01*
X122855Y206086D01*
X122943Y206152D01*
X123033Y206216D01*
X123126Y206276D01*
X123220Y206332D01*
X123317Y206386D01*
X123415Y206436D01*
X123515Y206483D01*
X123617Y206526D01*
X123720Y206565D01*
X123824Y206601D01*
X123930Y206634D01*
X124036Y206662D01*
X124144Y206687D01*
X124252Y206708D01*
X124361Y206725D01*
X124471Y206739D01*
X124580Y206748D01*
X124691Y206754D01*
X124801Y206756D01*
X114554Y181356D02*
X114554Y174244D01*
X114554Y181356D02*
X116530Y181356D01*
X116616Y181354D01*
X116702Y181348D01*
X116788Y181339D01*
X116873Y181326D01*
X116958Y181309D01*
X117041Y181289D01*
X117124Y181265D01*
X117206Y181237D01*
X117286Y181206D01*
X117365Y181171D01*
X117442Y181133D01*
X117518Y181091D01*
X117592Y181047D01*
X117663Y180999D01*
X117733Y180948D01*
X117800Y180894D01*
X117865Y180837D01*
X117927Y180777D01*
X117987Y180715D01*
X118044Y180650D01*
X118098Y180583D01*
X118149Y180513D01*
X118197Y180442D01*
X118241Y180368D01*
X118283Y180292D01*
X118321Y180215D01*
X118356Y180136D01*
X118387Y180056D01*
X118415Y179974D01*
X118439Y179891D01*
X118459Y179808D01*
X118476Y179723D01*
X118489Y179638D01*
X118498Y179552D01*
X118504Y179466D01*
X118506Y179380D01*
X118505Y179380D02*
X118505Y176220D01*
X118506Y176220D02*
X118504Y176134D01*
X118498Y176048D01*
X118489Y175962D01*
X118476Y175877D01*
X118459Y175792D01*
X118439Y175709D01*
X118415Y175626D01*
X118387Y175544D01*
X118356Y175464D01*
X118321Y175385D01*
X118283Y175308D01*
X118241Y175232D01*
X118197Y175158D01*
X118149Y175087D01*
X118098Y175017D01*
X118044Y174950D01*
X117987Y174885D01*
X117927Y174823D01*
X117865Y174763D01*
X117800Y174706D01*
X117733Y174652D01*
X117663Y174601D01*
X117592Y174553D01*
X117518Y174509D01*
X117442Y174467D01*
X117365Y174429D01*
X117286Y174394D01*
X117206Y174363D01*
X117124Y174335D01*
X117041Y174311D01*
X116958Y174291D01*
X116873Y174274D01*
X116788Y174261D01*
X116702Y174252D01*
X116616Y174246D01*
X116530Y174244D01*
X114554Y174244D01*
X121641Y180566D02*
X121641Y181356D01*
X125592Y181356D01*
X123616Y174244D01*
X114554Y155956D02*
X114554Y148844D01*
X114554Y155956D02*
X116530Y155956D01*
X116616Y155954D01*
X116702Y155948D01*
X116788Y155939D01*
X116873Y155926D01*
X116958Y155909D01*
X117041Y155889D01*
X117124Y155865D01*
X117206Y155837D01*
X117286Y155806D01*
X117365Y155771D01*
X117442Y155733D01*
X117518Y155691D01*
X117592Y155647D01*
X117663Y155599D01*
X117733Y155548D01*
X117800Y155494D01*
X117865Y155437D01*
X117927Y155377D01*
X117987Y155315D01*
X118044Y155250D01*
X118098Y155183D01*
X118149Y155113D01*
X118197Y155042D01*
X118241Y154968D01*
X118283Y154892D01*
X118321Y154815D01*
X118356Y154736D01*
X118387Y154656D01*
X118415Y154574D01*
X118439Y154491D01*
X118459Y154408D01*
X118476Y154323D01*
X118489Y154238D01*
X118498Y154152D01*
X118504Y154066D01*
X118506Y153980D01*
X118505Y153980D02*
X118505Y150820D01*
X118506Y150820D02*
X118504Y150734D01*
X118498Y150648D01*
X118489Y150562D01*
X118476Y150477D01*
X118459Y150392D01*
X118439Y150309D01*
X118415Y150226D01*
X118387Y150144D01*
X118356Y150064D01*
X118321Y149985D01*
X118283Y149908D01*
X118241Y149832D01*
X118197Y149758D01*
X118149Y149687D01*
X118098Y149617D01*
X118044Y149550D01*
X117987Y149485D01*
X117927Y149423D01*
X117865Y149363D01*
X117800Y149306D01*
X117733Y149252D01*
X117663Y149201D01*
X117592Y149153D01*
X117518Y149109D01*
X117442Y149067D01*
X117365Y149029D01*
X117286Y148994D01*
X117206Y148963D01*
X117124Y148935D01*
X117041Y148911D01*
X116958Y148891D01*
X116873Y148874D01*
X116788Y148861D01*
X116702Y148852D01*
X116616Y148846D01*
X116530Y148844D01*
X114554Y148844D01*
X121640Y150820D02*
X121642Y150907D01*
X121648Y150995D01*
X121657Y151082D01*
X121671Y151168D01*
X121688Y151254D01*
X121709Y151338D01*
X121734Y151422D01*
X121763Y151505D01*
X121795Y151586D01*
X121830Y151666D01*
X121869Y151744D01*
X121912Y151821D01*
X121958Y151895D01*
X122007Y151967D01*
X122059Y152037D01*
X122115Y152105D01*
X122173Y152170D01*
X122234Y152233D01*
X122298Y152292D01*
X122365Y152349D01*
X122433Y152403D01*
X122505Y152454D01*
X122578Y152501D01*
X122653Y152546D01*
X122731Y152587D01*
X122810Y152624D01*
X122890Y152658D01*
X122972Y152688D01*
X123055Y152715D01*
X123140Y152738D01*
X123225Y152757D01*
X123311Y152772D01*
X123398Y152784D01*
X123485Y152792D01*
X123572Y152796D01*
X123660Y152796D01*
X123747Y152792D01*
X123834Y152784D01*
X123921Y152772D01*
X124007Y152757D01*
X124092Y152738D01*
X124177Y152715D01*
X124260Y152688D01*
X124342Y152658D01*
X124422Y152624D01*
X124501Y152587D01*
X124579Y152546D01*
X124654Y152501D01*
X124727Y152454D01*
X124799Y152403D01*
X124867Y152349D01*
X124934Y152292D01*
X124998Y152233D01*
X125059Y152170D01*
X125117Y152105D01*
X125173Y152037D01*
X125225Y151967D01*
X125274Y151895D01*
X125320Y151821D01*
X125363Y151744D01*
X125402Y151666D01*
X125437Y151586D01*
X125469Y151505D01*
X125498Y151422D01*
X125523Y151338D01*
X125544Y151254D01*
X125561Y151168D01*
X125575Y151082D01*
X125584Y150995D01*
X125590Y150907D01*
X125592Y150820D01*
X125590Y150733D01*
X125584Y150645D01*
X125575Y150558D01*
X125561Y150472D01*
X125544Y150386D01*
X125523Y150302D01*
X125498Y150218D01*
X125469Y150135D01*
X125437Y150054D01*
X125402Y149974D01*
X125363Y149896D01*
X125320Y149819D01*
X125274Y149745D01*
X125225Y149673D01*
X125173Y149603D01*
X125117Y149535D01*
X125059Y149470D01*
X124998Y149407D01*
X124934Y149348D01*
X124867Y149291D01*
X124799Y149237D01*
X124727Y149186D01*
X124654Y149139D01*
X124579Y149094D01*
X124501Y149053D01*
X124422Y149016D01*
X124342Y148982D01*
X124260Y148952D01*
X124177Y148925D01*
X124092Y148902D01*
X124007Y148883D01*
X123921Y148868D01*
X123834Y148856D01*
X123747Y148848D01*
X123660Y148844D01*
X123572Y148844D01*
X123485Y148848D01*
X123398Y148856D01*
X123311Y148868D01*
X123225Y148883D01*
X123140Y148902D01*
X123055Y148925D01*
X122972Y148952D01*
X122890Y148982D01*
X122810Y149016D01*
X122731Y149053D01*
X122653Y149094D01*
X122578Y149139D01*
X122505Y149186D01*
X122433Y149237D01*
X122365Y149291D01*
X122298Y149348D01*
X122234Y149407D01*
X122173Y149470D01*
X122115Y149535D01*
X122059Y149603D01*
X122007Y149673D01*
X121958Y149745D01*
X121912Y149819D01*
X121869Y149896D01*
X121830Y149974D01*
X121795Y150054D01*
X121763Y150135D01*
X121734Y150218D01*
X121709Y150302D01*
X121688Y150386D01*
X121671Y150472D01*
X121657Y150558D01*
X121648Y150645D01*
X121642Y150733D01*
X121640Y150820D01*
X122036Y154376D02*
X122038Y154455D01*
X122044Y154533D01*
X122054Y154611D01*
X122067Y154689D01*
X122085Y154766D01*
X122106Y154842D01*
X122131Y154916D01*
X122160Y154990D01*
X122192Y155062D01*
X122228Y155132D01*
X122268Y155200D01*
X122311Y155266D01*
X122357Y155330D01*
X122406Y155392D01*
X122458Y155451D01*
X122513Y155507D01*
X122571Y155561D01*
X122631Y155611D01*
X122694Y155659D01*
X122759Y155703D01*
X122826Y155744D01*
X122895Y155782D01*
X122966Y155816D01*
X123039Y155847D01*
X123113Y155874D01*
X123188Y155897D01*
X123264Y155916D01*
X123342Y155932D01*
X123420Y155944D01*
X123498Y155952D01*
X123577Y155956D01*
X123655Y155956D01*
X123734Y155952D01*
X123812Y155944D01*
X123890Y155932D01*
X123968Y155916D01*
X124044Y155897D01*
X124119Y155874D01*
X124193Y155847D01*
X124266Y155816D01*
X124337Y155782D01*
X124406Y155744D01*
X124473Y155703D01*
X124538Y155659D01*
X124601Y155611D01*
X124661Y155561D01*
X124719Y155507D01*
X124774Y155451D01*
X124826Y155392D01*
X124875Y155330D01*
X124921Y155266D01*
X124964Y155200D01*
X125004Y155132D01*
X125040Y155062D01*
X125072Y154990D01*
X125101Y154916D01*
X125126Y154842D01*
X125147Y154766D01*
X125165Y154689D01*
X125178Y154611D01*
X125188Y154533D01*
X125194Y154455D01*
X125196Y154376D01*
X125194Y154297D01*
X125188Y154219D01*
X125178Y154141D01*
X125165Y154063D01*
X125147Y153986D01*
X125126Y153910D01*
X125101Y153836D01*
X125072Y153762D01*
X125040Y153690D01*
X125004Y153620D01*
X124964Y153552D01*
X124921Y153486D01*
X124875Y153422D01*
X124826Y153360D01*
X124774Y153301D01*
X124719Y153245D01*
X124661Y153191D01*
X124601Y153141D01*
X124538Y153093D01*
X124473Y153049D01*
X124406Y153008D01*
X124337Y152970D01*
X124266Y152936D01*
X124193Y152905D01*
X124119Y152878D01*
X124044Y152855D01*
X123968Y152836D01*
X123890Y152820D01*
X123812Y152808D01*
X123734Y152800D01*
X123655Y152796D01*
X123577Y152796D01*
X123498Y152800D01*
X123420Y152808D01*
X123342Y152820D01*
X123264Y152836D01*
X123188Y152855D01*
X123113Y152878D01*
X123039Y152905D01*
X122966Y152936D01*
X122895Y152970D01*
X122826Y153008D01*
X122759Y153049D01*
X122694Y153093D01*
X122631Y153141D01*
X122571Y153191D01*
X122513Y153245D01*
X122458Y153301D01*
X122406Y153360D01*
X122357Y153422D01*
X122311Y153486D01*
X122268Y153552D01*
X122228Y153620D01*
X122192Y153690D01*
X122160Y153762D01*
X122131Y153836D01*
X122106Y153910D01*
X122085Y153986D01*
X122067Y154063D01*
X122054Y154141D01*
X122044Y154219D01*
X122038Y154297D01*
X122036Y154376D01*
X116530Y123444D02*
X114554Y123444D01*
X116530Y123444D02*
X116617Y123446D01*
X116705Y123452D01*
X116792Y123461D01*
X116878Y123475D01*
X116964Y123492D01*
X117048Y123513D01*
X117132Y123538D01*
X117215Y123567D01*
X117296Y123599D01*
X117376Y123634D01*
X117454Y123673D01*
X117531Y123716D01*
X117605Y123762D01*
X117677Y123811D01*
X117747Y123863D01*
X117815Y123919D01*
X117880Y123977D01*
X117943Y124038D01*
X118002Y124102D01*
X118059Y124169D01*
X118113Y124237D01*
X118164Y124309D01*
X118211Y124382D01*
X118256Y124457D01*
X118297Y124535D01*
X118334Y124614D01*
X118368Y124694D01*
X118398Y124776D01*
X118425Y124859D01*
X118448Y124944D01*
X118467Y125029D01*
X118482Y125115D01*
X118494Y125202D01*
X118502Y125289D01*
X118506Y125376D01*
X118506Y125464D01*
X118502Y125551D01*
X118494Y125638D01*
X118482Y125725D01*
X118467Y125811D01*
X118448Y125896D01*
X118425Y125981D01*
X118398Y126064D01*
X118368Y126146D01*
X118334Y126226D01*
X118297Y126305D01*
X118256Y126383D01*
X118211Y126458D01*
X118164Y126531D01*
X118113Y126603D01*
X118059Y126671D01*
X118002Y126738D01*
X117943Y126802D01*
X117880Y126863D01*
X117815Y126921D01*
X117747Y126977D01*
X117677Y127029D01*
X117605Y127078D01*
X117531Y127124D01*
X117454Y127167D01*
X117376Y127206D01*
X117296Y127241D01*
X117215Y127273D01*
X117132Y127302D01*
X117048Y127327D01*
X116964Y127348D01*
X116878Y127365D01*
X116792Y127379D01*
X116705Y127388D01*
X116617Y127394D01*
X116530Y127396D01*
X116925Y130556D02*
X114554Y130556D01*
X116925Y130556D02*
X117004Y130554D01*
X117082Y130548D01*
X117160Y130538D01*
X117238Y130525D01*
X117315Y130507D01*
X117391Y130486D01*
X117465Y130461D01*
X117539Y130432D01*
X117611Y130400D01*
X117681Y130364D01*
X117749Y130324D01*
X117815Y130281D01*
X117879Y130235D01*
X117941Y130186D01*
X118000Y130134D01*
X118056Y130079D01*
X118110Y130021D01*
X118160Y129961D01*
X118208Y129898D01*
X118252Y129833D01*
X118293Y129766D01*
X118331Y129697D01*
X118365Y129626D01*
X118396Y129553D01*
X118423Y129479D01*
X118446Y129404D01*
X118465Y129328D01*
X118481Y129250D01*
X118493Y129172D01*
X118501Y129094D01*
X118505Y129015D01*
X118505Y128937D01*
X118501Y128858D01*
X118493Y128780D01*
X118481Y128702D01*
X118465Y128624D01*
X118446Y128548D01*
X118423Y128473D01*
X118396Y128399D01*
X118365Y128326D01*
X118331Y128255D01*
X118293Y128186D01*
X118252Y128119D01*
X118208Y128054D01*
X118160Y127991D01*
X118110Y127931D01*
X118056Y127873D01*
X118000Y127818D01*
X117941Y127766D01*
X117879Y127717D01*
X117815Y127671D01*
X117749Y127628D01*
X117681Y127588D01*
X117611Y127552D01*
X117539Y127520D01*
X117465Y127491D01*
X117391Y127466D01*
X117315Y127445D01*
X117238Y127427D01*
X117160Y127414D01*
X117082Y127404D01*
X117004Y127398D01*
X116925Y127396D01*
X116925Y127395D02*
X115344Y127395D01*
X121017Y130556D02*
X123388Y123444D01*
X125758Y130556D01*
X128270Y123444D02*
X130245Y123444D01*
X130332Y123446D01*
X130420Y123452D01*
X130507Y123461D01*
X130593Y123475D01*
X130679Y123492D01*
X130763Y123513D01*
X130847Y123538D01*
X130930Y123567D01*
X131011Y123599D01*
X131091Y123634D01*
X131169Y123673D01*
X131246Y123716D01*
X131320Y123762D01*
X131392Y123811D01*
X131462Y123863D01*
X131530Y123919D01*
X131595Y123977D01*
X131658Y124038D01*
X131717Y124102D01*
X131774Y124169D01*
X131828Y124237D01*
X131879Y124309D01*
X131926Y124382D01*
X131971Y124457D01*
X132012Y124535D01*
X132049Y124614D01*
X132083Y124694D01*
X132113Y124776D01*
X132140Y124859D01*
X132163Y124944D01*
X132182Y125029D01*
X132197Y125115D01*
X132209Y125202D01*
X132217Y125289D01*
X132221Y125376D01*
X132221Y125464D01*
X132217Y125551D01*
X132209Y125638D01*
X132197Y125725D01*
X132182Y125811D01*
X132163Y125896D01*
X132140Y125981D01*
X132113Y126064D01*
X132083Y126146D01*
X132049Y126226D01*
X132012Y126305D01*
X131971Y126383D01*
X131926Y126458D01*
X131879Y126531D01*
X131828Y126603D01*
X131774Y126671D01*
X131717Y126738D01*
X131658Y126802D01*
X131595Y126863D01*
X131530Y126921D01*
X131462Y126977D01*
X131392Y127029D01*
X131320Y127078D01*
X131246Y127124D01*
X131169Y127167D01*
X131091Y127206D01*
X131011Y127241D01*
X130930Y127273D01*
X130847Y127302D01*
X130763Y127327D01*
X130679Y127348D01*
X130593Y127365D01*
X130507Y127379D01*
X130420Y127388D01*
X130332Y127394D01*
X130245Y127396D01*
X130641Y130556D02*
X128270Y130556D01*
X130641Y130556D02*
X130720Y130554D01*
X130798Y130548D01*
X130876Y130538D01*
X130954Y130525D01*
X131031Y130507D01*
X131107Y130486D01*
X131181Y130461D01*
X131255Y130432D01*
X131327Y130400D01*
X131397Y130364D01*
X131465Y130324D01*
X131531Y130281D01*
X131595Y130235D01*
X131657Y130186D01*
X131716Y130134D01*
X131772Y130079D01*
X131826Y130021D01*
X131876Y129961D01*
X131924Y129898D01*
X131968Y129833D01*
X132009Y129766D01*
X132047Y129697D01*
X132081Y129626D01*
X132112Y129553D01*
X132139Y129479D01*
X132162Y129404D01*
X132181Y129328D01*
X132197Y129250D01*
X132209Y129172D01*
X132217Y129094D01*
X132221Y129015D01*
X132221Y128937D01*
X132217Y128858D01*
X132209Y128780D01*
X132197Y128702D01*
X132181Y128624D01*
X132162Y128548D01*
X132139Y128473D01*
X132112Y128399D01*
X132081Y128326D01*
X132047Y128255D01*
X132009Y128186D01*
X131968Y128119D01*
X131924Y128054D01*
X131876Y127991D01*
X131826Y127931D01*
X131772Y127873D01*
X131716Y127818D01*
X131657Y127766D01*
X131595Y127717D01*
X131531Y127671D01*
X131465Y127628D01*
X131397Y127588D01*
X131327Y127552D01*
X131255Y127520D01*
X131181Y127491D01*
X131107Y127466D01*
X131031Y127445D01*
X130954Y127427D01*
X130876Y127414D01*
X130798Y127404D01*
X130720Y127398D01*
X130641Y127396D01*
X130641Y127395D02*
X129060Y127395D01*
X306042Y123444D02*
X308413Y123444D01*
X308491Y123446D01*
X308568Y123452D01*
X308645Y123461D01*
X308721Y123474D01*
X308797Y123491D01*
X308872Y123512D01*
X308945Y123536D01*
X309018Y123564D01*
X309089Y123596D01*
X309158Y123631D01*
X309225Y123669D01*
X309291Y123710D01*
X309354Y123755D01*
X309415Y123803D01*
X309474Y123853D01*
X309530Y123907D01*
X309584Y123963D01*
X309634Y124022D01*
X309682Y124083D01*
X309727Y124146D01*
X309768Y124212D01*
X309806Y124279D01*
X309841Y124348D01*
X309873Y124419D01*
X309901Y124492D01*
X309925Y124565D01*
X309946Y124640D01*
X309963Y124716D01*
X309976Y124792D01*
X309985Y124869D01*
X309991Y124946D01*
X309993Y125024D01*
X309993Y125815D01*
X309991Y125893D01*
X309985Y125970D01*
X309976Y126047D01*
X309963Y126123D01*
X309946Y126199D01*
X309925Y126274D01*
X309901Y126347D01*
X309873Y126420D01*
X309841Y126491D01*
X309806Y126560D01*
X309768Y126627D01*
X309727Y126693D01*
X309682Y126756D01*
X309634Y126817D01*
X309584Y126876D01*
X309530Y126932D01*
X309474Y126986D01*
X309415Y127036D01*
X309354Y127084D01*
X309291Y127129D01*
X309225Y127170D01*
X309158Y127208D01*
X309089Y127243D01*
X309018Y127275D01*
X308945Y127303D01*
X308872Y127327D01*
X308797Y127348D01*
X308721Y127365D01*
X308645Y127378D01*
X308568Y127387D01*
X308491Y127393D01*
X308413Y127395D01*
X306042Y127395D01*
X306042Y130556D01*
X309993Y130556D01*
X312505Y130556D02*
X314875Y123444D01*
X317246Y130556D01*
X302616Y152795D02*
X301430Y152795D01*
X302616Y152795D02*
X302616Y148844D01*
X300245Y148844D01*
X300167Y148846D01*
X300090Y148852D01*
X300013Y148861D01*
X299937Y148874D01*
X299861Y148891D01*
X299786Y148912D01*
X299713Y148936D01*
X299640Y148964D01*
X299569Y148996D01*
X299500Y149031D01*
X299433Y149069D01*
X299367Y149110D01*
X299304Y149155D01*
X299243Y149203D01*
X299184Y149253D01*
X299128Y149307D01*
X299074Y149363D01*
X299024Y149422D01*
X298976Y149483D01*
X298931Y149546D01*
X298890Y149612D01*
X298852Y149679D01*
X298817Y149748D01*
X298785Y149819D01*
X298757Y149892D01*
X298733Y149965D01*
X298712Y150040D01*
X298695Y150116D01*
X298682Y150192D01*
X298673Y150269D01*
X298667Y150346D01*
X298665Y150424D01*
X298665Y154376D01*
X298667Y154454D01*
X298673Y154531D01*
X298682Y154608D01*
X298695Y154684D01*
X298712Y154760D01*
X298733Y154835D01*
X298757Y154908D01*
X298785Y154981D01*
X298817Y155052D01*
X298852Y155121D01*
X298890Y155188D01*
X298931Y155254D01*
X298976Y155317D01*
X299024Y155378D01*
X299074Y155437D01*
X299128Y155493D01*
X299184Y155547D01*
X299243Y155597D01*
X299304Y155645D01*
X299367Y155690D01*
X299433Y155731D01*
X299500Y155769D01*
X299569Y155804D01*
X299640Y155836D01*
X299713Y155864D01*
X299786Y155888D01*
X299861Y155909D01*
X299937Y155926D01*
X300013Y155939D01*
X300090Y155948D01*
X300167Y155954D01*
X300245Y155956D01*
X302616Y155956D01*
X305980Y155956D02*
X305980Y148844D01*
X309931Y148844D02*
X305980Y155956D01*
X309931Y155956D02*
X309931Y148844D01*
X313295Y148844D02*
X313295Y155956D01*
X315270Y155956D01*
X315356Y155954D01*
X315442Y155948D01*
X315528Y155939D01*
X315613Y155926D01*
X315698Y155909D01*
X315781Y155889D01*
X315864Y155865D01*
X315946Y155837D01*
X316026Y155806D01*
X316105Y155771D01*
X316182Y155733D01*
X316258Y155691D01*
X316332Y155647D01*
X316403Y155599D01*
X316473Y155548D01*
X316540Y155494D01*
X316605Y155437D01*
X316667Y155377D01*
X316727Y155315D01*
X316784Y155250D01*
X316838Y155183D01*
X316889Y155113D01*
X316937Y155042D01*
X316981Y154968D01*
X317023Y154892D01*
X317061Y154815D01*
X317096Y154736D01*
X317127Y154656D01*
X317155Y154574D01*
X317179Y154491D01*
X317199Y154408D01*
X317216Y154323D01*
X317229Y154238D01*
X317238Y154152D01*
X317244Y154066D01*
X317246Y153980D01*
X317246Y150820D01*
X317244Y150734D01*
X317238Y150648D01*
X317229Y150562D01*
X317216Y150477D01*
X317199Y150392D01*
X317179Y150309D01*
X317155Y150226D01*
X317127Y150144D01*
X317096Y150064D01*
X317061Y149985D01*
X317023Y149908D01*
X316981Y149832D01*
X316937Y149758D01*
X316889Y149687D01*
X316838Y149617D01*
X316784Y149550D01*
X316727Y149485D01*
X316667Y149423D01*
X316605Y149363D01*
X316540Y149306D01*
X316473Y149252D01*
X316403Y149201D01*
X316332Y149153D01*
X316258Y149109D01*
X316182Y149067D01*
X316105Y149029D01*
X316026Y148994D01*
X315946Y148963D01*
X315864Y148935D01*
X315781Y148911D01*
X315698Y148891D01*
X315613Y148874D01*
X315528Y148861D01*
X315442Y148852D01*
X315356Y148846D01*
X315270Y148844D01*
X313295Y148844D01*
X306208Y174244D02*
X306208Y181356D01*
X308184Y181356D01*
X308270Y181354D01*
X308356Y181348D01*
X308442Y181339D01*
X308527Y181326D01*
X308612Y181309D01*
X308695Y181289D01*
X308778Y181265D01*
X308860Y181237D01*
X308940Y181206D01*
X309019Y181171D01*
X309096Y181133D01*
X309172Y181091D01*
X309246Y181047D01*
X309317Y180999D01*
X309387Y180948D01*
X309454Y180894D01*
X309519Y180837D01*
X309581Y180777D01*
X309641Y180715D01*
X309698Y180650D01*
X309752Y180583D01*
X309803Y180513D01*
X309851Y180442D01*
X309895Y180368D01*
X309937Y180292D01*
X309975Y180215D01*
X310010Y180136D01*
X310041Y180056D01*
X310069Y179974D01*
X310093Y179891D01*
X310113Y179808D01*
X310130Y179723D01*
X310143Y179638D01*
X310152Y179552D01*
X310158Y179466D01*
X310160Y179380D01*
X310159Y179380D02*
X310159Y176220D01*
X310160Y176220D02*
X310158Y176134D01*
X310152Y176048D01*
X310143Y175962D01*
X310130Y175877D01*
X310113Y175792D01*
X310093Y175709D01*
X310069Y175626D01*
X310041Y175544D01*
X310010Y175464D01*
X309975Y175385D01*
X309937Y175308D01*
X309895Y175232D01*
X309851Y175158D01*
X309803Y175087D01*
X309752Y175017D01*
X309698Y174950D01*
X309641Y174885D01*
X309581Y174823D01*
X309519Y174763D01*
X309454Y174706D01*
X309387Y174652D01*
X309317Y174601D01*
X309246Y174553D01*
X309172Y174509D01*
X309096Y174467D01*
X309019Y174429D01*
X308940Y174394D01*
X308860Y174363D01*
X308778Y174335D01*
X308695Y174311D01*
X308612Y174291D01*
X308527Y174274D01*
X308442Y174261D01*
X308356Y174252D01*
X308270Y174246D01*
X308184Y174244D01*
X306208Y174244D01*
X313295Y175824D02*
X314875Y181356D01*
X313295Y175824D02*
X317246Y175824D01*
X316061Y177405D02*
X316061Y174244D01*
X306208Y199644D02*
X306208Y206756D01*
X308184Y206756D01*
X308270Y206754D01*
X308356Y206748D01*
X308442Y206739D01*
X308527Y206726D01*
X308612Y206709D01*
X308695Y206689D01*
X308778Y206665D01*
X308860Y206637D01*
X308940Y206606D01*
X309019Y206571D01*
X309096Y206533D01*
X309172Y206491D01*
X309246Y206447D01*
X309317Y206399D01*
X309387Y206348D01*
X309454Y206294D01*
X309519Y206237D01*
X309581Y206177D01*
X309641Y206115D01*
X309698Y206050D01*
X309752Y205983D01*
X309803Y205913D01*
X309851Y205842D01*
X309895Y205768D01*
X309937Y205692D01*
X309975Y205615D01*
X310010Y205536D01*
X310041Y205456D01*
X310069Y205374D01*
X310093Y205291D01*
X310113Y205208D01*
X310130Y205123D01*
X310143Y205038D01*
X310152Y204952D01*
X310158Y204866D01*
X310160Y204780D01*
X310159Y204780D02*
X310159Y201620D01*
X310160Y201620D02*
X310158Y201534D01*
X310152Y201448D01*
X310143Y201362D01*
X310130Y201277D01*
X310113Y201192D01*
X310093Y201109D01*
X310069Y201026D01*
X310041Y200944D01*
X310010Y200864D01*
X309975Y200785D01*
X309937Y200708D01*
X309895Y200632D01*
X309851Y200558D01*
X309803Y200487D01*
X309752Y200417D01*
X309698Y200350D01*
X309641Y200285D01*
X309581Y200223D01*
X309519Y200163D01*
X309454Y200106D01*
X309387Y200052D01*
X309317Y200001D01*
X309246Y199953D01*
X309172Y199909D01*
X309096Y199867D01*
X309019Y199829D01*
X308940Y199794D01*
X308860Y199763D01*
X308778Y199735D01*
X308695Y199711D01*
X308612Y199691D01*
X308527Y199674D01*
X308442Y199661D01*
X308356Y199652D01*
X308270Y199646D01*
X308184Y199644D01*
X306208Y199644D01*
X313295Y199644D02*
X315270Y199644D01*
X315357Y199646D01*
X315445Y199652D01*
X315532Y199661D01*
X315618Y199675D01*
X315704Y199692D01*
X315788Y199713D01*
X315872Y199738D01*
X315955Y199767D01*
X316036Y199799D01*
X316116Y199834D01*
X316194Y199873D01*
X316271Y199916D01*
X316345Y199962D01*
X316417Y200011D01*
X316487Y200063D01*
X316555Y200119D01*
X316620Y200177D01*
X316683Y200238D01*
X316742Y200302D01*
X316799Y200369D01*
X316853Y200437D01*
X316904Y200509D01*
X316951Y200582D01*
X316996Y200657D01*
X317037Y200735D01*
X317074Y200814D01*
X317108Y200894D01*
X317138Y200976D01*
X317165Y201059D01*
X317188Y201144D01*
X317207Y201229D01*
X317222Y201315D01*
X317234Y201402D01*
X317242Y201489D01*
X317246Y201576D01*
X317246Y201664D01*
X317242Y201751D01*
X317234Y201838D01*
X317222Y201925D01*
X317207Y202011D01*
X317188Y202096D01*
X317165Y202181D01*
X317138Y202264D01*
X317108Y202346D01*
X317074Y202426D01*
X317037Y202505D01*
X316996Y202583D01*
X316951Y202658D01*
X316904Y202731D01*
X316853Y202803D01*
X316799Y202871D01*
X316742Y202938D01*
X316683Y203002D01*
X316620Y203063D01*
X316555Y203121D01*
X316487Y203177D01*
X316417Y203229D01*
X316345Y203278D01*
X316271Y203324D01*
X316194Y203367D01*
X316116Y203406D01*
X316036Y203441D01*
X315955Y203473D01*
X315872Y203502D01*
X315788Y203527D01*
X315704Y203548D01*
X315618Y203565D01*
X315532Y203579D01*
X315445Y203588D01*
X315357Y203594D01*
X315270Y203596D01*
X315666Y206756D02*
X313295Y206756D01*
X315666Y206756D02*
X315745Y206754D01*
X315823Y206748D01*
X315901Y206738D01*
X315979Y206725D01*
X316056Y206707D01*
X316132Y206686D01*
X316206Y206661D01*
X316280Y206632D01*
X316352Y206600D01*
X316422Y206564D01*
X316490Y206524D01*
X316556Y206481D01*
X316620Y206435D01*
X316682Y206386D01*
X316741Y206334D01*
X316797Y206279D01*
X316851Y206221D01*
X316901Y206161D01*
X316949Y206098D01*
X316993Y206033D01*
X317034Y205966D01*
X317072Y205897D01*
X317106Y205826D01*
X317137Y205753D01*
X317164Y205679D01*
X317187Y205604D01*
X317206Y205528D01*
X317222Y205450D01*
X317234Y205372D01*
X317242Y205294D01*
X317246Y205215D01*
X317246Y205137D01*
X317242Y205058D01*
X317234Y204980D01*
X317222Y204902D01*
X317206Y204824D01*
X317187Y204748D01*
X317164Y204673D01*
X317137Y204599D01*
X317106Y204526D01*
X317072Y204455D01*
X317034Y204386D01*
X316993Y204319D01*
X316949Y204254D01*
X316901Y204191D01*
X316851Y204131D01*
X316797Y204073D01*
X316741Y204018D01*
X316682Y203966D01*
X316620Y203917D01*
X316556Y203871D01*
X316490Y203828D01*
X316422Y203788D01*
X316352Y203752D01*
X316280Y203720D01*
X316206Y203691D01*
X316132Y203666D01*
X316056Y203645D01*
X315979Y203627D01*
X315901Y203614D01*
X315823Y203604D01*
X315745Y203598D01*
X315666Y203596D01*
X315666Y203595D02*
X314085Y203595D01*
X306208Y225044D02*
X306208Y232156D01*
X308184Y232156D01*
X308270Y232154D01*
X308356Y232148D01*
X308442Y232139D01*
X308527Y232126D01*
X308612Y232109D01*
X308695Y232089D01*
X308778Y232065D01*
X308860Y232037D01*
X308940Y232006D01*
X309019Y231971D01*
X309096Y231933D01*
X309172Y231891D01*
X309246Y231847D01*
X309317Y231799D01*
X309387Y231748D01*
X309454Y231694D01*
X309519Y231637D01*
X309581Y231577D01*
X309641Y231515D01*
X309698Y231450D01*
X309752Y231383D01*
X309803Y231313D01*
X309851Y231242D01*
X309895Y231168D01*
X309937Y231092D01*
X309975Y231015D01*
X310010Y230936D01*
X310041Y230856D01*
X310069Y230774D01*
X310093Y230691D01*
X310113Y230608D01*
X310130Y230523D01*
X310143Y230438D01*
X310152Y230352D01*
X310158Y230266D01*
X310160Y230180D01*
X310159Y230180D02*
X310159Y227020D01*
X310160Y227020D02*
X310158Y226934D01*
X310152Y226848D01*
X310143Y226762D01*
X310130Y226677D01*
X310113Y226592D01*
X310093Y226509D01*
X310069Y226426D01*
X310041Y226344D01*
X310010Y226264D01*
X309975Y226185D01*
X309937Y226108D01*
X309895Y226032D01*
X309851Y225958D01*
X309803Y225887D01*
X309752Y225817D01*
X309698Y225750D01*
X309641Y225685D01*
X309581Y225623D01*
X309519Y225563D01*
X309454Y225506D01*
X309387Y225452D01*
X309317Y225401D01*
X309246Y225353D01*
X309172Y225309D01*
X309096Y225267D01*
X309019Y225229D01*
X308940Y225194D01*
X308860Y225163D01*
X308778Y225135D01*
X308695Y225111D01*
X308612Y225091D01*
X308527Y225074D01*
X308442Y225061D01*
X308356Y225052D01*
X308270Y225046D01*
X308184Y225044D01*
X306208Y225044D01*
X315468Y232156D02*
X315550Y232154D01*
X315632Y232148D01*
X315714Y232139D01*
X315795Y232126D01*
X315875Y232109D01*
X315955Y232088D01*
X316033Y232064D01*
X316110Y232036D01*
X316186Y232005D01*
X316261Y231970D01*
X316333Y231931D01*
X316404Y231890D01*
X316473Y231845D01*
X316539Y231797D01*
X316604Y231746D01*
X316666Y231692D01*
X316725Y231635D01*
X316782Y231576D01*
X316836Y231514D01*
X316887Y231449D01*
X316935Y231383D01*
X316980Y231314D01*
X317021Y231243D01*
X317060Y231171D01*
X317095Y231096D01*
X317126Y231020D01*
X317154Y230943D01*
X317178Y230865D01*
X317199Y230785D01*
X317216Y230705D01*
X317229Y230624D01*
X317238Y230542D01*
X317244Y230460D01*
X317246Y230378D01*
X315468Y232156D02*
X315375Y232154D01*
X315283Y232148D01*
X315191Y232139D01*
X315099Y232126D01*
X315008Y232109D01*
X314918Y232089D01*
X314828Y232065D01*
X314740Y232037D01*
X314652Y232005D01*
X314567Y231971D01*
X314482Y231932D01*
X314400Y231891D01*
X314319Y231846D01*
X314239Y231797D01*
X314162Y231746D01*
X314087Y231692D01*
X314015Y231634D01*
X313945Y231574D01*
X313877Y231510D01*
X313812Y231445D01*
X313749Y231376D01*
X313690Y231305D01*
X313633Y231232D01*
X313579Y231156D01*
X313529Y231079D01*
X313481Y230999D01*
X313437Y230918D01*
X313397Y230834D01*
X313359Y230750D01*
X313325Y230663D01*
X313295Y230576D01*
X316653Y228995D02*
X316714Y229056D01*
X316772Y229119D01*
X316827Y229185D01*
X316880Y229253D01*
X316929Y229324D01*
X316974Y229396D01*
X317017Y229471D01*
X317056Y229547D01*
X317092Y229626D01*
X317124Y229705D01*
X317152Y229786D01*
X317177Y229869D01*
X317198Y229952D01*
X317215Y230036D01*
X317229Y230121D01*
X317238Y230206D01*
X317244Y230292D01*
X317246Y230378D01*
X316653Y228995D02*
X313295Y225044D01*
X317246Y225044D01*
X306208Y250444D02*
X306208Y257556D01*
X308184Y257556D01*
X308270Y257554D01*
X308356Y257548D01*
X308442Y257539D01*
X308527Y257526D01*
X308612Y257509D01*
X308695Y257489D01*
X308778Y257465D01*
X308860Y257437D01*
X308940Y257406D01*
X309019Y257371D01*
X309096Y257333D01*
X309172Y257291D01*
X309246Y257247D01*
X309317Y257199D01*
X309387Y257148D01*
X309454Y257094D01*
X309519Y257037D01*
X309581Y256977D01*
X309641Y256915D01*
X309698Y256850D01*
X309752Y256783D01*
X309803Y256713D01*
X309851Y256642D01*
X309895Y256568D01*
X309937Y256492D01*
X309975Y256415D01*
X310010Y256336D01*
X310041Y256256D01*
X310069Y256174D01*
X310093Y256091D01*
X310113Y256008D01*
X310130Y255923D01*
X310143Y255838D01*
X310152Y255752D01*
X310158Y255666D01*
X310160Y255580D01*
X310159Y255580D02*
X310159Y252420D01*
X310160Y252420D02*
X310158Y252334D01*
X310152Y252248D01*
X310143Y252162D01*
X310130Y252077D01*
X310113Y251992D01*
X310093Y251909D01*
X310069Y251826D01*
X310041Y251744D01*
X310010Y251664D01*
X309975Y251585D01*
X309937Y251508D01*
X309895Y251432D01*
X309851Y251358D01*
X309803Y251287D01*
X309752Y251217D01*
X309698Y251150D01*
X309641Y251085D01*
X309581Y251023D01*
X309519Y250963D01*
X309454Y250906D01*
X309387Y250852D01*
X309317Y250801D01*
X309246Y250753D01*
X309172Y250709D01*
X309096Y250667D01*
X309019Y250629D01*
X308940Y250594D01*
X308860Y250563D01*
X308778Y250535D01*
X308695Y250511D01*
X308612Y250491D01*
X308527Y250474D01*
X308442Y250461D01*
X308356Y250452D01*
X308270Y250446D01*
X308184Y250444D01*
X306208Y250444D01*
X313295Y255976D02*
X315270Y257556D01*
X315270Y250444D01*
X313295Y250444D02*
X317246Y250444D01*
X306082Y275844D02*
X306082Y282956D01*
X308058Y282956D01*
X308145Y282954D01*
X308233Y282948D01*
X308320Y282939D01*
X308406Y282925D01*
X308492Y282908D01*
X308576Y282887D01*
X308660Y282862D01*
X308743Y282833D01*
X308824Y282801D01*
X308904Y282766D01*
X308982Y282727D01*
X309059Y282684D01*
X309133Y282638D01*
X309205Y282589D01*
X309275Y282537D01*
X309343Y282481D01*
X309408Y282423D01*
X309471Y282362D01*
X309530Y282298D01*
X309587Y282231D01*
X309641Y282163D01*
X309692Y282091D01*
X309739Y282018D01*
X309784Y281943D01*
X309825Y281865D01*
X309862Y281786D01*
X309896Y281706D01*
X309926Y281624D01*
X309953Y281541D01*
X309976Y281456D01*
X309995Y281371D01*
X310010Y281285D01*
X310022Y281198D01*
X310030Y281111D01*
X310034Y281024D01*
X310034Y280936D01*
X310030Y280849D01*
X310022Y280762D01*
X310010Y280675D01*
X309995Y280589D01*
X309976Y280504D01*
X309953Y280419D01*
X309926Y280336D01*
X309896Y280254D01*
X309862Y280174D01*
X309825Y280095D01*
X309784Y280017D01*
X309739Y279942D01*
X309692Y279869D01*
X309641Y279797D01*
X309587Y279729D01*
X309530Y279662D01*
X309471Y279598D01*
X309408Y279537D01*
X309343Y279479D01*
X309275Y279423D01*
X309205Y279371D01*
X309133Y279322D01*
X309059Y279276D01*
X308982Y279233D01*
X308904Y279194D01*
X308824Y279159D01*
X308743Y279127D01*
X308660Y279098D01*
X308576Y279073D01*
X308492Y279052D01*
X308406Y279035D01*
X308320Y279021D01*
X308233Y279012D01*
X308145Y279006D01*
X308058Y279004D01*
X308058Y279005D02*
X306082Y279005D01*
X308453Y279005D02*
X310033Y275844D01*
X312505Y275844D02*
X317246Y282956D01*
X312505Y282956D02*
X317246Y275844D01*
X308475Y301244D02*
X308475Y308356D01*
X310450Y308356D02*
X306499Y308356D01*
X312505Y301244D02*
X317246Y308356D01*
X312505Y308356D02*
X317246Y301244D01*
D14*
X254000Y38100D02*
X177800Y38100D01*
X254000Y38100D02*
X254000Y88900D01*
X177800Y88900D01*
X177800Y38100D01*
D12*
X173519Y359664D02*
X177922Y372872D01*
X182325Y359664D01*
X181224Y362966D02*
X174620Y362966D01*
X187481Y359664D02*
X187481Y372872D01*
X194819Y359664D01*
X194819Y372872D01*
X203525Y372872D02*
X203525Y359664D01*
X199856Y372872D02*
X207194Y372872D01*
X212255Y359664D02*
X218125Y359664D01*
X212255Y359664D02*
X212255Y372872D01*
X218125Y372872D01*
X216658Y367002D02*
X212255Y367002D01*
X223326Y372872D02*
X223326Y359664D01*
X230664Y359664D02*
X223326Y372872D01*
X230664Y372872D02*
X230664Y359664D01*
X236981Y359664D02*
X236981Y372872D01*
X244319Y359664D01*
X244319Y372872D01*
X253878Y372872D02*
X249475Y359664D01*
X258281Y359664D02*
X253878Y372872D01*
X257180Y362966D02*
X250576Y362966D01*
X162142Y351536D02*
X162142Y338328D01*
X162142Y343464D02*
X169480Y351536D01*
X165077Y346400D02*
X169480Y338328D01*
X174788Y338328D02*
X180659Y338328D01*
X174788Y338328D02*
X174788Y351536D01*
X180659Y351536D01*
X179191Y345666D02*
X174788Y345666D01*
X185883Y338328D02*
X191753Y338328D01*
X185883Y338328D02*
X185883Y351536D01*
X191753Y351536D01*
X190286Y345666D02*
X185883Y345666D01*
X197133Y351536D02*
X197133Y338328D01*
X197133Y351536D02*
X200802Y351536D01*
X200922Y351534D01*
X201042Y351528D01*
X201162Y351518D01*
X201281Y351505D01*
X201400Y351487D01*
X201518Y351466D01*
X201635Y351440D01*
X201752Y351411D01*
X201867Y351378D01*
X201981Y351341D01*
X202094Y351301D01*
X202206Y351257D01*
X202316Y351209D01*
X202425Y351158D01*
X202532Y351103D01*
X202636Y351044D01*
X202739Y350983D01*
X202840Y350918D01*
X202939Y350849D01*
X203036Y350778D01*
X203130Y350703D01*
X203221Y350626D01*
X203310Y350545D01*
X203396Y350461D01*
X203480Y350375D01*
X203561Y350286D01*
X203638Y350195D01*
X203713Y350101D01*
X203784Y350004D01*
X203853Y349905D01*
X203918Y349804D01*
X203979Y349702D01*
X204038Y349597D01*
X204093Y349490D01*
X204144Y349381D01*
X204192Y349271D01*
X204236Y349159D01*
X204276Y349046D01*
X204313Y348932D01*
X204346Y348817D01*
X204375Y348700D01*
X204401Y348583D01*
X204422Y348465D01*
X204440Y348346D01*
X204453Y348227D01*
X204463Y348107D01*
X204469Y347987D01*
X204471Y347867D01*
X204469Y347747D01*
X204463Y347627D01*
X204453Y347507D01*
X204440Y347388D01*
X204422Y347269D01*
X204401Y347151D01*
X204375Y347034D01*
X204346Y346917D01*
X204313Y346802D01*
X204276Y346688D01*
X204236Y346575D01*
X204192Y346463D01*
X204144Y346353D01*
X204093Y346244D01*
X204038Y346137D01*
X203979Y346033D01*
X203918Y345930D01*
X203853Y345829D01*
X203784Y345730D01*
X203713Y345633D01*
X203638Y345539D01*
X203561Y345448D01*
X203480Y345359D01*
X203396Y345273D01*
X203310Y345189D01*
X203221Y345108D01*
X203130Y345031D01*
X203036Y344956D01*
X202939Y344885D01*
X202840Y344816D01*
X202739Y344751D01*
X202637Y344690D01*
X202532Y344631D01*
X202425Y344576D01*
X202316Y344525D01*
X202206Y344477D01*
X202094Y344433D01*
X201981Y344393D01*
X201867Y344356D01*
X201752Y344323D01*
X201635Y344294D01*
X201518Y344268D01*
X201400Y344247D01*
X201281Y344229D01*
X201162Y344216D01*
X201042Y344206D01*
X200922Y344200D01*
X200802Y344198D01*
X197133Y344198D01*
X219056Y338328D02*
X221991Y338328D01*
X219056Y338328D02*
X218949Y338330D01*
X218842Y338336D01*
X218735Y338346D01*
X218629Y338359D01*
X218523Y338377D01*
X218418Y338398D01*
X218314Y338423D01*
X218210Y338452D01*
X218108Y338485D01*
X218008Y338522D01*
X217908Y338562D01*
X217810Y338606D01*
X217714Y338653D01*
X217620Y338704D01*
X217527Y338758D01*
X217437Y338815D01*
X217348Y338876D01*
X217262Y338940D01*
X217179Y339007D01*
X217097Y339077D01*
X217019Y339150D01*
X216943Y339226D01*
X216870Y339304D01*
X216800Y339386D01*
X216733Y339469D01*
X216669Y339555D01*
X216608Y339644D01*
X216551Y339734D01*
X216497Y339827D01*
X216446Y339921D01*
X216399Y340017D01*
X216355Y340115D01*
X216315Y340215D01*
X216278Y340315D01*
X216245Y340417D01*
X216216Y340521D01*
X216191Y340625D01*
X216170Y340730D01*
X216152Y340836D01*
X216139Y340942D01*
X216129Y341049D01*
X216123Y341156D01*
X216121Y341263D01*
X216121Y348601D01*
X216123Y348708D01*
X216129Y348815D01*
X216139Y348922D01*
X216152Y349028D01*
X216170Y349134D01*
X216191Y349239D01*
X216216Y349343D01*
X216245Y349447D01*
X216278Y349549D01*
X216315Y349649D01*
X216355Y349749D01*
X216399Y349847D01*
X216446Y349943D01*
X216497Y350037D01*
X216551Y350130D01*
X216608Y350220D01*
X216669Y350309D01*
X216733Y350395D01*
X216800Y350478D01*
X216870Y350560D01*
X216943Y350638D01*
X217019Y350714D01*
X217097Y350787D01*
X217179Y350857D01*
X217262Y350924D01*
X217348Y350988D01*
X217437Y351049D01*
X217527Y351106D01*
X217620Y351160D01*
X217714Y351211D01*
X217810Y351258D01*
X217908Y351302D01*
X218008Y351342D01*
X218108Y351379D01*
X218210Y351412D01*
X218314Y351441D01*
X218418Y351466D01*
X218523Y351487D01*
X218629Y351505D01*
X218735Y351518D01*
X218842Y351528D01*
X218949Y351534D01*
X219056Y351536D01*
X221991Y351536D01*
X227275Y351536D02*
X227275Y338328D01*
X233145Y338328D01*
X238370Y338328D02*
X244240Y338328D01*
X238370Y338328D02*
X238370Y351536D01*
X244240Y351536D01*
X242772Y345666D02*
X238370Y345666D01*
X248280Y338328D02*
X252683Y351536D01*
X257085Y338328D01*
X255985Y341630D02*
X249381Y341630D01*
X262320Y338328D02*
X262320Y351536D01*
X265989Y351536D01*
X266109Y351534D01*
X266229Y351528D01*
X266349Y351518D01*
X266468Y351505D01*
X266587Y351487D01*
X266705Y351466D01*
X266822Y351440D01*
X266939Y351411D01*
X267054Y351378D01*
X267168Y351341D01*
X267281Y351301D01*
X267393Y351257D01*
X267503Y351209D01*
X267612Y351158D01*
X267719Y351103D01*
X267823Y351044D01*
X267926Y350983D01*
X268027Y350918D01*
X268126Y350849D01*
X268223Y350778D01*
X268317Y350703D01*
X268408Y350626D01*
X268497Y350545D01*
X268583Y350461D01*
X268667Y350375D01*
X268748Y350286D01*
X268825Y350195D01*
X268900Y350101D01*
X268971Y350004D01*
X269040Y349905D01*
X269105Y349804D01*
X269166Y349702D01*
X269225Y349597D01*
X269280Y349490D01*
X269331Y349381D01*
X269379Y349271D01*
X269423Y349159D01*
X269463Y349046D01*
X269500Y348932D01*
X269533Y348817D01*
X269562Y348700D01*
X269588Y348583D01*
X269609Y348465D01*
X269627Y348346D01*
X269640Y348227D01*
X269650Y348107D01*
X269656Y347987D01*
X269658Y347867D01*
X269656Y347747D01*
X269650Y347627D01*
X269640Y347507D01*
X269627Y347388D01*
X269609Y347269D01*
X269588Y347151D01*
X269562Y347034D01*
X269533Y346917D01*
X269500Y346802D01*
X269463Y346688D01*
X269423Y346575D01*
X269379Y346463D01*
X269331Y346353D01*
X269280Y346244D01*
X269225Y346137D01*
X269166Y346033D01*
X269105Y345930D01*
X269040Y345829D01*
X268971Y345730D01*
X268900Y345633D01*
X268825Y345539D01*
X268748Y345448D01*
X268667Y345359D01*
X268583Y345273D01*
X268497Y345189D01*
X268408Y345108D01*
X268317Y345031D01*
X268223Y344956D01*
X268126Y344885D01*
X268027Y344816D01*
X267926Y344751D01*
X267824Y344690D01*
X267719Y344631D01*
X267612Y344576D01*
X267503Y344525D01*
X267393Y344477D01*
X267281Y344433D01*
X267168Y344393D01*
X267054Y344356D01*
X266939Y344323D01*
X266822Y344294D01*
X266705Y344268D01*
X266587Y344247D01*
X266468Y344229D01*
X266349Y344216D01*
X266229Y344206D01*
X266109Y344200D01*
X265989Y344198D01*
X262320Y344198D01*
X266723Y344198D02*
X269658Y338328D01*
D15*
X204080Y75819D02*
X204080Y69032D01*
X204079Y69032D02*
X204081Y68931D01*
X204087Y68830D01*
X204097Y68729D01*
X204110Y68629D01*
X204128Y68529D01*
X204149Y68430D01*
X204175Y68332D01*
X204204Y68235D01*
X204236Y68139D01*
X204273Y68045D01*
X204313Y67952D01*
X204357Y67860D01*
X204404Y67771D01*
X204455Y67683D01*
X204509Y67597D01*
X204566Y67514D01*
X204626Y67432D01*
X204690Y67354D01*
X204756Y67277D01*
X204826Y67204D01*
X204898Y67133D01*
X204973Y67065D01*
X205051Y67000D01*
X205131Y66938D01*
X205213Y66879D01*
X205298Y66823D01*
X205385Y66771D01*
X205473Y66722D01*
X205564Y66676D01*
X205656Y66635D01*
X205750Y66596D01*
X205845Y66562D01*
X205941Y66531D01*
X206039Y66504D01*
X206137Y66480D01*
X206237Y66461D01*
X206337Y66445D01*
X206437Y66433D01*
X206538Y66425D01*
X206639Y66421D01*
X206741Y66421D01*
X206842Y66425D01*
X206943Y66433D01*
X207043Y66445D01*
X207143Y66461D01*
X207243Y66480D01*
X207341Y66504D01*
X207439Y66531D01*
X207535Y66562D01*
X207630Y66596D01*
X207724Y66635D01*
X207816Y66676D01*
X207907Y66722D01*
X207995Y66771D01*
X208082Y66823D01*
X208167Y66879D01*
X208249Y66938D01*
X208329Y67000D01*
X208407Y67065D01*
X208482Y67133D01*
X208554Y67204D01*
X208624Y67277D01*
X208690Y67354D01*
X208754Y67432D01*
X208814Y67514D01*
X208871Y67597D01*
X208925Y67683D01*
X208976Y67771D01*
X209023Y67860D01*
X209067Y67952D01*
X209107Y68045D01*
X209144Y68139D01*
X209176Y68235D01*
X209205Y68332D01*
X209231Y68430D01*
X209252Y68529D01*
X209270Y68629D01*
X209283Y68729D01*
X209293Y68830D01*
X209299Y68931D01*
X209301Y69032D01*
X209301Y75819D01*
X218445Y68509D02*
X218443Y68420D01*
X218437Y68332D01*
X218428Y68244D01*
X218415Y68156D01*
X218398Y68069D01*
X218378Y67983D01*
X218353Y67898D01*
X218326Y67813D01*
X218294Y67730D01*
X218260Y67649D01*
X218221Y67569D01*
X218180Y67491D01*
X218135Y67414D01*
X218087Y67340D01*
X218036Y67267D01*
X217982Y67197D01*
X217924Y67130D01*
X217864Y67064D01*
X217802Y67002D01*
X217736Y66942D01*
X217669Y66884D01*
X217599Y66830D01*
X217526Y66779D01*
X217452Y66731D01*
X217375Y66686D01*
X217297Y66645D01*
X217217Y66606D01*
X217136Y66572D01*
X217053Y66540D01*
X216968Y66513D01*
X216883Y66488D01*
X216797Y66468D01*
X216710Y66451D01*
X216622Y66438D01*
X216534Y66429D01*
X216446Y66423D01*
X216357Y66421D01*
X216228Y66423D01*
X216099Y66429D01*
X215970Y66438D01*
X215842Y66451D01*
X215714Y66468D01*
X215587Y66489D01*
X215460Y66513D01*
X215334Y66541D01*
X215209Y66573D01*
X215085Y66608D01*
X214962Y66647D01*
X214840Y66690D01*
X214720Y66736D01*
X214601Y66786D01*
X214483Y66839D01*
X214367Y66895D01*
X214253Y66955D01*
X214140Y67018D01*
X214030Y67085D01*
X213921Y67154D01*
X213815Y67227D01*
X213710Y67303D01*
X213608Y67382D01*
X213509Y67464D01*
X213411Y67548D01*
X213316Y67636D01*
X213224Y67726D01*
X213485Y73731D02*
X213487Y73820D01*
X213493Y73908D01*
X213502Y73996D01*
X213515Y74084D01*
X213532Y74171D01*
X213552Y74257D01*
X213577Y74342D01*
X213604Y74427D01*
X213636Y74510D01*
X213670Y74591D01*
X213709Y74671D01*
X213750Y74749D01*
X213795Y74826D01*
X213843Y74900D01*
X213894Y74973D01*
X213948Y75043D01*
X214006Y75110D01*
X214066Y75176D01*
X214128Y75238D01*
X214194Y75298D01*
X214261Y75356D01*
X214331Y75410D01*
X214404Y75461D01*
X214478Y75509D01*
X214555Y75554D01*
X214633Y75595D01*
X214713Y75634D01*
X214794Y75668D01*
X214877Y75700D01*
X214962Y75727D01*
X215047Y75752D01*
X215133Y75772D01*
X215220Y75789D01*
X215308Y75802D01*
X215396Y75811D01*
X215484Y75817D01*
X215573Y75819D01*
X215693Y75817D01*
X215813Y75812D01*
X215933Y75802D01*
X216052Y75790D01*
X216171Y75773D01*
X216289Y75753D01*
X216407Y75729D01*
X216523Y75702D01*
X216639Y75671D01*
X216754Y75637D01*
X216868Y75599D01*
X216981Y75557D01*
X217092Y75512D01*
X217202Y75464D01*
X217310Y75413D01*
X217417Y75358D01*
X217522Y75300D01*
X217625Y75238D01*
X217726Y75174D01*
X217826Y75106D01*
X217923Y75036D01*
X214529Y71904D02*
X214451Y71952D01*
X214375Y72004D01*
X214302Y72058D01*
X214231Y72116D01*
X214162Y72177D01*
X214096Y72241D01*
X214033Y72308D01*
X213973Y72377D01*
X213916Y72449D01*
X213862Y72523D01*
X213812Y72600D01*
X213764Y72679D01*
X213721Y72759D01*
X213680Y72842D01*
X213644Y72926D01*
X213611Y73011D01*
X213582Y73098D01*
X213556Y73187D01*
X213534Y73276D01*
X213517Y73366D01*
X213503Y73456D01*
X213493Y73548D01*
X213487Y73639D01*
X213485Y73731D01*
X217401Y70336D02*
X217479Y70288D01*
X217555Y70236D01*
X217628Y70182D01*
X217699Y70124D01*
X217768Y70063D01*
X217834Y69999D01*
X217897Y69932D01*
X217957Y69863D01*
X218014Y69791D01*
X218068Y69717D01*
X218118Y69640D01*
X218166Y69561D01*
X218209Y69481D01*
X218250Y69398D01*
X218286Y69314D01*
X218319Y69229D01*
X218348Y69142D01*
X218374Y69053D01*
X218396Y68964D01*
X218413Y68874D01*
X218427Y68784D01*
X218437Y68692D01*
X218443Y68601D01*
X218445Y68509D01*
X217401Y70337D02*
X214529Y71903D01*
X222499Y71642D02*
X225110Y71642D01*
X225110Y71643D02*
X225211Y71641D01*
X225312Y71635D01*
X225413Y71625D01*
X225513Y71612D01*
X225613Y71594D01*
X225712Y71573D01*
X225810Y71547D01*
X225907Y71518D01*
X226003Y71486D01*
X226097Y71449D01*
X226190Y71409D01*
X226282Y71365D01*
X226371Y71318D01*
X226459Y71267D01*
X226545Y71213D01*
X226628Y71156D01*
X226710Y71096D01*
X226788Y71032D01*
X226865Y70966D01*
X226938Y70896D01*
X227009Y70824D01*
X227077Y70749D01*
X227142Y70671D01*
X227204Y70591D01*
X227263Y70509D01*
X227319Y70424D01*
X227371Y70337D01*
X227420Y70249D01*
X227466Y70158D01*
X227507Y70066D01*
X227546Y69972D01*
X227580Y69877D01*
X227611Y69781D01*
X227638Y69683D01*
X227662Y69585D01*
X227681Y69485D01*
X227697Y69385D01*
X227709Y69285D01*
X227717Y69184D01*
X227721Y69083D01*
X227721Y68981D01*
X227717Y68880D01*
X227709Y68779D01*
X227697Y68679D01*
X227681Y68579D01*
X227662Y68479D01*
X227638Y68381D01*
X227611Y68283D01*
X227580Y68187D01*
X227546Y68092D01*
X227507Y67998D01*
X227466Y67906D01*
X227420Y67815D01*
X227371Y67726D01*
X227319Y67640D01*
X227263Y67555D01*
X227204Y67473D01*
X227142Y67393D01*
X227077Y67315D01*
X227009Y67240D01*
X226938Y67168D01*
X226865Y67098D01*
X226788Y67032D01*
X226710Y66968D01*
X226628Y66908D01*
X226545Y66851D01*
X226459Y66797D01*
X226371Y66746D01*
X226282Y66699D01*
X226190Y66655D01*
X226097Y66615D01*
X226003Y66578D01*
X225907Y66546D01*
X225810Y66517D01*
X225712Y66491D01*
X225613Y66470D01*
X225513Y66452D01*
X225413Y66439D01*
X225312Y66429D01*
X225211Y66423D01*
X225110Y66421D01*
X222499Y66421D01*
X222499Y75819D01*
X225110Y75819D01*
X225200Y75817D01*
X225289Y75811D01*
X225379Y75802D01*
X225468Y75788D01*
X225556Y75771D01*
X225643Y75750D01*
X225730Y75725D01*
X225815Y75696D01*
X225899Y75664D01*
X225981Y75629D01*
X226062Y75589D01*
X226141Y75547D01*
X226218Y75501D01*
X226293Y75451D01*
X226366Y75399D01*
X226437Y75343D01*
X226505Y75285D01*
X226570Y75223D01*
X226633Y75159D01*
X226693Y75092D01*
X226750Y75023D01*
X226804Y74951D01*
X226855Y74877D01*
X226903Y74801D01*
X226947Y74723D01*
X226988Y74643D01*
X227026Y74561D01*
X227060Y74478D01*
X227090Y74393D01*
X227117Y74307D01*
X227140Y74221D01*
X227159Y74133D01*
X227174Y74044D01*
X227186Y73955D01*
X227194Y73866D01*
X227198Y73776D01*
X227198Y73686D01*
X227194Y73596D01*
X227186Y73507D01*
X227174Y73418D01*
X227159Y73329D01*
X227140Y73241D01*
X227117Y73155D01*
X227090Y73069D01*
X227060Y72984D01*
X227026Y72901D01*
X226988Y72819D01*
X226947Y72739D01*
X226903Y72661D01*
X226855Y72585D01*
X226804Y72511D01*
X226750Y72439D01*
X226693Y72370D01*
X226633Y72303D01*
X226570Y72239D01*
X226505Y72177D01*
X226437Y72119D01*
X226366Y72063D01*
X226293Y72011D01*
X226218Y71961D01*
X226141Y71915D01*
X226062Y71873D01*
X225981Y71833D01*
X225899Y71798D01*
X225815Y71766D01*
X225730Y71737D01*
X225643Y71712D01*
X225556Y71691D01*
X225468Y71674D01*
X225379Y71660D01*
X225289Y71651D01*
X225200Y71645D01*
X225110Y71643D01*
X196722Y60579D02*
X196722Y51181D01*
X199854Y55358D02*
X196722Y60579D01*
X199854Y55358D02*
X202987Y60579D01*
X202987Y51181D01*
X208084Y51181D02*
X208084Y60579D01*
X207040Y51181D02*
X209128Y51181D01*
X209128Y60579D02*
X207040Y60579D01*
X214851Y51181D02*
X216940Y51181D01*
X214851Y51181D02*
X214762Y51183D01*
X214674Y51189D01*
X214586Y51198D01*
X214498Y51211D01*
X214411Y51228D01*
X214325Y51248D01*
X214240Y51273D01*
X214155Y51300D01*
X214072Y51332D01*
X213991Y51366D01*
X213911Y51405D01*
X213833Y51446D01*
X213756Y51491D01*
X213682Y51539D01*
X213609Y51590D01*
X213539Y51644D01*
X213472Y51702D01*
X213406Y51762D01*
X213344Y51824D01*
X213284Y51890D01*
X213226Y51957D01*
X213172Y52027D01*
X213121Y52100D01*
X213073Y52174D01*
X213028Y52251D01*
X212987Y52329D01*
X212948Y52409D01*
X212914Y52490D01*
X212882Y52573D01*
X212855Y52658D01*
X212830Y52743D01*
X212810Y52829D01*
X212793Y52916D01*
X212780Y53004D01*
X212771Y53092D01*
X212765Y53180D01*
X212763Y53269D01*
X212763Y58491D01*
X212765Y58582D01*
X212771Y58673D01*
X212781Y58764D01*
X212795Y58854D01*
X212812Y58943D01*
X212834Y59031D01*
X212860Y59119D01*
X212889Y59205D01*
X212922Y59290D01*
X212959Y59373D01*
X212999Y59455D01*
X213043Y59535D01*
X213090Y59613D01*
X213141Y59689D01*
X213194Y59762D01*
X213251Y59833D01*
X213312Y59902D01*
X213375Y59967D01*
X213440Y60030D01*
X213509Y60090D01*
X213580Y60148D01*
X213653Y60201D01*
X213729Y60252D01*
X213807Y60299D01*
X213887Y60343D01*
X213969Y60383D01*
X214052Y60420D01*
X214137Y60453D01*
X214223Y60482D01*
X214311Y60508D01*
X214399Y60530D01*
X214488Y60547D01*
X214578Y60561D01*
X214669Y60571D01*
X214760Y60577D01*
X214851Y60579D01*
X216940Y60579D01*
X220770Y60579D02*
X220770Y51181D01*
X220770Y60579D02*
X223381Y60579D01*
X223482Y60577D01*
X223583Y60571D01*
X223684Y60561D01*
X223784Y60548D01*
X223884Y60530D01*
X223983Y60509D01*
X224081Y60483D01*
X224178Y60454D01*
X224274Y60422D01*
X224368Y60385D01*
X224461Y60345D01*
X224553Y60301D01*
X224642Y60254D01*
X224730Y60203D01*
X224816Y60149D01*
X224899Y60092D01*
X224981Y60032D01*
X225059Y59968D01*
X225136Y59902D01*
X225209Y59832D01*
X225280Y59760D01*
X225348Y59685D01*
X225413Y59607D01*
X225475Y59527D01*
X225534Y59445D01*
X225590Y59360D01*
X225642Y59273D01*
X225691Y59185D01*
X225737Y59094D01*
X225778Y59002D01*
X225817Y58908D01*
X225851Y58813D01*
X225882Y58717D01*
X225909Y58619D01*
X225933Y58521D01*
X225952Y58421D01*
X225968Y58321D01*
X225980Y58221D01*
X225988Y58120D01*
X225992Y58019D01*
X225992Y57917D01*
X225988Y57816D01*
X225980Y57715D01*
X225968Y57615D01*
X225952Y57515D01*
X225933Y57415D01*
X225909Y57317D01*
X225882Y57219D01*
X225851Y57123D01*
X225817Y57028D01*
X225778Y56934D01*
X225737Y56842D01*
X225691Y56751D01*
X225642Y56662D01*
X225590Y56576D01*
X225534Y56491D01*
X225475Y56409D01*
X225413Y56329D01*
X225348Y56251D01*
X225280Y56176D01*
X225209Y56104D01*
X225136Y56034D01*
X225059Y55968D01*
X224981Y55904D01*
X224899Y55844D01*
X224816Y55787D01*
X224730Y55733D01*
X224642Y55682D01*
X224553Y55635D01*
X224461Y55591D01*
X224368Y55551D01*
X224274Y55514D01*
X224178Y55482D01*
X224081Y55453D01*
X223983Y55427D01*
X223884Y55406D01*
X223784Y55388D01*
X223684Y55375D01*
X223583Y55365D01*
X223482Y55359D01*
X223381Y55357D01*
X223381Y55358D02*
X220770Y55358D01*
X223903Y55358D02*
X225991Y51181D01*
X229857Y53792D02*
X229857Y57968D01*
X229859Y58069D01*
X229865Y58170D01*
X229875Y58271D01*
X229888Y58371D01*
X229906Y58471D01*
X229927Y58570D01*
X229953Y58668D01*
X229982Y58765D01*
X230014Y58861D01*
X230051Y58955D01*
X230091Y59048D01*
X230135Y59140D01*
X230182Y59229D01*
X230233Y59317D01*
X230287Y59403D01*
X230344Y59486D01*
X230404Y59568D01*
X230468Y59646D01*
X230534Y59723D01*
X230604Y59796D01*
X230676Y59867D01*
X230751Y59935D01*
X230829Y60000D01*
X230909Y60062D01*
X230991Y60121D01*
X231076Y60177D01*
X231163Y60229D01*
X231251Y60278D01*
X231342Y60324D01*
X231434Y60365D01*
X231528Y60404D01*
X231623Y60438D01*
X231719Y60469D01*
X231817Y60496D01*
X231915Y60520D01*
X232015Y60539D01*
X232115Y60555D01*
X232215Y60567D01*
X232316Y60575D01*
X232417Y60579D01*
X232519Y60579D01*
X232620Y60575D01*
X232721Y60567D01*
X232821Y60555D01*
X232921Y60539D01*
X233021Y60520D01*
X233119Y60496D01*
X233217Y60469D01*
X233313Y60438D01*
X233408Y60404D01*
X233502Y60365D01*
X233594Y60324D01*
X233685Y60278D01*
X233774Y60229D01*
X233860Y60177D01*
X233945Y60121D01*
X234027Y60062D01*
X234107Y60000D01*
X234185Y59935D01*
X234260Y59867D01*
X234332Y59796D01*
X234402Y59723D01*
X234468Y59646D01*
X234532Y59568D01*
X234592Y59486D01*
X234649Y59403D01*
X234703Y59317D01*
X234754Y59229D01*
X234801Y59140D01*
X234845Y59048D01*
X234885Y58955D01*
X234922Y58861D01*
X234954Y58765D01*
X234983Y58668D01*
X235009Y58570D01*
X235030Y58471D01*
X235048Y58371D01*
X235061Y58271D01*
X235071Y58170D01*
X235077Y58069D01*
X235079Y57968D01*
X235078Y57968D02*
X235078Y53792D01*
X235079Y53792D02*
X235077Y53691D01*
X235071Y53590D01*
X235061Y53489D01*
X235048Y53389D01*
X235030Y53289D01*
X235009Y53190D01*
X234983Y53092D01*
X234954Y52995D01*
X234922Y52899D01*
X234885Y52805D01*
X234845Y52712D01*
X234801Y52620D01*
X234754Y52531D01*
X234703Y52443D01*
X234649Y52357D01*
X234592Y52274D01*
X234532Y52192D01*
X234468Y52114D01*
X234402Y52037D01*
X234332Y51964D01*
X234260Y51893D01*
X234185Y51825D01*
X234107Y51760D01*
X234027Y51698D01*
X233945Y51639D01*
X233860Y51583D01*
X233773Y51531D01*
X233685Y51482D01*
X233594Y51436D01*
X233502Y51395D01*
X233408Y51356D01*
X233313Y51322D01*
X233217Y51291D01*
X233119Y51264D01*
X233021Y51240D01*
X232921Y51221D01*
X232821Y51205D01*
X232721Y51193D01*
X232620Y51185D01*
X232519Y51181D01*
X232417Y51181D01*
X232316Y51185D01*
X232215Y51193D01*
X232115Y51205D01*
X232015Y51221D01*
X231915Y51240D01*
X231817Y51264D01*
X231719Y51291D01*
X231623Y51322D01*
X231528Y51356D01*
X231434Y51395D01*
X231342Y51436D01*
X231251Y51482D01*
X231163Y51531D01*
X231076Y51583D01*
X230991Y51639D01*
X230909Y51698D01*
X230829Y51760D01*
X230751Y51825D01*
X230676Y51893D01*
X230604Y51964D01*
X230534Y52037D01*
X230468Y52114D01*
X230404Y52192D01*
X230344Y52274D01*
X230287Y52357D01*
X230233Y52443D01*
X230182Y52531D01*
X230135Y52620D01*
X230091Y52712D01*
X230051Y52805D01*
X230014Y52899D01*
X229982Y52995D01*
X229953Y53092D01*
X229927Y53190D01*
X229906Y53289D01*
X229888Y53389D01*
X229875Y53489D01*
X229865Y53590D01*
X229859Y53691D01*
X229857Y53792D01*
D14*
X139700Y101600D02*
X101600Y101600D01*
X101600Y50800D01*
X139700Y50800D01*
X139700Y101600D01*
D13*
X108759Y83884D02*
X108759Y78042D01*
X108759Y83884D02*
X110381Y83884D01*
X110461Y83882D01*
X110540Y83876D01*
X110619Y83866D01*
X110698Y83853D01*
X110775Y83835D01*
X110852Y83814D01*
X110928Y83789D01*
X111002Y83760D01*
X111075Y83728D01*
X111146Y83692D01*
X111215Y83653D01*
X111283Y83610D01*
X111348Y83565D01*
X111411Y83516D01*
X111471Y83464D01*
X111529Y83409D01*
X111584Y83351D01*
X111636Y83291D01*
X111685Y83228D01*
X111730Y83163D01*
X111773Y83095D01*
X111812Y83026D01*
X111848Y82955D01*
X111880Y82882D01*
X111909Y82808D01*
X111934Y82732D01*
X111955Y82655D01*
X111973Y82578D01*
X111986Y82499D01*
X111996Y82420D01*
X112002Y82341D01*
X112004Y82261D01*
X112002Y82181D01*
X111996Y82102D01*
X111986Y82023D01*
X111973Y81944D01*
X111955Y81867D01*
X111934Y81790D01*
X111909Y81714D01*
X111880Y81640D01*
X111848Y81567D01*
X111812Y81496D01*
X111773Y81427D01*
X111730Y81359D01*
X111685Y81294D01*
X111636Y81231D01*
X111584Y81171D01*
X111529Y81113D01*
X111471Y81058D01*
X111411Y81006D01*
X111348Y80957D01*
X111283Y80912D01*
X111215Y80869D01*
X111146Y80830D01*
X111075Y80794D01*
X111002Y80762D01*
X110928Y80733D01*
X110852Y80708D01*
X110775Y80687D01*
X110698Y80669D01*
X110619Y80656D01*
X110540Y80646D01*
X110461Y80640D01*
X110381Y80638D01*
X108759Y80638D01*
X110706Y80638D02*
X112004Y78042D01*
X114639Y78042D02*
X117235Y78042D01*
X114639Y78042D02*
X114639Y83884D01*
X117235Y83884D01*
X116586Y81287D02*
X114639Y81287D01*
X121147Y78042D02*
X121217Y78044D01*
X121287Y78050D01*
X121357Y78059D01*
X121426Y78072D01*
X121494Y78089D01*
X121561Y78110D01*
X121627Y78134D01*
X121692Y78162D01*
X121755Y78193D01*
X121816Y78228D01*
X121875Y78266D01*
X121933Y78307D01*
X121987Y78351D01*
X122040Y78398D01*
X122089Y78447D01*
X122136Y78500D01*
X122180Y78554D01*
X122221Y78612D01*
X122259Y78671D01*
X122294Y78732D01*
X122325Y78795D01*
X122353Y78860D01*
X122377Y78926D01*
X122398Y78993D01*
X122415Y79061D01*
X122428Y79130D01*
X122437Y79200D01*
X122443Y79270D01*
X122445Y79340D01*
X121147Y78042D02*
X121044Y78044D01*
X120941Y78050D01*
X120838Y78059D01*
X120736Y78073D01*
X120635Y78090D01*
X120534Y78111D01*
X120434Y78136D01*
X120335Y78165D01*
X120237Y78197D01*
X120140Y78234D01*
X120045Y78273D01*
X119951Y78316D01*
X119859Y78363D01*
X119769Y78413D01*
X119681Y78467D01*
X119595Y78523D01*
X119511Y78583D01*
X119430Y78646D01*
X119351Y78712D01*
X119274Y78781D01*
X119200Y78853D01*
X119362Y82585D02*
X119364Y82655D01*
X119370Y82725D01*
X119379Y82795D01*
X119392Y82864D01*
X119409Y82932D01*
X119430Y82999D01*
X119454Y83065D01*
X119482Y83130D01*
X119513Y83193D01*
X119548Y83254D01*
X119586Y83313D01*
X119627Y83371D01*
X119671Y83425D01*
X119718Y83478D01*
X119767Y83527D01*
X119820Y83574D01*
X119874Y83618D01*
X119932Y83659D01*
X119991Y83697D01*
X120052Y83732D01*
X120115Y83763D01*
X120180Y83791D01*
X120246Y83815D01*
X120313Y83836D01*
X120381Y83853D01*
X120450Y83866D01*
X120520Y83875D01*
X120590Y83881D01*
X120660Y83883D01*
X120758Y83881D01*
X120856Y83875D01*
X120953Y83865D01*
X121050Y83852D01*
X121146Y83834D01*
X121242Y83812D01*
X121336Y83787D01*
X121430Y83758D01*
X121522Y83725D01*
X121613Y83689D01*
X121702Y83649D01*
X121790Y83605D01*
X121875Y83558D01*
X121959Y83507D01*
X122041Y83453D01*
X122120Y83396D01*
X120011Y81449D02*
X119953Y81486D01*
X119897Y81525D01*
X119843Y81567D01*
X119791Y81612D01*
X119742Y81659D01*
X119695Y81709D01*
X119651Y81761D01*
X119610Y81816D01*
X119571Y81873D01*
X119536Y81931D01*
X119503Y81991D01*
X119474Y82053D01*
X119448Y82116D01*
X119425Y82181D01*
X119406Y82247D01*
X119390Y82313D01*
X119378Y82381D01*
X119369Y82448D01*
X119364Y82517D01*
X119362Y82585D01*
X121796Y80476D02*
X121854Y80440D01*
X121910Y80401D01*
X121964Y80359D01*
X122016Y80314D01*
X122065Y80266D01*
X122112Y80216D01*
X122156Y80164D01*
X122197Y80110D01*
X122236Y80053D01*
X122271Y79994D01*
X122304Y79934D01*
X122333Y79872D01*
X122359Y79809D01*
X122382Y79744D01*
X122401Y79679D01*
X122417Y79612D01*
X122429Y79545D01*
X122438Y79477D01*
X122443Y79408D01*
X122445Y79340D01*
X121796Y80476D02*
X120011Y81449D01*
X124926Y78042D02*
X127522Y78042D01*
X124926Y78042D02*
X124926Y83884D01*
X127522Y83884D01*
X126873Y81287D02*
X124926Y81287D01*
X130919Y83884D02*
X130919Y78042D01*
X132541Y83884D02*
X129296Y83884D01*
X109223Y69815D02*
X109221Y69745D01*
X109215Y69675D01*
X109206Y69605D01*
X109193Y69536D01*
X109176Y69468D01*
X109155Y69401D01*
X109131Y69335D01*
X109103Y69270D01*
X109072Y69207D01*
X109037Y69146D01*
X108999Y69087D01*
X108958Y69029D01*
X108914Y68975D01*
X108867Y68922D01*
X108818Y68873D01*
X108765Y68826D01*
X108711Y68782D01*
X108653Y68741D01*
X108594Y68703D01*
X108533Y68668D01*
X108470Y68637D01*
X108405Y68609D01*
X108339Y68585D01*
X108272Y68564D01*
X108204Y68547D01*
X108135Y68534D01*
X108065Y68525D01*
X107995Y68519D01*
X107925Y68517D01*
X107822Y68519D01*
X107719Y68525D01*
X107616Y68534D01*
X107514Y68548D01*
X107413Y68565D01*
X107312Y68586D01*
X107212Y68611D01*
X107113Y68640D01*
X107015Y68672D01*
X106918Y68709D01*
X106823Y68748D01*
X106729Y68791D01*
X106637Y68838D01*
X106547Y68888D01*
X106459Y68942D01*
X106373Y68998D01*
X106289Y69058D01*
X106208Y69121D01*
X106129Y69187D01*
X106052Y69256D01*
X105978Y69328D01*
X106141Y73060D02*
X106143Y73130D01*
X106149Y73200D01*
X106158Y73270D01*
X106171Y73339D01*
X106188Y73407D01*
X106209Y73474D01*
X106233Y73540D01*
X106261Y73605D01*
X106292Y73668D01*
X106327Y73729D01*
X106365Y73788D01*
X106406Y73846D01*
X106450Y73900D01*
X106497Y73953D01*
X106546Y74002D01*
X106599Y74049D01*
X106653Y74093D01*
X106711Y74134D01*
X106770Y74172D01*
X106831Y74207D01*
X106894Y74238D01*
X106959Y74266D01*
X107025Y74290D01*
X107092Y74311D01*
X107160Y74328D01*
X107229Y74341D01*
X107299Y74350D01*
X107369Y74356D01*
X107439Y74358D01*
X107537Y74356D01*
X107635Y74350D01*
X107732Y74340D01*
X107829Y74327D01*
X107925Y74309D01*
X108021Y74287D01*
X108115Y74262D01*
X108209Y74233D01*
X108301Y74200D01*
X108392Y74164D01*
X108481Y74124D01*
X108569Y74080D01*
X108654Y74033D01*
X108738Y73982D01*
X108820Y73928D01*
X108899Y73871D01*
X106790Y71924D02*
X106732Y71961D01*
X106676Y72000D01*
X106622Y72042D01*
X106570Y72087D01*
X106521Y72134D01*
X106474Y72184D01*
X106430Y72236D01*
X106389Y72291D01*
X106350Y72348D01*
X106315Y72406D01*
X106282Y72466D01*
X106253Y72528D01*
X106227Y72591D01*
X106204Y72656D01*
X106185Y72722D01*
X106169Y72788D01*
X106157Y72856D01*
X106148Y72923D01*
X106143Y72992D01*
X106141Y73060D01*
X108575Y70951D02*
X108633Y70915D01*
X108689Y70876D01*
X108743Y70834D01*
X108795Y70789D01*
X108844Y70741D01*
X108891Y70691D01*
X108935Y70639D01*
X108976Y70585D01*
X109015Y70528D01*
X109050Y70469D01*
X109083Y70409D01*
X109112Y70347D01*
X109138Y70284D01*
X109161Y70219D01*
X109180Y70154D01*
X109196Y70087D01*
X109208Y70020D01*
X109217Y69952D01*
X109222Y69883D01*
X109224Y69815D01*
X108574Y70951D02*
X106789Y71924D01*
X111291Y74359D02*
X112589Y68517D01*
X113887Y72411D01*
X115186Y68517D01*
X116484Y74359D01*
X119221Y74359D02*
X119221Y68517D01*
X118572Y68517D02*
X119870Y68517D01*
X119870Y74359D02*
X118572Y74359D01*
X123412Y74359D02*
X123412Y68517D01*
X121789Y74359D02*
X125035Y74359D01*
X128405Y68517D02*
X129703Y68517D01*
X128405Y68517D02*
X128335Y68519D01*
X128265Y68525D01*
X128195Y68534D01*
X128126Y68547D01*
X128058Y68564D01*
X127991Y68585D01*
X127925Y68609D01*
X127860Y68637D01*
X127797Y68668D01*
X127736Y68703D01*
X127677Y68741D01*
X127619Y68782D01*
X127565Y68826D01*
X127512Y68873D01*
X127463Y68922D01*
X127416Y68975D01*
X127372Y69029D01*
X127331Y69087D01*
X127293Y69146D01*
X127258Y69207D01*
X127227Y69270D01*
X127199Y69335D01*
X127175Y69401D01*
X127154Y69468D01*
X127137Y69536D01*
X127124Y69605D01*
X127115Y69675D01*
X127109Y69745D01*
X127107Y69815D01*
X127107Y73060D01*
X127109Y73130D01*
X127115Y73200D01*
X127124Y73270D01*
X127137Y73339D01*
X127154Y73407D01*
X127175Y73474D01*
X127199Y73540D01*
X127227Y73605D01*
X127258Y73668D01*
X127293Y73729D01*
X127331Y73788D01*
X127372Y73846D01*
X127416Y73900D01*
X127463Y73953D01*
X127512Y74002D01*
X127565Y74049D01*
X127619Y74093D01*
X127677Y74134D01*
X127736Y74172D01*
X127797Y74207D01*
X127860Y74238D01*
X127925Y74266D01*
X127991Y74290D01*
X128058Y74311D01*
X128126Y74328D01*
X128195Y74341D01*
X128265Y74350D01*
X128335Y74356D01*
X128405Y74358D01*
X128405Y74359D02*
X129703Y74359D01*
X132076Y74359D02*
X132076Y68517D01*
X132076Y71762D02*
X135322Y71762D01*
X135322Y74359D02*
X135322Y68517D01*
M02*
