<svg xmlns:rdf="http://www.w3.org/1999/02/22-rdf-syntax-ns#" xmlns:svg="http://www.w3.org/2000/svg" xmlns="http://www.w3.org/2000/svg" version="1.1" x="0px" y="0px" viewBox="0 0 52 52.000038"><g transform="translate(-24,-976.36216)"><path d="m 50,976.36216 c -3.3136,0 -6,2.6863 -6,6 v 14 H 30 c -3.3137,0 -6,2.6862 -6,6.00004 0,3.3136 2.6863,6 6,6 h 14 v 14 c 0,3.3137 2.6864,6 6,6 3.3138,0 6,-2.6863 6,-6 v -14 h 14 c 3.3137,0 6,-2.6864 6,-6 0,-3.31384 -2.6863,-6.00004 -6,-6.00004 H 56 v -14 c 0,-3.3137 -2.6862,-6 -6,-6 z" /></g></svg>
