<svg height='300px' width='300px'  fill="#000000" xmlns="http://www.w3.org/2000/svg" viewBox="0 0 48 48" x="0px" y="0px"><path d="M19,19V29H29V19Zm0,0V29H29V19ZM26,6H25V2a1,1,0,0,0-2,0V6H22a1,1,0,0,0-1,1V9h6V7A1,1,0,0,0,26,6ZM19,19V29H29V19Zm0,0V29H29V19Zm0,0V29H29V19Zm0,0V29H29V19Zm2,20v2a1,1,0,0,0,1,1h1v4a1,1,0,0,0,2,0V42h1a1,1,0,0,0,1-1V39ZM19,19V29H29V19Zm0,0V29H29V19Zm16-9H13a3,3,0,0,0-3,3V35a3,3,0,0,0,3,3H35a3,3,0,0,0,3-3V13A3,3,0,0,0,35,10ZM31,30a1,1,0,0,1-1,1H18a1,1,0,0,1-1-1V18a1,1,0,0,1,1-1H30a1,1,0,0,1,1,1ZM19,29H29V19H19ZM13,41a1,1,0,0,0,1,1h1v4a1,1,0,0,0,2,0V42h1a1,1,0,0,0,1-1V39H13Zm6-22V29H29V19ZM29,39v2a1,1,0,0,0,1,1h1v4a1,1,0,0,0,2,0V42h1a1,1,0,0,0,1-1V39ZM19,19V29H29V19Zm0,0V29H29V19Zm0,0V29H29V19ZM18,6H17V2a1,1,0,0,0-2,0V6H14a1,1,0,0,0-1,1V9h6V7A1,1,0,0,0,18,6Zm1,13V29H29V19ZM34,6H33V2a1,1,0,0,0-2,0V6H30a1,1,0,0,0-1,1V9h6V7A1,1,0,0,0,34,6ZM19,19V29H29V19Z"></path></svg>