<svg xmlns="http://www.w3.org/2000/svg" viewBox="0 0 100 100" x="0px" y="0px"><path fill-rule="evenodd" d="M653.463005,2260.06135 L632.039039,2281.47761 C628.408569,2285.11222 628.408569,2291.0208 632.039039,2294.66007 L635.333958,2297.94986 C638.861899,2301.4773 644.999676,2301.47264 648.518296,2297.94986 L658.640736,2287.83352 C660.462961,2286.01156 663.413009,2286.01156 665.230574,2287.83352 C667.0528,2289.65083 667.0528,2292.60046 665.230574,2294.42242 L655.108135,2304.53876 C651.589515,2308.05688 646.91045,2310 641.928457,2310 C636.946465,2310 632.2674,2308.06154 628.744119,2304.5341 L625.4492,2301.24897 C618.1836,2293.97975 618.1836,2282.15328 625.4492,2274.88871 L646.873167,2253.46779 C650.396447,2249.94967 655.075512,2248.01121 660.052844,2248.01121 C665.030176,2248.01121 669.713902,2249.94967 673.237182,2253.47711 L676.527441,2256.76224 C678.349666,2258.58421 678.349666,2261.53384 676.527441,2263.3558 C674.709876,2265.17777 671.759828,2265.17777 669.937602,2263.3558 L666.642683,2260.06135 C663.124063,2256.53858 656.986285,2256.53858 653.463005,2260.06135 Z M683.123338,2276.53687 C679.600058,2280.05033 674.920993,2281.99345 669.939,2281.99345 C664.957008,2281.99345 660.282603,2280.05033 656.759323,2276.52755 C654.941758,2274.70558 654.941758,2271.76527 656.763983,2269.93865 C658.581548,2268.12134 661.531596,2268.12134 663.353822,2269.94331 C666.872442,2273.46608 673.010219,2273.46608 676.528839,2269.93865 L697.952805,2248.52705 C699.709785,2246.76566 700.679153,2244.42646 700.679153,2241.93815 C700.679153,2239.44518 699.709785,2237.10598 697.952805,2235.34925 L694.657886,2232.0548 C692.896246,2230.28875 690.556713,2229.31952 688.063387,2229.31952 C685.574721,2229.31952 683.235188,2230.28875 681.473548,2232.0548 L672.222608,2241.29976 C670.400382,2243.12639 667.450334,2243.12639 665.628109,2241.29976 C663.810543,2239.48246 663.810543,2236.53283 665.632769,2234.71086 L674.883709,2225.46124 C678.402329,2221.93846 683.086055,2220 688.063387,2220 C693.04538,2220 697.724445,2221.93846 701.247725,2225.46124 L704.542644,2228.76035 C708.065924,2232.27847 710,2236.95687 710,2241.93815 C710,2246.91477 708.065924,2251.59317 704.542644,2255.11595 L683.123338,2276.53687 Z" transform="translate(-615 -2215)"></path></svg>