G04 EAGLE Gerber X2 export*
%TF.Part,Single*%
%TF.FileFunction,Profile,NP*%
%TF.FilePolarity,Positive*%
%TF.GenerationSoftware,Autodesk,EAGLE,9.0.1*%
%TF.CreationDate,2018-06-20T13:34:44Z*%
G75*
%MOMM*%
%FSLAX34Y34*%
%LPD*%
%AMOC8*
5,1,8,0,0,1.08239X$1,22.5*%
G01*
%ADD10C,0.254000*%


D10*
X0Y0D02*
X519940Y0D01*
X519940Y571400D01*
X0Y571400D01*
X0Y0D01*
X55601Y37527D02*
X55526Y36384D01*
X55376Y35248D01*
X55153Y34124D01*
X54856Y33017D01*
X54488Y31932D01*
X54049Y30874D01*
X53542Y29846D01*
X52970Y28854D01*
X52333Y27901D01*
X51635Y26992D01*
X50880Y26130D01*
X50070Y25320D01*
X49208Y24565D01*
X48299Y23867D01*
X47346Y23231D01*
X46354Y22658D01*
X45327Y22151D01*
X44268Y21712D01*
X43183Y21344D01*
X42076Y21047D01*
X40952Y20824D01*
X39816Y20674D01*
X38673Y20599D01*
X37527Y20599D01*
X36384Y20674D01*
X35248Y20824D01*
X34124Y21047D01*
X33017Y21344D01*
X31932Y21712D01*
X30874Y22151D01*
X29846Y22658D01*
X28854Y23231D01*
X27901Y23867D01*
X26992Y24565D01*
X26130Y25320D01*
X25320Y26130D01*
X24565Y26992D01*
X23867Y27901D01*
X23231Y28854D01*
X22658Y29846D01*
X22151Y30874D01*
X21712Y31932D01*
X21344Y33017D01*
X21047Y34124D01*
X20824Y35248D01*
X20674Y36384D01*
X20599Y37527D01*
X20599Y38673D01*
X20674Y39816D01*
X20824Y40952D01*
X21047Y42076D01*
X21344Y43183D01*
X21712Y44268D01*
X22151Y45327D01*
X22658Y46354D01*
X23231Y47346D01*
X23867Y48299D01*
X24565Y49208D01*
X25320Y50070D01*
X26130Y50880D01*
X26992Y51635D01*
X27901Y52333D01*
X28854Y52970D01*
X29846Y53542D01*
X30874Y54049D01*
X31932Y54488D01*
X33017Y54856D01*
X34124Y55153D01*
X35248Y55376D01*
X36384Y55526D01*
X37527Y55601D01*
X38673Y55601D01*
X39816Y55526D01*
X40952Y55376D01*
X42076Y55153D01*
X43183Y54856D01*
X44268Y54488D01*
X45327Y54049D01*
X46354Y53542D01*
X47346Y52970D01*
X48299Y52333D01*
X49208Y51635D01*
X50070Y50880D01*
X50880Y50070D01*
X51635Y49208D01*
X52333Y48299D01*
X52970Y47346D01*
X53542Y46354D01*
X54049Y45327D01*
X54488Y44268D01*
X54856Y43183D01*
X55153Y42076D01*
X55376Y40952D01*
X55526Y39816D01*
X55601Y38673D01*
X55601Y37527D01*
X500101Y37527D02*
X500026Y36384D01*
X499876Y35248D01*
X499653Y34124D01*
X499356Y33017D01*
X498988Y31932D01*
X498549Y30874D01*
X498042Y29846D01*
X497470Y28854D01*
X496833Y27901D01*
X496135Y26992D01*
X495380Y26130D01*
X494570Y25320D01*
X493708Y24565D01*
X492799Y23867D01*
X491846Y23231D01*
X490854Y22658D01*
X489827Y22151D01*
X488768Y21712D01*
X487683Y21344D01*
X486576Y21047D01*
X485452Y20824D01*
X484316Y20674D01*
X483173Y20599D01*
X482027Y20599D01*
X480884Y20674D01*
X479748Y20824D01*
X478624Y21047D01*
X477517Y21344D01*
X476432Y21712D01*
X475374Y22151D01*
X474346Y22658D01*
X473354Y23231D01*
X472401Y23867D01*
X471492Y24565D01*
X470630Y25320D01*
X469820Y26130D01*
X469065Y26992D01*
X468367Y27901D01*
X467731Y28854D01*
X467158Y29846D01*
X466651Y30874D01*
X466212Y31932D01*
X465844Y33017D01*
X465547Y34124D01*
X465324Y35248D01*
X465174Y36384D01*
X465099Y37527D01*
X465099Y38673D01*
X465174Y39816D01*
X465324Y40952D01*
X465547Y42076D01*
X465844Y43183D01*
X466212Y44268D01*
X466651Y45327D01*
X467158Y46354D01*
X467731Y47346D01*
X468367Y48299D01*
X469065Y49208D01*
X469820Y50070D01*
X470630Y50880D01*
X471492Y51635D01*
X472401Y52333D01*
X473354Y52970D01*
X474346Y53542D01*
X475374Y54049D01*
X476432Y54488D01*
X477517Y54856D01*
X478624Y55153D01*
X479748Y55376D01*
X480884Y55526D01*
X482027Y55601D01*
X483173Y55601D01*
X484316Y55526D01*
X485452Y55376D01*
X486576Y55153D01*
X487683Y54856D01*
X488768Y54488D01*
X489827Y54049D01*
X490854Y53542D01*
X491846Y52970D01*
X492799Y52333D01*
X493708Y51635D01*
X494570Y50880D01*
X495380Y50070D01*
X496135Y49208D01*
X496833Y48299D01*
X497470Y47346D01*
X498042Y46354D01*
X498549Y45327D01*
X498988Y44268D01*
X499356Y43183D01*
X499653Y42076D01*
X499876Y40952D01*
X500026Y39816D01*
X500101Y38673D01*
X500101Y37527D01*
X55601Y532827D02*
X55526Y531684D01*
X55376Y530548D01*
X55153Y529424D01*
X54856Y528317D01*
X54488Y527232D01*
X54049Y526174D01*
X53542Y525146D01*
X52970Y524154D01*
X52333Y523201D01*
X51635Y522292D01*
X50880Y521430D01*
X50070Y520620D01*
X49208Y519865D01*
X48299Y519167D01*
X47346Y518531D01*
X46354Y517958D01*
X45327Y517451D01*
X44268Y517012D01*
X43183Y516644D01*
X42076Y516347D01*
X40952Y516124D01*
X39816Y515974D01*
X38673Y515899D01*
X37527Y515899D01*
X36384Y515974D01*
X35248Y516124D01*
X34124Y516347D01*
X33017Y516644D01*
X31932Y517012D01*
X30874Y517451D01*
X29846Y517958D01*
X28854Y518531D01*
X27901Y519167D01*
X26992Y519865D01*
X26130Y520620D01*
X25320Y521430D01*
X24565Y522292D01*
X23867Y523201D01*
X23231Y524154D01*
X22658Y525146D01*
X22151Y526174D01*
X21712Y527232D01*
X21344Y528317D01*
X21047Y529424D01*
X20824Y530548D01*
X20674Y531684D01*
X20599Y532827D01*
X20599Y533973D01*
X20674Y535116D01*
X20824Y536252D01*
X21047Y537376D01*
X21344Y538483D01*
X21712Y539568D01*
X22151Y540627D01*
X22658Y541654D01*
X23231Y542646D01*
X23867Y543599D01*
X24565Y544508D01*
X25320Y545370D01*
X26130Y546180D01*
X26992Y546935D01*
X27901Y547633D01*
X28854Y548270D01*
X29846Y548842D01*
X30874Y549349D01*
X31932Y549788D01*
X33017Y550156D01*
X34124Y550453D01*
X35248Y550676D01*
X36384Y550826D01*
X37527Y550901D01*
X38673Y550901D01*
X39816Y550826D01*
X40952Y550676D01*
X42076Y550453D01*
X43183Y550156D01*
X44268Y549788D01*
X45327Y549349D01*
X46354Y548842D01*
X47346Y548270D01*
X48299Y547633D01*
X49208Y546935D01*
X50070Y546180D01*
X50880Y545370D01*
X51635Y544508D01*
X52333Y543599D01*
X52970Y542646D01*
X53542Y541654D01*
X54049Y540627D01*
X54488Y539568D01*
X54856Y538483D01*
X55153Y537376D01*
X55376Y536252D01*
X55526Y535116D01*
X55601Y533973D01*
X55601Y532827D01*
X500101Y532827D02*
X500026Y531684D01*
X499876Y530548D01*
X499653Y529424D01*
X499356Y528317D01*
X498988Y527232D01*
X498549Y526174D01*
X498042Y525146D01*
X497470Y524154D01*
X496833Y523201D01*
X496135Y522292D01*
X495380Y521430D01*
X494570Y520620D01*
X493708Y519865D01*
X492799Y519167D01*
X491846Y518531D01*
X490854Y517958D01*
X489827Y517451D01*
X488768Y517012D01*
X487683Y516644D01*
X486576Y516347D01*
X485452Y516124D01*
X484316Y515974D01*
X483173Y515899D01*
X482027Y515899D01*
X480884Y515974D01*
X479748Y516124D01*
X478624Y516347D01*
X477517Y516644D01*
X476432Y517012D01*
X475374Y517451D01*
X474346Y517958D01*
X473354Y518531D01*
X472401Y519167D01*
X471492Y519865D01*
X470630Y520620D01*
X469820Y521430D01*
X469065Y522292D01*
X468367Y523201D01*
X467731Y524154D01*
X467158Y525146D01*
X466651Y526174D01*
X466212Y527232D01*
X465844Y528317D01*
X465547Y529424D01*
X465324Y530548D01*
X465174Y531684D01*
X465099Y532827D01*
X465099Y533973D01*
X465174Y535116D01*
X465324Y536252D01*
X465547Y537376D01*
X465844Y538483D01*
X466212Y539568D01*
X466651Y540627D01*
X467158Y541654D01*
X467731Y542646D01*
X468367Y543599D01*
X469065Y544508D01*
X469820Y545370D01*
X470630Y546180D01*
X471492Y546935D01*
X472401Y547633D01*
X473354Y548270D01*
X474346Y548842D01*
X475374Y549349D01*
X476432Y549788D01*
X477517Y550156D01*
X478624Y550453D01*
X479748Y550676D01*
X480884Y550826D01*
X482027Y550901D01*
X483173Y550901D01*
X484316Y550826D01*
X485452Y550676D01*
X486576Y550453D01*
X487683Y550156D01*
X488768Y549788D01*
X489827Y549349D01*
X490854Y548842D01*
X491846Y548270D01*
X492799Y547633D01*
X493708Y546935D01*
X494570Y546180D01*
X495380Y545370D01*
X496135Y544508D01*
X496833Y543599D01*
X497470Y542646D01*
X498042Y541654D01*
X498549Y540627D01*
X498988Y539568D01*
X499356Y538483D01*
X499653Y537376D01*
X499876Y536252D01*
X500026Y535116D01*
X500101Y533973D01*
X500101Y532827D01*
X55601Y37527D02*
X55526Y36384D01*
X55376Y35248D01*
X55153Y34124D01*
X54856Y33017D01*
X54488Y31932D01*
X54049Y30874D01*
X53542Y29846D01*
X52970Y28854D01*
X52333Y27901D01*
X51635Y26992D01*
X50880Y26130D01*
X50070Y25320D01*
X49208Y24565D01*
X48299Y23867D01*
X47346Y23231D01*
X46354Y22658D01*
X45327Y22151D01*
X44268Y21712D01*
X43183Y21344D01*
X42076Y21047D01*
X40952Y20824D01*
X39816Y20674D01*
X38673Y20599D01*
X37527Y20599D01*
X36384Y20674D01*
X35248Y20824D01*
X34124Y21047D01*
X33017Y21344D01*
X31932Y21712D01*
X30874Y22151D01*
X29846Y22658D01*
X28854Y23231D01*
X27901Y23867D01*
X26992Y24565D01*
X26130Y25320D01*
X25320Y26130D01*
X24565Y26992D01*
X23867Y27901D01*
X23231Y28854D01*
X22658Y29846D01*
X22151Y30874D01*
X21712Y31932D01*
X21344Y33017D01*
X21047Y34124D01*
X20824Y35248D01*
X20674Y36384D01*
X20599Y37527D01*
X20599Y38673D01*
X20674Y39816D01*
X20824Y40952D01*
X21047Y42076D01*
X21344Y43183D01*
X21712Y44268D01*
X22151Y45327D01*
X22658Y46354D01*
X23231Y47346D01*
X23867Y48299D01*
X24565Y49208D01*
X25320Y50070D01*
X26130Y50880D01*
X26992Y51635D01*
X27901Y52333D01*
X28854Y52970D01*
X29846Y53542D01*
X30874Y54049D01*
X31932Y54488D01*
X33017Y54856D01*
X34124Y55153D01*
X35248Y55376D01*
X36384Y55526D01*
X37527Y55601D01*
X38673Y55601D01*
X39816Y55526D01*
X40952Y55376D01*
X42076Y55153D01*
X43183Y54856D01*
X44268Y54488D01*
X45327Y54049D01*
X46354Y53542D01*
X47346Y52970D01*
X48299Y52333D01*
X49208Y51635D01*
X50070Y50880D01*
X50880Y50070D01*
X51635Y49208D01*
X52333Y48299D01*
X52970Y47346D01*
X53542Y46354D01*
X54049Y45327D01*
X54488Y44268D01*
X54856Y43183D01*
X55153Y42076D01*
X55376Y40952D01*
X55526Y39816D01*
X55601Y38673D01*
X55601Y37527D01*
X500101Y37527D02*
X500026Y36384D01*
X499876Y35248D01*
X499653Y34124D01*
X499356Y33017D01*
X498988Y31932D01*
X498549Y30874D01*
X498042Y29846D01*
X497470Y28854D01*
X496833Y27901D01*
X496135Y26992D01*
X495380Y26130D01*
X494570Y25320D01*
X493708Y24565D01*
X492799Y23867D01*
X491846Y23231D01*
X490854Y22658D01*
X489827Y22151D01*
X488768Y21712D01*
X487683Y21344D01*
X486576Y21047D01*
X485452Y20824D01*
X484316Y20674D01*
X483173Y20599D01*
X482027Y20599D01*
X480884Y20674D01*
X479748Y20824D01*
X478624Y21047D01*
X477517Y21344D01*
X476432Y21712D01*
X475374Y22151D01*
X474346Y22658D01*
X473354Y23231D01*
X472401Y23867D01*
X471492Y24565D01*
X470630Y25320D01*
X469820Y26130D01*
X469065Y26992D01*
X468367Y27901D01*
X467731Y28854D01*
X467158Y29846D01*
X466651Y30874D01*
X466212Y31932D01*
X465844Y33017D01*
X465547Y34124D01*
X465324Y35248D01*
X465174Y36384D01*
X465099Y37527D01*
X465099Y38673D01*
X465174Y39816D01*
X465324Y40952D01*
X465547Y42076D01*
X465844Y43183D01*
X466212Y44268D01*
X466651Y45327D01*
X467158Y46354D01*
X467731Y47346D01*
X468367Y48299D01*
X469065Y49208D01*
X469820Y50070D01*
X470630Y50880D01*
X471492Y51635D01*
X472401Y52333D01*
X473354Y52970D01*
X474346Y53542D01*
X475374Y54049D01*
X476432Y54488D01*
X477517Y54856D01*
X478624Y55153D01*
X479748Y55376D01*
X480884Y55526D01*
X482027Y55601D01*
X483173Y55601D01*
X484316Y55526D01*
X485452Y55376D01*
X486576Y55153D01*
X487683Y54856D01*
X488768Y54488D01*
X489827Y54049D01*
X490854Y53542D01*
X491846Y52970D01*
X492799Y52333D01*
X493708Y51635D01*
X494570Y50880D01*
X495380Y50070D01*
X496135Y49208D01*
X496833Y48299D01*
X497470Y47346D01*
X498042Y46354D01*
X498549Y45327D01*
X498988Y44268D01*
X499356Y43183D01*
X499653Y42076D01*
X499876Y40952D01*
X500026Y39816D01*
X500101Y38673D01*
X500101Y37527D01*
X55601Y532827D02*
X55526Y531684D01*
X55376Y530548D01*
X55153Y529424D01*
X54856Y528317D01*
X54488Y527232D01*
X54049Y526174D01*
X53542Y525146D01*
X52970Y524154D01*
X52333Y523201D01*
X51635Y522292D01*
X50880Y521430D01*
X50070Y520620D01*
X49208Y519865D01*
X48299Y519167D01*
X47346Y518531D01*
X46354Y517958D01*
X45327Y517451D01*
X44268Y517012D01*
X43183Y516644D01*
X42076Y516347D01*
X40952Y516124D01*
X39816Y515974D01*
X38673Y515899D01*
X37527Y515899D01*
X36384Y515974D01*
X35248Y516124D01*
X34124Y516347D01*
X33017Y516644D01*
X31932Y517012D01*
X30874Y517451D01*
X29846Y517958D01*
X28854Y518531D01*
X27901Y519167D01*
X26992Y519865D01*
X26130Y520620D01*
X25320Y521430D01*
X24565Y522292D01*
X23867Y523201D01*
X23231Y524154D01*
X22658Y525146D01*
X22151Y526174D01*
X21712Y527232D01*
X21344Y528317D01*
X21047Y529424D01*
X20824Y530548D01*
X20674Y531684D01*
X20599Y532827D01*
X20599Y533973D01*
X20674Y535116D01*
X20824Y536252D01*
X21047Y537376D01*
X21344Y538483D01*
X21712Y539568D01*
X22151Y540627D01*
X22658Y541654D01*
X23231Y542646D01*
X23867Y543599D01*
X24565Y544508D01*
X25320Y545370D01*
X26130Y546180D01*
X26992Y546935D01*
X27901Y547633D01*
X28854Y548270D01*
X29846Y548842D01*
X30874Y549349D01*
X31932Y549788D01*
X33017Y550156D01*
X34124Y550453D01*
X35248Y550676D01*
X36384Y550826D01*
X37527Y550901D01*
X38673Y550901D01*
X39816Y550826D01*
X40952Y550676D01*
X42076Y550453D01*
X43183Y550156D01*
X44268Y549788D01*
X45327Y549349D01*
X46354Y548842D01*
X47346Y548270D01*
X48299Y547633D01*
X49208Y546935D01*
X50070Y546180D01*
X50880Y545370D01*
X51635Y544508D01*
X52333Y543599D01*
X52970Y542646D01*
X53542Y541654D01*
X54049Y540627D01*
X54488Y539568D01*
X54856Y538483D01*
X55153Y537376D01*
X55376Y536252D01*
X55526Y535116D01*
X55601Y533973D01*
X55601Y532827D01*
X500101Y532827D02*
X500026Y531684D01*
X499876Y530548D01*
X499653Y529424D01*
X499356Y528317D01*
X498988Y527232D01*
X498549Y526174D01*
X498042Y525146D01*
X497470Y524154D01*
X496833Y523201D01*
X496135Y522292D01*
X495380Y521430D01*
X494570Y520620D01*
X493708Y519865D01*
X492799Y519167D01*
X491846Y518531D01*
X490854Y517958D01*
X489827Y517451D01*
X488768Y517012D01*
X487683Y516644D01*
X486576Y516347D01*
X485452Y516124D01*
X484316Y515974D01*
X483173Y515899D01*
X482027Y515899D01*
X480884Y515974D01*
X479748Y516124D01*
X478624Y516347D01*
X477517Y516644D01*
X476432Y517012D01*
X475374Y517451D01*
X474346Y517958D01*
X473354Y518531D01*
X472401Y519167D01*
X471492Y519865D01*
X470630Y520620D01*
X469820Y521430D01*
X469065Y522292D01*
X468367Y523201D01*
X467731Y524154D01*
X467158Y525146D01*
X466651Y526174D01*
X466212Y527232D01*
X465844Y528317D01*
X465547Y529424D01*
X465324Y530548D01*
X465174Y531684D01*
X465099Y532827D01*
X465099Y533973D01*
X465174Y535116D01*
X465324Y536252D01*
X465547Y537376D01*
X465844Y538483D01*
X466212Y539568D01*
X466651Y540627D01*
X467158Y541654D01*
X467731Y542646D01*
X468367Y543599D01*
X469065Y544508D01*
X469820Y545370D01*
X470630Y546180D01*
X471492Y546935D01*
X472401Y547633D01*
X473354Y548270D01*
X474346Y548842D01*
X475374Y549349D01*
X476432Y549788D01*
X477517Y550156D01*
X478624Y550453D01*
X479748Y550676D01*
X480884Y550826D01*
X482027Y550901D01*
X483173Y550901D01*
X484316Y550826D01*
X485452Y550676D01*
X486576Y550453D01*
X487683Y550156D01*
X488768Y549788D01*
X489827Y549349D01*
X490854Y548842D01*
X491846Y548270D01*
X492799Y547633D01*
X493708Y546935D01*
X494570Y546180D01*
X495380Y545370D01*
X496135Y544508D01*
X496833Y543599D01*
X497470Y542646D01*
X498042Y541654D01*
X498549Y540627D01*
X498988Y539568D01*
X499356Y538483D01*
X499653Y537376D01*
X499876Y536252D01*
X500026Y535116D01*
X500101Y533973D01*
X500101Y532827D01*
M02*
